<!-- Generator: Adobe Illustrator 21.1.0, SVG Export Plug-In  -->
<svg version="1.1"
	 xmlns="http://www.w3.org/2000/svg" xmlns:xlink="http://www.w3.org/1999/xlink" xmlns:a="http://ns.adobe.com/AdobeSVGViewerExtensions/3.0/"
	 x="0px" y="0px" width="892.5px" height="366.8px" viewBox="0 0 892.5 366.8" style="enable-background:new 0 0 892.5 366.8;"
	 xml:space="preserve">
<style type="text/css">
	.st0{fill:#B5B8C0;}
	.st1{fill:#F4F3F4;}
	.st2{fill:#666666;}
	.st3{fill:#444444;}
	.st4{opacity:0.35;fill:url(#SVGID_1_);}
	.st5{opacity:0.35;fill:url(#SVGID_2_);}
	.st6{opacity:0.35;fill:url(#SVGID_3_);}
	.st7{opacity:0.35;fill:url(#SVGID_4_);}
</style>
<defs>
</defs>
<path id="Board_1_" class="st0" d="M880.5,366.8H12c-6.6,0-12-5.4-12-12V12C0,5.4,5.4,0,12,0h868.5c6.6,0,12,5.4,12,12v342.8
	C892.5,361.5,887.1,366.8,880.5,366.8z"/>
<g id="Keys_1_">
	<path class="st1" d="M710.6,132.6v41.9c0,2.2,1.8,4,4,4h42.9c2.2,0,4-1.8,4-4v-41.9c0-2.2-1.8-4-4-4h-42.9
		C712.4,128.6,710.6,130.4,710.6,132.6z"/>
	<path class="st1" d="M650.4,130.4c-0.4,0.6-0.7,1.4-0.7,2.2v41.9c0,0.8,0.3,1.6,0.7,2.2c0.7,1.1,1.9,1.8,3.3,1.8h42.9
		c2.2,0,4-1.8,4-4v-41.9c0-2.2-1.8-4-4-4h-42.9C652.3,128.6,651.1,129.3,650.4,130.4z"/>
	<path class="st1" d="M772.4,238.3c2.2,0,4-1.8,4-4v-41.9c0-2.2-1.8-4-4-4h-42.9c-2.2,0-4,1.8-4,4v41.9c0,2.2,1.8,4,4,4H772.4z"/>
	<path class="st1" d="M607.6,238.3h42.9c2.2,0,4-1.8,4-4v-41.9c0-2.2-1.8-4-4-4h-42.9c-2.2,0-4,1.8-4,4v41.9
		C603.6,236.5,605.4,238.3,607.6,238.3z"/>
	<path class="st1" d="M715.4,234.3v-41.9c0-2.2-1.8-4-4-4h-42.9c-2.2,0-4,1.8-4,4v41.9c0,2.2,1.8,4,4,4h42.9
		C713.6,238.3,715.4,236.5,715.4,234.3z"/>
	<path class="st1" d="M744.6,297c0,0,0.1-0.1,0.1-0.1c0.7-0.7,1.2-1.7,1.2-2.8v-41.9c0-2.2-1.8-4-4-4h-42.9c-1.4,0-2.6,0.7-3.3,1.8
		c-0.4,0.6-0.7,1.4-0.7,2.2V294c0,1.1,0.4,2,1.1,2.7c0,0,0.1,0.1,0.1,0.1c0,0,0.1,0.1,0.1,0.1c0.7,0.7,1.7,1.1,2.7,1.1h42.9
		C742.9,298,743.9,297.6,744.6,297z"/>
	<path class="st1" d="M883.5,80.9c0-4.7,0-8,0-8c0-2.2-1.8-4-4-4c0,0-3.4,0-8.2,0c-16.7,0-41.4,0-58,0c-4.9,0-8.2,0-8.2,0
		c-1.1,0-2.1,0.4-2.8,1.2c0,0-0.1,0.1-0.1,0.1c-0.7,0.7-1.1,1.7-1.1,2.7c0,0,0,3.3,0,8c0,7.4,0,18.5,0,26c0,4.7,0,8,0,8
		c0,2.2,1.8,4,4,4c0,0,3.4,0,8.2,0c16.7,0,41.4,0,58,0c4.9,0,8.2,0,8.2,0c1.1,0,2.1-0.4,2.8-1.2c0,0,0.1-0.1,0.1-0.1
		c0.7-0.7,1.1-1.7,1.1-2.7c0,0,0-3.3,0-8C883.5,99.4,883.5,88.3,883.5,80.9z"/>
	<path class="st1" d="M639.7,174.5v-41.9c0-2.2-1.8-4-4-4h-42.9c-1.4,0-2.6,0.7-3.3,1.8c-0.4,0.6-0.7,1.4-0.7,2.2v41.9
		c0,0.8,0.3,1.6,0.7,2.2c0.7,1.1,1.9,1.8,3.3,1.8h42.9C637.9,178.5,639.7,176.7,639.7,174.5z"/>
	<path class="st1" d="M9.1,166.6c0,4.7,0,8,0,8c0,2.2,1.8,4,4,4c0,0,3.4,0,8.2,0c16.7,0,41.3,0,57.9,0c4.9,0,8.2,0,8.2,0
		c2.2,0,4-1.8,4-4c0,0,0-3.3,0-8c0-7.4,0-18.5,0-26c0-4.7,0-8,0-8c0-2.2-1.8-4-4-4c0,0-3.4,0-8.2,0c-16.7,0-41.3,0-57.9,0
		c-4.9,0-8.2,0-8.2,0c-1.1,0-2.1,0.4-2.8,1.2c0,0-0.1,0.1-0.1,0.1c-0.7,0.7-1.1,1.7-1.1,2.7c0,0,0,3.3,0,8
		C9.1,148.1,9.1,159.1,9.1,166.6z"/>
	<path class="st1" d="M775.7,59h42.9c2.2,0,4-1.8,4-4V13.1c0-2.2-1.8-4-4-4h-42.9c-1.4,0-2.6,0.7-3.3,1.8c-0.4,0.6-0.7,1.4-0.7,2.2
		V55c0,0.8,0.3,1.6,0.7,2.2C773.1,58.3,774.3,59,775.7,59z"/>
	<path class="st1" d="M349.1,128.6c-2.2,0-4,1.8-4,4v41.9c0,2.2,1.8,4,4,4H392c2.2,0,4-1.8,4-4v-41.9c0-2.2-1.8-4-4-4H349.1z"/>
	<path class="st1" d="M466.9,132.6v41.9c0,2.2,1.8,4,4,4h42.9c1.4,0,2.6-0.7,3.3-1.8c0.4-0.6,0.7-1.4,0.7-2.2v-41.9
		c0-0.8-0.3-1.6-0.7-2.2c-0.7-1.1-1.9-1.8-3.3-1.8h-42.9C468.7,128.6,466.9,130.4,466.9,132.6z"/>
	<path class="st1" d="M410,128.6c-2.2,0-4,1.8-4,4v41.9c0,2.2,1.8,4,4,4h42.9c2.2,0,4-1.8,4-4v-41.9c0-2.2-1.8-4-4-4H410z"/>
	<path class="st1" d="M822.4,174.5v-41.9c0-2.2-1.8-4-4-4h-42.9c-2.2,0-4,1.8-4,4v41.9c0,2.2,1.8,4,4,4h42.9
		C820.7,178.5,822.4,176.7,822.4,174.5z"/>
	<path class="st1" d="M303,238.3h42.9c2.2,0,4-1.8,4-4v-41.9c0-2.2-1.8-4-4-4H303c-2.2,0-4,1.8-4,4v41.9
		C299,236.5,300.8,238.3,303,238.3z"/>
	<path class="st1" d="M331.1,178.5c2.2,0,4-1.8,4-4v-41.9c0-2.2-1.8-4-4-4h-42.9c-2.2,0-4,1.8-4,4v41.9c0,2.2,1.8,4,4,4H331.1z"/>
	<path class="st1" d="M437.3,248.1h-42.9c-2.2,0-4,1.8-4,4V294c0,1.4,0.7,2.6,1.8,3.3c0.6,0.4,1.4,0.7,2.2,0.7h42.9
		c0.8,0,1.6-0.3,2.2-0.7c1.1-0.7,1.8-1.9,1.8-3.3v-41.9C441.3,249.9,439.5,248.1,437.3,248.1z"/>
	<path class="st1" d="M467.8,238.3c2.2,0,4-1.8,4-4v-41.9c0-2.2-1.8-4-4-4h-42.9c-2.2,0-4,1.8-4,4v41.9c0,2.2,1.8,4,4,4H467.8z"/>
	<path class="st1" d="M406.9,238.3c2.2,0,4-1.8,4-4v-41.9c0-2.2-1.8-4-4-4h-42.9c-2.2,0-4,1.8-4,4v41.9c0,2.2,1.8,4,4,4H406.9z"/>
	<path class="st1" d="M696.7,307.9h-42.9c-2.2,0-4,1.8-4,4v41.9c0,1.4,0.7,2.6,1.8,3.3c0.6,0.4,1.4,0.7,2.2,0.7h42.9
		c2.2,0,4-1.8,4-4v-41.9c0-0.8-0.3-1.6-0.7-2.2C699.3,308.6,698.1,307.9,696.7,307.9z"/>
	<path class="st1" d="M177.8,307.9h-42.9c-2.2,0-4,1.8-4,4v41.9c0,1.4,0.7,2.6,1.8,3.3c0.6,0.4,1.4,0.7,2.2,0.7h42.9
		c0.8,0,1.6-0.3,2.2-0.7c1.1-0.7,1.8-1.9,1.8-3.3v-41.9C181.8,309.7,180,307.9,177.8,307.9z"/>
	<path class="st1" d="M714.7,59h42.9c2.2,0,4-1.8,4-4V13.1c0-2.2-1.8-4-4-4h-42.9c-2.2,0-4,1.8-4,4V55C710.7,57.2,712.5,59,714.7,59
		z"/>
	<path class="st1" d="M116.9,307.9H74c-2.2,0-4,1.8-4,4v41.9c0,1.4,0.7,2.6,1.8,3.3c0.6,0.4,1.4,0.7,2.2,0.7h42.9
		c0.8,0,1.6-0.3,2.2-0.7c1.1-0.7,1.8-1.9,1.8-3.3v-41.9C120.9,309.7,119.1,307.9,116.9,307.9z"/>
	<path class="st1" d="M105.6,59h42.9c2.2,0,4-1.8,4-4V13.1c0-2.2-1.8-4-4-4h-42.9c-2.2,0-4,1.8-4,4V55C101.6,57.2,103.4,59,105.6,59
		z"/>
	<path class="st1" d="M56,307.9H13.1c-2.2,0-4,1.8-4,4v41.9c0,1.4,0.7,2.6,1.8,3.3c0.6,0.4,1.4,0.7,2.2,0.7H56
		c0.8,0,1.6-0.3,2.2-0.7c1.1-0.7,1.8-1.9,1.8-3.3v-41.9C60,309.7,58.2,307.9,56,307.9z"/>
	<path class="st1" d="M810.3,357.8c4.9,0,8.2,0,8.2,0c2.2,0,4-1.8,4-4c0,0,0-3.3,0-8c0-0.4,0-12.5,0-12.5h-50.9c0,4.8,0,11.7,0,12.5
		c0,4.7,0,8,0,8c0,0.8,0.3,1.6,0.7,2.2c0.7,1.1,1.9,1.8,3.3,1.8c0,0,3.4,0,8.2,0C791.5,357.8,802.7,357.8,810.3,357.8z"/>
	<path class="st1" d="M883.5,353.8v-41.9c0-2.2-1.8-4-4-4h-42.9c-2.2,0-4,1.8-4,4v41.9c0,1.4,0.7,2.6,1.8,3.3
		c0.6,0.4,1.4,0.7,2.2,0.7h42.9C881.7,357.8,883.5,356,883.5,353.8z"/>
	<path class="st1" d="M771.6,319.9c0,1,0,2.4,0,3.4c0,1.3,0,2.6,0,3.6c0,0.8,0,1.5,0,2.1c0,1.4,0,2.3,0,2.3c0,0.4,0,0.7,0,1.1h50.7
		h0.2v-20.5c0-2.2-1.8-4-4-4c0,0-3.4,0-8.2,0c-7.6,0-18.9,0-26.5,0c-4.9,0-8.2,0-8.2,0c-1.4,0-2.6,0.7-3.3,1.8
		c-0.4,0.6-0.7,1.4-0.7,2.2C771.6,311.9,771.6,315.1,771.6,319.9z"/>
	<path class="st1" d="M757.6,307.9h-42.9c-2.2,0-4,1.8-4,4v41.9c0,1.1,0.4,2.1,1.2,2.8c0,0,0.1,0.1,0.1,0.1c0.7,0.7,1.7,1.1,2.7,1.1
		h42.9c0.8,0,1.6-0.3,2.2-0.7c1.1-0.7,1.8-1.9,1.8-3.3v-41.9C761.6,309.7,759.9,307.9,757.6,307.9z"/>
	<path class="st1" d="M376.4,248.1h-42.9c-2.2,0-4,1.8-4,4V294c0,1.4,0.7,2.6,1.8,3.3c0.6,0.4,1.4,0.7,2.2,0.7h42.9
		c0.8,0,1.6-0.3,2.2-0.7c1.1-0.7,1.8-1.9,1.8-3.3v-41.9C380.4,249.9,378.6,248.1,376.4,248.1z"/>
	<path class="st1" d="M471.1,59H514c1.4,0,2.6-0.7,3.3-1.8c0.4-0.6,0.7-1.4,0.7-2.2V13.1c0-0.8-0.3-1.6-0.7-2.2
		c-0.7-1.1-1.9-1.8-3.3-1.8h-42.9c-2.2,0-4,1.8-4,4V55C467.1,57.2,468.9,59,471.1,59z"/>
	<path class="st1" d="M588.9,13.1V55c0,2.2,1.8,4,4,4h42.9c1.4,0,2.6-0.7,3.3-1.8c0.4-0.6,0.7-1.4,0.7-2.2V13.1
		c0-0.8-0.3-1.6-0.7-2.2c-0.7-1.1-1.9-1.8-3.3-1.8h-42.9C590.7,9.1,588.9,10.9,588.9,13.1z"/>
	<path class="st1" d="M166.5,59h42.9c2.2,0,4-1.8,4-4V13.1c0-2.2-1.8-4-4-4h-42.9c-2.2,0-4,1.8-4,4V55C162.5,57.2,164.3,59,166.5,59
		z"/>
	<path class="st1" d="M653.8,59h42.9c1.4,0,2.6-0.7,3.3-1.8c0.4-0.6,0.7-1.4,0.7-2.2V13.1c0-0.8-0.3-1.6-0.7-2.2
		c-0.7-1.1-1.9-1.8-3.3-1.8h-42.9c-2.2,0-4,1.8-4,4V55C649.8,57.2,651.6,59,653.8,59z"/>
	<path class="st1" d="M528,13.1V55c0,2.2,1.8,4,4,4h42.9c2.2,0,4-1.8,4-4V13.1c0-2.2-1.8-4-4-4H532C529.8,9.1,528,10.9,528,13.1z"/>
	<path class="st1" d="M288.3,59h42.9c2.2,0,4-1.8,4-4V13.1c0-2.2-1.8-4-4-4h-42.9c-2.2,0-4,1.8-4,4V55C284.3,57.2,286.1,59,288.3,59
		z"/>
	<path class="st1" d="M227.4,59h42.9c2.2,0,4-1.8,4-4V13.1c0-2.2-1.8-4-4-4h-42.9c-2.2,0-4,1.8-4,4V55C223.4,57.2,225.2,59,227.4,59
		z"/>
	<path class="st1" d="M349.2,59h42.9c2.2,0,4-1.8,4-4V13.1c0-2.2-1.8-4-4-4h-42.9c-2.2,0-4,1.8-4,4V55C345.2,57.2,347,59,349.2,59z"
		/>
	<path class="st1" d="M410.2,59h42.9c2.2,0,4-1.8,4-4V13.1c0-2.2-1.8-4-4-4h-42.9c-2.2,0-4,1.8-4,4V55C406.2,57.2,407.9,59,410.2,59
		z"/>
	<path class="st1" d="M224.1,238.3c2.2,0,4-1.8,4-4v-41.9c0-2.2-1.8-4-4-4h-42.9c-2.2,0-4,1.8-4,4v41.9c0,2.2,1.8,4,4,4H224.1z"/>
	<path class="st1" d="M193.6,298c0.8,0,1.6-0.3,2.2-0.7c1.1-0.7,1.8-1.9,1.8-3.3v-41.9c0-2.2-1.8-4-4-4h-42.9c-2.2,0-4,1.8-4,4V294
		c0,1.4,0.7,2.6,1.8,3.3c0.6,0.4,1.4,0.7,2.2,0.7H193.6z"/>
	<path class="st1" d="M195.8,357.8c0,0,3.4,0,8.2,0c12.1,0,30.1,0,42.2,0c4.9,0,8.2,0,8.2,0c2.2,0,4-1.8,4-4c0,0,0-3.3,0-8
		c0-7.4,0-18.5,0-26c0-4.7,0-8,0-8c0-1.1-0.4-2.1-1.2-2.8c-0.7-0.7-1.7-1.2-2.8-1.2c0,0-3.4,0-8.2,0c-12.1,0-30.1,0-42.2,0
		c-4.9,0-8.2,0-8.2,0c-1.1,0-2.1,0.4-2.8,1.2c0,0-0.1,0.1-0.1,0.1c-0.7,0.7-1.1,1.7-1.1,2.7c0,0,0,3.3,0,8c0,7.4,0,18.5,0,26
		c0,4.7,0,8,0,8C191.8,356,193.6,357.8,195.8,357.8z"/>
	<path class="st1" d="M285,238.3c2.2,0,4-1.8,4-4v-41.9c0-2.2-1.8-4-4-4h-42.9c-2.2,0-4,1.8-4,4v41.9c0,2.2,1.8,4,4,4H285z"/>
	<path class="st1" d="M132.7,298c0.8,0,1.6-0.3,2.2-0.7c1.1-0.7,1.8-1.9,1.8-3.3v-41.9c0-2.2-1.8-4-4-4H89.8c-2.2,0-4,1.8-4,4V294
		c0,1.4,0.7,2.6,1.8,3.3c0.6,0.4,1.4,0.7,2.2,0.7H132.7z"/>
	<path class="st1" d="M13.1,118.8H56c2.2,0,4-1.8,4-4V72.9c0-2.2-1.8-4-4-4H13.1c-2.2,0-4,1.8-4,4v41.9
		C9.1,117,10.9,118.8,13.1,118.8z"/>
	<path class="st1" d="M74,68.9c-2.2,0-4,1.8-4,4v41.9c0,2.2,1.8,4,4,4h42.9c2.2,0,4-1.8,4-4V72.9c0-2.2-1.8-4-4-4H74z"/>
	<path class="st1" d="M134.9,68.9c-2.2,0-4,1.8-4,4v41.9c0,2.2,1.8,4,4,4h42.9c2.2,0,4-1.8,4-4V72.9c0-2.2-1.8-4-4-4H134.9z"/>
	<path class="st1" d="M272.5,357.8c0,0,3.4,0,8.2,0c77.7,0,192.5,0,270.1,0c4.9,0,8.2,0,8.2,0c2.2,0,4-1.8,4-4c0,0,0-3.3,0-8
		c0-7.4,0-18.5,0-26c0-4.7,0-8,0-8c0-1.1-0.4-2.1-1.2-2.8c-0.7-0.7-1.7-1.2-2.8-1.2c0,0-3.4,0-8.2,0c-77.7,0-192.5,0-270.1,0
		c-4.9,0-8.2,0-8.2,0c-2.2,0-4,1.8-4,4c0,0,0,3.3,0,8c0,7.4,0,18.5,0,26c0,4.7,0,8,0,8C268.5,356,270.3,357.8,272.5,357.8z"/>
	<path class="st1" d="M63.5,298c4.9,0,8.2,0,8.2,0c2.2,0,4-1.8,4-4c0,0,0-3.3,0-8c0-7.4,0-18.5,0-26c0-4.7,0-8,0-8
		c0-0.9-0.3-1.7-0.8-2.3c-0.7-1-1.9-1.7-3.2-1.7c0,0-3.4,0-8.2,0c-12.1,0-30.1,0-42.2,0c-4.9,0-8.2,0-8.2,0c-1.1,0-2.1,0.4-2.8,1.2
		c0,0-0.1,0.1-0.1,0.1c-0.7,0.7-1.1,1.7-1.1,2.7c0,0,0,3.3,0,8c0,7.4,0,18.5,0,26c0,4.7,0,8,0,8c0,2.2,1.8,4,4,4c0,0,3.4,0,8.2,0
		C33.4,298,51.4,298,63.5,298z"/>
	<path class="st1" d="M559.1,248.1h-42.9c-2.2,0-4,1.8-4,4V294c0,1.4,0.7,2.6,1.8,3.3c0.6,0.4,1.4,0.7,2.2,0.7h42.9
		c0.8,0,1.6-0.3,2.2-0.7c1.1-0.7,1.8-1.9,1.8-3.3v-41.9C563.1,249.9,561.3,248.1,559.1,248.1z"/>
	<path class="st1" d="M871.2,298c4.9,0,8.2,0,8.2,0c2.2,0,4-1.8,4-4c0,0,0-3.3,0-8c0-7.4,0-18.5,0-26c0-4.7,0-8,0-8c0-2.2-1.8-4-4-4
		c0,0-3.4,0-8.2,0c-29.7,0-73.5,0-103.2,0c-4.9,0-8.2,0-8.2,0c-2.2,0-4,1.8-4,4c0,0,0,3.3,0,8c0,7.4,0,18.5,0,26c0,4.7,0,8,0,8
		c0,2.2,1.8,4,4,4c0,0,3.4,0,8.2,0C797.7,298,841.6,298,871.2,298z"/>
	<path class="st1" d="M195.8,68.9c-2.2,0-4,1.8-4,4v41.9c0,2.2,1.8,4,4,4h42.9c2.2,0,4-1.8,4-4V72.9c0-2.2-1.8-4-4-4H195.8z"/>
	<path class="st1" d="M589.6,238.3c2.2,0,4-1.8,4-4v-41.9c0-2.2-1.8-4-4-4h-42.9c-2.2,0-4,1.8-4,4v41.9c0,2.2,1.8,4,4,4H589.6z"/>
	<path class="st1" d="M879.5,9.1h-42.9c-2.2,0-4,1.8-4,4V55c0,2.2,1.8,4,4,4h42.9c2.2,0,4-1.8,4-4V13.1
		C883.5,10.9,881.7,9.1,879.5,9.1z"/>
	<path class="st1" d="M498.2,248.1h-42.9c-2.2,0-4,1.8-4,4V294c0,1.4,0.7,2.6,1.8,3.3c0.6,0.4,1.4,0.7,2.2,0.7h42.9
		c0.8,0,1.6-0.3,2.2-0.7c1.1-0.7,1.8-1.9,1.8-3.3v-41.9C502.2,249.9,500.4,248.1,498.2,248.1z"/>
	<path class="st1" d="M577.1,357.8c0,0,3.4,0,8.2,0c12.1,0,30.1,0,42.2,0c4.9,0,8.2,0,8.2,0c2.2,0,4-1.8,4-4c0,0,0-3.3,0-8
		c0-7.4,0-18.5,0-26c0-4.7,0-8,0-8c0-2.2-1.8-4-4-4c0,0-3.4,0-8.2,0c-12.1,0-30.1,0-42.2,0c-4.9,0-8.2,0-8.2,0
		c-1.1,0-2.1,0.4-2.8,1.2c0,0-0.1,0.1-0.1,0.1c-0.7,0.7-1.1,1.7-1.1,2.7c0,0,0,3.3,0,8c0,7.4,0,18.5,0,26c0,4.7,0,8,0,8
		C573.1,356,574.9,357.8,577.1,357.8z"/>
	<path class="st1" d="M683.2,297.4c1.1-0.7,1.8-1.9,1.8-3.3v-41.9c0-2.2-1.8-4-4-4H638c-1.4,0-2.6,0.7-3.3,1.8
		c-0.4,0.6-0.7,1.4-0.7,2.2V294c0,2.2,1.8,4,4,4h42.9C681.8,298,682.5,297.8,683.2,297.4z"/>
	<path class="st1" d="M254.5,248.1h-42.9c-2.2,0-4,1.8-4,4V294c0,1.4,0.7,2.6,1.8,3.3c0.6,0.4,1.4,0.7,2.2,0.7h42.9
		c0.8,0,1.6-0.3,2.2-0.7c1.1-0.7,1.8-1.9,1.8-3.3v-41.9C258.5,249.9,256.7,248.1,254.5,248.1z"/>
	<path class="st1" d="M8.9,21.1c0,7.4,0,18.5,0,26c0,4.7,0,8,0,8c0,2.2,1.8,4,4,4c0,0,3.4,0,8.2,0c16.7,0,41.4,0,58.2,0
		c4.9,0,8.2,0,8.2,0c2.2,0,4-1.8,4-4c0,0,0-3.3,0-8c0-7.4,0-18.5,0-26c0-4.7,0-8,0-8c0-2.2-1.8-4-4-4c0,0-3.4,0-8.2,0
		c-16.7,0-41.4,0-58.2,0c-4.9,0-8.2,0-8.2,0c-1.1,0-2.1,0.4-2.8,1.2c0,0-0.1,0.1-0.1,0.1c-0.7,0.7-1.1,1.7-1.1,2.7
		C8.9,13.1,8.9,16.4,8.9,21.1z"/>
	<path class="st1" d="M883.1,130.9c-0.1-0.1-0.1-0.3-0.2-0.4c-0.1-0.1-0.1-0.2-0.2-0.2c-0.1-0.1-0.2-0.2-0.3-0.3
		c-0.1-0.1-0.1-0.1-0.2-0.2c-0.1-0.1-0.2-0.2-0.3-0.3c-0.1-0.1-0.2-0.1-0.2-0.2c-0.1-0.1-0.3-0.1-0.4-0.2c-0.1,0-0.2-0.1-0.3-0.1
		c-0.2-0.1-0.3-0.1-0.5-0.1c-0.1,0-0.2,0-0.2-0.1c-0.2,0-0.5-0.1-0.8-0.1l-43,0c-2.2,0-4,1.8-4,4c0,0,0,3.3,0,8c0,7.4,0,18.5,0,26
		c0,4.7,0,8,0,8c0,2.2,1.8,4,4,4c0,0,2.8,0,7,0c2.2,0,4,1.8,4,4c0,2.5,0,51.7,0,51.7c0,2.2,1.8,4,4,4c0,0,3.4,0,8.2,0
		c3.3,0,8.2,0,11.5,0c4.9,0,8.2,0,8.2,0c0.2,0,0.5,0,0.7-0.1c0.1,0,0.2,0,0.3-0.1c0.1,0,0.2-0.1,0.4-0.1c0.1,0,0.2-0.1,0.4-0.2
		c0.1,0,0.1-0.1,0.2-0.1c0.1-0.1,0.3-0.2,0.4-0.2c0.3-0.2,0.5-0.5,0.8-0.7l0,0c0.1-0.2,0.3-0.3,0.4-0.5c0,0,0-0.1,0-0.1
		c0.1-0.2,0.2-0.3,0.2-0.5c0-0.1,0.1-0.2,0.1-0.3c0-0.1,0.1-0.3,0.1-0.4c0-0.2,0.1-0.5,0.1-0.7c0,0,0-3.3,0-8c0-24.6,0-93.6,0-93.6
		c0-0.5-0.1-1-0.3-1.5C883.1,131,883.1,131,883.1,130.9z"/>
	<path class="st1" d="M163.2,238.3c2.2,0,4-1.8,4-4v-41.9c0-2.2-1.8-4-4-4h-42.9c-2.2,0-4,1.8-4,4v41.9c0,2.2,1.8,4,4,4H163.2z"/>
	<path class="st1" d="M270.2,178.5c2.2,0,4-1.8,4-4v-41.9c0-2.2-1.8-4-4-4h-42.9c-2.2,0-4,1.8-4,4v41.9c0,2.2,1.8,4,4,4H270.2z"/>
	<path class="st1" d="M272.5,248.1c-2.2,0-4,1.8-4,4V294c0,1.4,0.7,2.6,1.8,3.3c0.6,0.4,1.4,0.7,2.2,0.7h42.9c0.8,0,1.6-0.3,2.2-0.7
		c1.1-0.7,1.8-1.9,1.8-3.3v-41.9c0-2.2-1.8-4-4-4H272.5z"/>
	<path class="st1" d="M13.1,238.3c0,0,3.4,0,8.2,0c20.9,0,51.8,0,72.7,0c4.9,0,8.2,0,8.2,0c2.2,0,4-1.8,4-4c0,0,0-3.3,0-8
		c0-7.4,0-18.5,0-26c0-4.7,0-8,0-8c0-2.2-1.8-4-4-4c0,0-3.4,0-8.2,0c-20.9,0-51.8,0-72.7,0c-4.9,0-8.2,0-8.2,0c-2.2,0-4,1.8-4,4
		c0,0,0,3.3,0,8c0,7.4,0,18.5,0,26c0,4.7,0,8,0,8c0,0.9,0.3,1.7,0.8,2.3C10.6,237.6,11.7,238.3,13.1,238.3z"/>
	<path class="st1" d="M528.7,238.3c2.2,0,4-1.8,4-4v-41.9c0-2.2-1.8-4-4-4h-42.9c-2.2,0-4,1.8-4,4v41.9c0,2.2,1.8,4,4,4H528.7z"/>
	<path class="st1" d="M573.1,252.1V294c0,1.4,0.7,2.6,1.8,3.3c0.6,0.4,1.4,0.7,2.2,0.7H620c2.2,0,4-1.8,4-4v-41.9
		c0-0.8-0.3-1.6-0.7-2.2c-0.7-1.1-1.9-1.8-3.3-1.8h-42.9C574.9,248.1,573.1,249.9,573.1,252.1z"/>
	<path class="st1" d="M574.8,178.5c2.2,0,4-1.8,4-4v-41.9c0-2.2-1.8-4-4-4h-42.9c-2.2,0-4,1.8-4,4v41.9c0,2.2,1.8,4,4,4H574.8z"/>
	<path class="st1" d="M166.4,128.6c-2.2,0-4,1.8-4,4v41.9c0,2.2,1.8,4,4,4h42.9c2.2,0,4-1.8,4-4v-41.9c0-2.2-1.8-4-4-4H166.4z"/>
	<path class="st1" d="M105.4,128.6c-2.2,0-4,1.8-4,4v41.9c0,2.2,1.8,4,4,4h42.9c2.2,0,4-1.8,4-4v-41.9c0-2.2-1.8-4-4-4H105.4z"/>
	<path class="st1" d="M500.4,68.9c-0.6,0-1.1,0.1-1.6,0.3c-0.5,0.2-0.9,0.5-1.3,0.9c-0.7,0.7-1.2,1.7-1.2,2.8v41.9
		c0,1.1,0.4,2.1,1.2,2.8c0.4,0.4,0.8,0.7,1.3,0.9c0.5,0.2,1,0.3,1.6,0.3h42.9c2.2,0,4-1.8,4-4V72.9c0-2.2-1.8-4-4-4H500.4z"/>
	<path class="st1" d="M439.5,68.9c-2.2,0-4,1.8-4,4v41.9c0,2.2,1.8,4,4,4h42.9c2.2,0,4-1.8,4-4V72.9c0-2.2-1.8-4-4-4H439.5z"/>
	<path class="st1" d="M256.7,68.9c-2.2,0-4,1.8-4,4v41.9c0,2.2,1.8,4,4,4h42.9c2.2,0,4-1.8,4-4V72.9c0-2.2-1.8-4-4-4H256.7z"/>
	<path class="st1" d="M378.6,68.9c-2.2,0-4,1.8-4,4v41.9c0,2.2,1.8,4,4,4h42.9c2.2,0,4-1.8,4-4V72.9c0-2.2-1.8-4-4-4H378.6z"/>
	<path class="st1" d="M317.6,68.9c-2.2,0-4,1.8-4,4v41.9c0,2.2,1.8,4,4,4h42.9c2.2,0,4-1.8,4-4V72.9c0-2.2-1.8-4-4-4H317.6z"/>
	<path class="st1" d="M683.1,68.9c-2.2,0-4,1.8-4,4v41.9c0,2.2,1.8,4,4,4h42.9c2.2,0,4-1.8,4-4V72.9c0-2.2-1.8-4-4-4H683.1z"/>
	<path class="st1" d="M744.1,68.9c-2.2,0-4,1.8-4,4v41.9c0,2.2,1.8,4,4,4H787c2.2,0,4-1.8,4-4V72.9c0-2.2-1.8-4-4-4H744.1z"/>
	<path class="st1" d="M557.3,72.9v41.9c0,2.2,1.8,4,4,4h42.9c1.4,0,2.6-0.7,3.3-1.8c0.4-0.6,0.7-1.4,0.7-2.2V72.9
		c0-0.8-0.3-1.6-0.7-2.2c-0.7-1.1-1.9-1.8-3.3-1.8h-42.9C559.1,68.9,557.3,70.7,557.3,72.9z"/>
	<path class="st1" d="M837.3,234.3v-41.9c0-2.2-1.8-4-4-4h-42.9c-1.4,0-2.6,0.7-3.3,1.8c-0.4,0.6-0.7,1.4-0.7,2.2v41.9
		c0,0.8,0.3,1.6,0.7,2.2c0.7,1.1,1.9,1.8,3.3,1.8h42.9C835.5,238.3,837.3,236.5,837.3,234.3z"/>
	<path class="st1" d="M622.2,68.9c-2.2,0-4,1.8-4,4v41.9c0,2.2,1.8,4,4,4h42.9c2.2,0,4-1.8,4-4V72.9c0-2.2-1.8-4-4-4H622.2z"/>
</g>
<path id="Print_1_" class="st2" d="M146.4,219.5l-4.2-12h-1.7l-4.2,12h1.7l1.2-3.5h4.4l1.2,3.5H146.4z M139.5,214.6l1.8-5.3h0.1
	l1.8,5.3H139.5z M202.4,219.7c-2.5,0-4.2-1.4-4.3-3.3h1.6c0.2,1.1,1.3,1.9,2.9,1.9c1.7,0,2.7-0.8,2.7-2c0-1-0.6-1.5-2-1.9l-2.1-0.5
	c-1.8-0.5-2.8-1.6-2.8-3.2c0-2,1.7-3.5,4.2-3.5c2.4,0,4,1.3,4.2,3.2h-1.6c-0.2-1.1-1.2-1.7-2.6-1.7c-1.5,0-2.5,0.8-2.5,2
	c0,0.8,0.6,1.4,1.7,1.7l2,0.5c2.1,0.5,3.1,1.5,3.1,3.3C206.9,218.3,205.2,219.7,202.4,219.7z M263.2,207.5h-3.9v12h3.9
	c3.5,0,5.3-2.1,5.3-6S266.7,207.5,263.2,207.5z M263.1,218h-2.2v-9.1h2.2c2.5,0,3.7,1.5,3.7,4.6S265.6,218,263.1,218z M321.4,207.5
	h7.1v1.5H323v4h5.1v1.4H323v5.1h-1.6V207.5z M385.4,213.2h4.6v2.5c0,2.3-1.6,4.1-4.5,4.1c-3.1,0-4.9-2-4.9-5.5v-1.6
	c0-3.3,1.8-5.4,4.8-5.4c2.4,0,4.1,1.5,4.4,3.5h-1.6c-0.3-1.3-1.4-2.1-2.8-2.1c-2,0-3.2,1.5-3.2,3.9v1.6c0,2.5,1.2,4,3.2,4
	c1.9,0,2.9-1.1,2.9-2.6v-1.1h-3V213.2z M449.3,207.5h1.6v12h-1.6V214h-5.9v5.5h-1.6v-12h1.6v5.1h5.9V207.5z M508.5,207.5h1.6v8.5
	c0,2.4-1.3,3.8-3.6,3.8c-2.1,0-3.4-1.3-3.4-3.1h1.6c0,0.9,0.8,1.6,1.8,1.6c1.3,0,2-0.8,2-2.2V207.5z M568.6,212.6l4.7,6.9h-2
	l-3.8-5.7l-1.5,1.6v4.2h-1.6v-12h1.6v5.7h0.1l5.2-5.7h1.9L568.6,212.6z M627.7,218h5.5v1.5h-7.1v-12h1.6V218z M681.9,219.5h1.8
	l1.9-3.5h4.3v3.5h7.2V218h-5.6v-4h5.2v-1.4h-5.2v-3.7h5.6v-1.4h-8.7L681.9,219.5z M690,208.9v5.7h-3.6l3-5.7H690z M755,207.4
	l-0.9,1.1c-0.8-0.8-1.9-1.2-3.3-1.2c-2.9,0-4.8,2-4.8,5.4v1.7c0,1.3,0.3,2.3,0.7,3.2l-1,1.3l0.9,0.7l0.9-1.1c0.8,0.8,2,1.2,3.3,1.2
	c2.9,0,4.9-1.9,4.9-5.3v-1.7c0-1.3-0.3-2.5-0.8-3.3l1-1.3L755,207.4z M747.7,214.4v-1.7c0-2.6,1.4-4,3.2-4c0.9,0,1.7,0.3,2.3,1
	l-5.3,6.5C747.8,215.6,747.7,215.1,747.7,214.4z M754.1,214.4c0,2.6-1.4,3.9-3.2,3.9c-1,0-1.8-0.3-2.4-1l5.3-6.5
	c0.2,0.5,0.3,1.2,0.3,1.9V214.4z M811.9,217.5h1.3l-1,4.9h-1.9L811.9,217.5z M815.2,200.3l-2.6,1.3l2.6,1.3l-0.6,1.1l-2.4-1.6
	l0.2,2.9h-1.2l0.2-2.9l-2.4,1.6l-0.6-1.1l2.6-1.3l-2.6-1.3l0.6-1.1l2.4,1.6l-0.2-2.9h1.2l-0.2,2.9l2.4-1.6L815.2,200.3z M827.3,223
	L827.3,223c-2.8,0-4.9,1.9-4.9,4.9v0.4c0,3.2,2.2,4.8,4.8,4.8h0.1c1,0,1.7-0.1,2.1-0.3v-0.8c-0.5,0.2-1.1,0.3-2,0.3h-0.1
	c-2.1,0-3.9-1.3-3.9-4v-0.3c0-2.5,1.7-4.1,3.9-4.1h0.1c2.4,0,3.7,1.6,3.7,3.5v0.2c0,1.5-0.6,2.2-1.2,2.2c-0.4,0-0.8-0.3-0.8-0.8
	v-3.1h-0.9v0.7h-0.1c-0.1-0.4-0.5-0.8-1.3-0.8c-1.1,0-1.7,0.8-1.7,2v0.6c0,1.2,0.6,2.1,1.7,2.1c0.7,0,1.3-0.5,1.4-0.9h0.1
	c0.1,0.4,0.6,0.9,1.5,0.9c1.3,0,2.2-1.1,2.2-2.9v-0.3C832,225,830.3,223,827.3,223z M828.2,228.3c0,0.9-0.4,1.3-1,1.3s-1-0.4-1-1.4
	v-0.4c0-0.9,0.4-1.3,1-1.3c0.6,0,1,0.4,1,1.3V228.3z M107.4,283.1l7.6-4.5v1.7l-5.9,3.3v0.1l5.9,3.2v1.7l-7.6-4.2V283.1z
	 M107.4,257.9l7.6,4.5v1.3l-7.6,4.2v-1.7l5.9-3.2V263l-5.9-3.3V257.9z M83.1,348.5h1c0,0.9-0.8,1.8-2.4,1.8c-1.6,0-2.6-1-2.6-2.7v-1
	c0-1.6,1-2.7,2.6-2.7c1.5,0,2.3,1,2.4,1.9h-1c-0.1-0.4-0.4-1-1.3-1c-1,0-1.5,0.7-1.5,1.8v1c0,1.1,0.6,1.8,1.5,1.8
	C82.6,349.3,83,348.9,83.1,348.5z M87.5,343.9c-1.5,0-2.7,1.1-2.7,2.7v0.9c0,1.8,1.1,2.7,2.7,2.7c1.5,0,2.7-1,2.7-2.7v-0.9
	C90.1,344.9,89,343.9,87.5,343.9z M89,347.5c0,1.1-0.6,1.9-1.6,1.9c-1,0-1.6-0.8-1.6-1.9v-0.7c0-1.1,0.6-1.9,1.6-1.9
	s1.6,0.8,1.6,1.9V347.5z M96.2,346v4.2h-1.1v-3.9c0-1-0.5-1.5-1.3-1.5c-1.1,0-1.6,0.8-1.6,1.9v3.4h-1.1V344h1v1.1h0.1
	c0.2-0.5,0.6-1.2,1.9-1.2C95.4,343.9,96.2,344.6,96.2,346z M100,349.3c0.2,0,0.4,0,0.5,0v0.9c-0.1,0-0.5,0.1-0.8,0.1
	c-1.5,0-1.8-0.6-1.8-1.8v-3.5H97V344h0.9v-1.5h1v1.5h1.4v0.9H99v3.5C99,349.2,99.2,349.3,100,349.3z M104.3,343.9c0.1,0,0.3,0,0.4,0
	v1c-0.1,0-0.3,0-0.5,0c-1.1,0-1.6,0.7-1.6,1.5v3.8h-1.1V344h1.1v0.9h0.1C102.7,344.6,103.2,343.9,104.3,343.9z M107.7,343.9
	c-1.5,0-2.7,1.1-2.7,2.7v0.9c0,1.8,1.1,2.7,2.7,2.7c1.5,0,2.7-1,2.7-2.7v-0.9C110.4,344.9,109.2,343.9,107.7,343.9z M109.3,347.5
	c0,1.1-0.6,1.9-1.6,1.9c-1,0-1.6-0.8-1.6-1.9v-0.7c0-1.1,0.6-1.9,1.6-1.9s1.6,0.8,1.6,1.9V347.5z M111.5,341.8h1.1v8.4h-1.1V341.8z
	 M113.4,319.6c0.2,0.2,0.2,0.6,0,0.8c-0.1,0.1-0.3,0.2-0.4,0.2s-0.3-0.1-0.4-0.2l-4.5-4.5l-4.5,4.5c-0.2,0.2-0.6,0.2-0.8,0
	c-0.2-0.2-0.2-0.6,0-0.8l4.9-4.9c0.2-0.2,0.6-0.2,0.8,0L113.4,319.6z M19.7,341.7c0.3,0,0.6,0,0.7,0v0.9c-0.1,0-0.4,0-0.6,0
	c-0.7,0-1,0.2-1,0.9v0.5h1.4v0.9h-1.4v5.3h-1.1v-5.3h-1V344h1v-0.6C17.8,342.2,18.3,341.7,19.7,341.7z M26.3,346v4.2h-1.1v-3.9
	c0-1-0.5-1.5-1.3-1.5c-1.1,0-1.6,0.8-1.6,1.9v3.4h-1.1V344h1v1.1h0.1c0.2-0.5,0.6-1.2,1.9-1.2C25.4,343.9,26.3,344.6,26.3,346z
	 M169.9,277.8h6.5v1.4h-8.5v-1.1l6.4-9.3v-0.1H168v-1.4h8.1v1.1L169.9,277.8L169.9,277.8z M146.5,343.9c-1.5,0-2.7,1.1-2.7,2.7v0.9
	c0,1.8,1.1,2.7,2.7,2.7c1.5,0,2.7-1,2.7-2.7v-0.9C149.2,344.9,148,343.9,146.5,343.9z M148.1,347.5c0,1.1-0.6,1.9-1.6,1.9
	c-1,0-1.6-0.8-1.6-1.9v-0.7c0-1.1,0.6-1.9,1.6-1.9s1.6,0.8,1.6,1.9V347.5z M153.1,343.9c-0.9,0-1.6,0.4-1.8,1.1h-0.1v-1h-1v8.2h1.1
	v-3h0.1c0.3,0.6,0.9,1,1.8,1c1.5,0,2.4-1,2.4-2.7v-1C155.5,344.9,154.6,343.9,153.1,343.9z M154.4,347.4c0,1.2-0.6,1.9-1.5,1.9
	c-0.9,0-1.6-0.7-1.6-1.7v-1.1c0-1.1,0.6-1.8,1.6-1.8c1,0,1.6,0.7,1.6,1.9V347.4z M159,349.3c0.2,0,0.4,0,0.5,0v0.9
	c-0.1,0-0.5,0.1-0.8,0.1c-1.5,0-1.8-0.6-1.8-1.8v-3.5H156V344h0.9v-1.5h1v1.5h1.4v0.9H158v3.5C158,349.2,158.2,349.3,159,349.3z
	 M160.5,344h1.1v6.2h-1.1V344z M161.8,342.1c0,0.4-0.3,0.7-0.8,0.7c-0.4,0-0.7-0.3-0.7-0.7c0-0.4,0.3-0.7,0.7-0.7
	C161.5,341.4,161.8,341.7,161.8,342.1z M165.5,343.9c-1.5,0-2.7,1.1-2.7,2.7v0.9c0,1.8,1.1,2.7,2.7,2.7c1.5,0,2.7-1,2.7-2.7v-0.9
	C168.1,344.9,167,343.9,165.5,343.9z M167,347.5c0,1.1-0.6,1.9-1.6,1.9c-1,0-1.6-0.8-1.6-1.9v-0.7c0-1.1,0.6-1.9,1.6-1.9
	s1.6,0.8,1.6,1.9V347.5z M174.2,346v4.2h-1.1v-3.9c0-1-0.5-1.5-1.3-1.5c-1.1,0-1.6,0.8-1.6,1.9v3.4h-1.1V344h1v1.1h0.1
	c0.2-0.5,0.6-1.2,1.9-1.2C173.4,343.9,174.2,344.6,174.2,346z M167.8,320h6.6v1.3h-7.2c-0.2,0-0.3-0.1-0.4-0.2l-2.6-4.4
	c-0.1-0.2-0.3-0.2-0.4-0.2h-3v-1.3h3.6c0.2,0,0.3,0.1,0.4,0.2l2.6,4.4C167.5,319.9,167.6,320,167.8,320z M168,315.1h6.4v1.3H168
	V315.1z M236,279.2l-2.9-4.7h-0.1l-3,4.7h-1.8l3.9-6l-3.8-6h1.9l3,4.7h0.1l2.9-4.7h1.9l-4,6.1l3.9,5.9H236z M298.6,270.7
	L298.6,270.7l-1.6,0.1c-0.2-1.4-1.3-2.3-2.8-2.3c-2,0-3.1,1.5-3.1,4v1.7c0,2.5,1.1,3.9,3.1,3.9c1.5,0,2.6-0.9,2.8-2.1h1.6v0.1
	c-0.2,2.1-2,3.6-4.4,3.6c-3,0-4.8-2-4.8-5.4v-1.7c0-3.4,1.8-5.4,4.8-5.4C296.6,267,298.4,268.5,298.6,270.7z M358.2,267.2h1.8
	l-4.3,12H354l-4.3-12h1.8l3.3,10.1h0.1L358.2,267.2z M417.8,272.9L417.8,272.9c1.2-0.4,1.9-1.3,1.9-2.7c0-1.8-1.3-3-3.3-3h-4.6v12
	h4.4c2.6,0,4.2-1.3,4.2-3.4C420.4,274.2,419.4,273.1,417.8,272.9z M413.5,268.6h2.7c1.3,0,2,0.7,2,1.8c0,1.3-0.9,1.9-2.9,1.9h-1.8
	V268.6z M415.5,277.8h-2.1v-4.1h2.8c1.6,0,2.5,0.8,2.5,2.1C418.8,277.2,417.8,277.8,415.5,277.8z M479.7,267.2h1.6v12h-1.5l-6-9.2
	h-0.1v9.2h-1.6v-12h1.5l5.9,9.2h0.1V267.2z M541.6,267.2h1.6v12h-1.5v-8.7h-0.1l-3.3,7.6H537l-3.3-7.6h-0.1v8.7h-1.5v-12h1.6
	l3.9,9.1h0.1L541.6,267.2z M597.6,269.8h-1.4l1.3-5.3h2L597.6,269.8z M597.3,259.1c0-0.7,0.6-1.3,1.3-1.3c0.7,0,1.3,0.5,1.3,1.3
	c0,0.7-0.6,1.2-1.3,1.2C597.9,260.4,597.3,259.8,597.3,259.1z M597.9,287.9h1.8l-1.7,5h-1.2L597.9,287.9z M658.2,288.8
	c0-0.8,0.6-1.3,1.3-1.3c0.7,0,1.3,0.5,1.3,1.3c0,0.7-0.6,1.2-1.3,1.2C658.8,290,658.2,289.5,658.2,288.8z M658.2,265.6
	c0-0.8,0.6-1.3,1.3-1.3c0.7,0,1.3,0.5,1.3,1.3c0,0.7-0.6,1.2-1.3,1.2C658.8,266.9,658.2,266.3,658.2,265.6z M658.2,259.7
	c0-0.8,0.6-1.3,1.3-1.3c0.7,0,1.3,0.5,1.3,1.3c0,0.7-0.6,1.2-1.3,1.2C658.8,260.9,658.2,260.4,658.2,259.7z M660.7,343.9
	c-1.5,0-2.7,1.1-2.7,2.7v0.9c0,1.8,1.1,2.7,2.7,2.7c1.5,0,2.7-1,2.7-2.7v-0.9C663.4,344.9,662.2,343.9,660.7,343.9z M662.3,347.5
	c0,1.1-0.6,1.9-1.6,1.9c-1,0-1.6-0.8-1.6-1.9v-0.7c0-1.1,0.6-1.9,1.6-1.9s1.6,0.8,1.6,1.9V347.5z M667.4,343.9
	c-0.9,0-1.6,0.4-1.8,1.1h-0.1v-1h-1v8.2h1.1v-3h0.1c0.3,0.6,0.9,1,1.8,1c1.5,0,2.4-1,2.4-2.7v-1
	C669.7,344.9,668.8,343.9,667.4,343.9z M668.7,347.4c0,1.2-0.6,1.9-1.5,1.9c-0.9,0-1.6-0.7-1.6-1.7v-1.1c0-1.1,0.6-1.8,1.6-1.8
	c1,0,1.6,0.7,1.6,1.9V347.4z M673.2,349.3c0.2,0,0.4,0,0.5,0v0.9c-0.1,0-0.5,0.1-0.8,0.1c-1.5,0-1.8-0.6-1.8-1.8v-3.5h-0.9V344h0.9
	v-1.5h1v1.5h1.4v0.9h-1.4v3.5C672.2,349.2,672.4,349.3,673.2,349.3z M674.7,344h1.1v6.2h-1.1V344z M676,342.1c0,0.4-0.3,0.7-0.8,0.7
	c-0.4,0-0.7-0.3-0.7-0.7c0-0.4,0.3-0.7,0.7-0.7C675.7,341.4,676,341.7,676,342.1z M679.7,343.9c-1.5,0-2.7,1.1-2.7,2.7v0.9
	c0,1.8,1.1,2.7,2.7,2.7c1.5,0,2.7-1,2.7-2.7v-0.9C682.3,344.9,681.2,343.9,679.7,343.9z M681.3,347.5c0,1.1-0.6,1.9-1.6,1.9
	c-1,0-1.6-0.8-1.6-1.9v-0.7c0-1.1,0.6-1.9,1.6-1.9s1.6,0.8,1.6,1.9V347.5z M688.5,346v4.2h-1.1v-3.9c0-1-0.5-1.5-1.3-1.5
	c-1.1,0-1.6,0.8-1.6,1.9v3.4h-1.1V344h1v1.1h0.1c0.2-0.5,0.6-1.2,1.9-1.2C687.6,343.9,688.5,344.6,688.5,346z M671.6,321.3h-7.2
	c-0.2,0-0.3-0.1-0.4-0.2l-2.6-4.4c-0.1-0.2-0.3-0.2-0.4-0.2h-3v-1.3h3.6c0.2,0,0.3,0.1,0.4,0.2l2.6,4.4c0.1,0.2,0.3,0.2,0.4,0.2h6.6
	V321.3z M671.6,316.4h-6.4v-1.3h6.4V316.4z M732.4,332.8l5.7-2.5v5.1L732.4,332.8z M856.2,330.3l5.7,2.5l-5.7,2.5V330.3z M797.1,317
	l2.5,5.7h-5.1L797.1,317z M794.6,344.2h5.1l-2.5,5.2L794.6,344.2z M717.6,283.6h5.5v1.4h-5.5V283.6z M715.1,262.6h10.7v1.4h-10.7
	V262.6z M869.2,279.3c-0.1-0.1-0.2-0.2-0.4-0.2h0c-0.1,0-0.3,0.1-0.4,0.2l-6.7,7.3c-0.1,0.1-0.2,0.4-0.1,0.5s0.3,0.3,0.5,0.3l3.1,0
	v2.7c0,0.3,0.2,0.5,0.5,0.5h6.2c0.1,0,0.3-0.1,0.4-0.1s0.1-0.2,0.1-0.4l0-2.7h3.2c0.2,0,0.4-0.1,0.5-0.3s0-0.4-0.1-0.5L869.2,279.3z
	 M871.8,286.5c-0.1,0-0.3,0.1-0.4,0.1s-0.1,0.2-0.1,0.4l0,2.7h-5.2V287c0-0.3-0.2-0.5-0.5-0.5l-2.5,0l5.6-6.1l5.6,6.1H871.8z
	 M868.5,107.5l2-2l-2-2l0.6-0.6l1.9,2l2-2l0.6,0.6l-2,2l2,2l-0.6,0.6l-2-2l-1.9,2L868.5,107.5z M866.5,110.7
	c0.1,0.1,0.2,0.2,0.3,0.2h9.3c0.2,0,0.3-0.2,0.3-0.3v-10.1c0-0.2-0.2-0.3-0.3-0.3h-9.3c-0.1,0-0.2,0.1-0.3,0.2l-3.4,5.1
	c-0.1,0.1-0.1,0.3,0,0.4L866.5,110.7z M867.1,100.9h8.6v9.2h-8.6l-3.1-4.6L867.1,100.9z M131.7,154.6v-1.7c0-3.3-1.8-5.4-4.8-5.4
	s-4.8,2.1-4.8,5.4v1.7c0,3.3,1.8,5.4,4.8,5.4c0.8,0,1.4-0.1,2.1-0.4l1.1,1.5h1.8l-1.6-2.3C131.2,157.8,131.7,156.4,131.7,154.6z
	 M130.1,154.6c0,1.2-0.3,2.2-0.9,2.9l-1-1.3h-1.8l1.6,2.2c-0.4,0.1-0.8,0.2-1.2,0.2c-2,0-3.2-1.5-3.2-4v-1.7c0-2.4,1.2-3.9,3.2-3.9
	s3.2,1.5,3.2,3.9V154.6z M193.2,147.7h1.9l-3.3,12h-1.5l-2.5-9.3h-0.1l-2.5,9.3h-1.4l-3.3-12h1.9l2.2,9.5h0.1l2.3-9.5h1.6l2.4,9.5
	h0.1L193.2,147.7z M245.3,147.7h7.3v1.5h-5.6v3.7h5.3v1.4h-5.3v4h5.6v1.5h-7.3V147.7z M314,151.3c0-2.2-1.5-3.6-3.9-3.6h-4.4v12h1.6
	V155h2.8l2.2,4.7h1.8l-2.4-5C313.1,154.2,314,153,314,151.3z M309.8,153.6h-2.5v-4.4h2.6c1.5,0,2.4,0.8,2.4,2.3
	C312.3,152.8,311.4,153.6,309.8,153.6z M366.1,147.7h8.9v1.5h-3.6v10.5h-1.6v-10.5h-3.6V147.7z M434.5,147.7h1.8l-4,6.9v5.1h-1.6
	v-5.1l-4-6.9h1.8l2.9,5.3h0.1L434.5,147.7z M495.4,147.7h1.6v7.9c0,2.6-1.8,4.4-4.6,4.4c-2.8,0-4.6-1.8-4.6-4.4v-7.9h1.6v7.8
	c0,1.9,1.2,3,3,3c1.8,0,3-1.1,3-3V147.7z M552.5,147.7h1.6v12h-1.6V147.7z M619.1,154.6v-1.7c0-3.4-1.9-5.4-4.8-5.4s-4.8,2-4.8,5.4
	v1.7c0,3.4,1.9,5.4,4.8,5.4S619.1,158,619.1,154.6z M611,154.6v-1.7c0-2.6,1.4-3.9,3.2-3.9c1.8,0,3.2,1.3,3.2,3.9v1.7
	c0,2.6-1.4,3.9-3.2,3.9C612.4,158.5,611,157.2,611,154.6z M671.5,159.7h1.6v-4.5h2.8c2.3,0,3.8-1.5,3.8-3.8c0-2.2-1.5-3.8-3.8-3.8
	h-4.4V159.7z M673.1,149.1h2.6c1.5,0,2.3,0.9,2.3,2.3c0,1.5-0.9,2.3-2.3,2.3h-2.6V149.1z M735.2,147.7l-4.2,12h1.7l1.2-3.5h4.4
	l1.2,3.5h1.7l-4.2-12H735.2z M734.3,154.9l1.8-5.3h0.1l1.8,5.3H734.3z M736.1,146.7c0.9,0,1.7-0.7,1.7-1.7c0-0.9-0.8-1.7-1.7-1.7
	s-1.7,0.7-1.7,1.7C734.4,146,735.1,146.7,736.1,146.7z M736.1,144.1c0.5,0,0.9,0.4,0.9,0.9s-0.4,0.9-0.9,0.9s-0.9-0.4-0.9-0.9
	S735.6,144.1,736.1,144.1z M794.4,159c0-0.5,0.4-0.9,1-0.9s1,0.4,1,0.9c0,0.5-0.4,0.9-1,0.9S794.4,159.5,794.4,159z M798.6,159.9
	c-0.5,0-1-0.4-1-0.9c0-0.5,0.4-0.9,1-0.9s1,0.4,1,0.9C799.6,159.5,799.1,159.9,798.6,159.9z M801.3,143.3c0.2,0.2,0.1,0.5-0.1,0.7
	c-0.1,0.1-0.2,0.1-0.3,0.1c-0.1,0-0.3-0.1-0.4-0.2l-3.5-4.4l-3.5,4.4c-0.2,0.2-0.5,0.3-0.7,0.1c-0.2-0.2-0.3-0.5-0.1-0.7l3.9-4.9
	c0.2-0.2,0.6-0.2,0.8,0L801.3,143.3z M35.7,103.1l-0.6-0.2v-3.6c1.1,0.1,1.8,0.8,1.8,1.7h1.3c0-1.7-1.4-2.7-3.1-2.9v-1h-1v1
	c-1.7,0.2-3,1.1-3,2.9c0,1.7,1.2,2.4,2.5,2.8L34,104v3.8c-1.3-0.2-1.9-0.9-2-1.8h-1.3c0,1.5,1.1,2.8,3.3,3v1h1v-1
	c1.9-0.1,3.3-1.1,3.3-3C38.3,104.3,37.3,103.5,35.7,103.1z M34,102.6c-0.2,0-0.3-0.1-0.4-0.1c-0.9-0.3-1.3-0.9-1.3-1.5
	c0-1,0.7-1.5,1.7-1.7V102.6z M35.1,107.8v-3.6c0.1,0,0.2,0,0.2,0.1c1.3,0.4,1.7,0.9,1.7,1.7C37,107.1,36.2,107.7,35.1,107.8z
	 M31.6,80c0,1.1,0.7,1.7,1.3,2V82c-0.6,0.3-1.3,0.9-1.3,1.9c0,1.5,1.2,2,2.6,2.4c1.1,0.3,2,0.5,2,1.4c0,0.7-0.5,1.3-1.7,1.3
	c-1,0-1.6-0.5-1.7-1.2h-1.3c0,1.5,1.4,2.4,3,2.4c1.8,0,3.1-1,3.1-2.7c0-1-0.6-1.5-1.1-1.8v-0.1c0.6-0.4,1.2-1,1.2-2
	c0-1.7-1.4-2.1-2.7-2.4c-1-0.2-2-0.5-2-1.4c0-0.8,0.6-1.3,1.5-1.3c1.1,0,1.6,0.7,1.6,1.3h1.3c0-1.4-1.1-2.4-2.9-2.4
	C33,77.4,31.6,78.3,31.6,80z M33.9,82.4c0.2,0,0.4,0.1,0.6,0.1c1,0.2,1.7,0.6,1.7,1.4c0,0.6-0.4,1.2-0.9,1.4
	c-0.3-0.1-0.5-0.1-0.7-0.2c-1-0.2-1.7-0.6-1.7-1.4C32.9,83.1,33.5,82.5,33.9,82.4z M95.5,98.7l-2.8,2v-1.7l2.9-2.1h1.6v12h-1.6
	L95.5,98.7L95.5,98.7z M94.9,84l-0.2-6h1.4L96,84H94.9z M94.4,86.5c0-0.6,0.4-1,1-1c0.6,0,1,0.4,1,1c0,0.5-0.4,1-1,1
	C94.9,87.4,94.4,87,94.4,86.5z M154.2,100.3h-1.6v-0.1c0-1.8,1.3-3.5,3.8-3.5c2.3,0,3.8,1.4,3.8,3.3c0,1.5-0.9,2.5-2,3.8l-3.2,3.6
	v0.1h5.5v1.4h-7.8v-1l4.5-5.1c0.7-0.7,1.4-1.6,1.4-2.7c0-1.2-0.9-2-2.2-2C155,98.1,154.2,99.1,154.2,100.3
	C154.2,100.3,154.2,100.3,154.2,100.3z M155.3,82.7h-1.4l0.8-3.8h1.1L155.3,82.7z M158.3,82.7h-1.4l0.8-3.8h1.1L158.3,82.7z
	 M217,109.2c-2.4,0-3.9-1.4-4-3.1h1.5c0.1,0.9,1.1,1.7,2.5,1.7c1.6,0,2.6-0.9,2.6-2.2c0-1.3-1-2.1-2.5-2.1h-1.3v-1.4h1.2
	c1.3,0,2.2-0.9,2.2-2c0-1.2-0.9-2-2.2-2c-1.3,0-2.1,0.8-2.2,1.7h-1.5c0.1-1.5,1.3-3,3.7-3c2.3,0,3.8,1.3,3.8,3.1
	c0.1,1.7-1.3,2.7-2.2,2.9v0.1c1,0.1,2.6,0.9,2.6,2.9C221.3,107.7,219.5,109.2,217,109.2z M214.2,87.3h1l0.5-2.6h2.1l-0.5,2.6h1
	l0.5-2.6h1.5l0.2-1H219l0.5-2.2h1.6l0.2-1h-1.5l0.5-2.6h-1l-0.5,2.6h-2.1l0.5-2.6h-1l-0.5,2.6h-1.5l-0.2,1h1.4l-0.5,2.2h-1.5l-0.2,1
	h1.5L214.2,87.3z M216.4,81.4h2.2l-0.5,2.3h-2.2L216.4,81.4z M281.2,97h-2.4c-1.7,2.7-3.5,5.4-5,8.1v1.4h5.8v2.5h1.5v-2.5h1.6v-1.4
	h-1.6V97z M279.6,105.1h-4.2V105c1.3-2.2,2.7-4.5,4.1-6.6h0.1V105.1z M275.8,84h-0.9v-0.9h0.8c0,0,0-0.1,0-0.1v-0.7
	c0-0.1,0-0.2,0-0.3h-0.8v-0.9h0.9c0.4-2.1,1.9-3.3,4.2-3.3c0.5,0,0.9,0,1.3,0.2V79c-0.4-0.1-0.8-0.1-1.3-0.1c-1.5,0-2.5,0.8-2.9,2.2
	h3v0.9H277c0,0.1,0,0.2,0,0.3V83c0,0,0,0.1,0,0.1h3.2V84H277c0.3,1.5,1.4,2.4,2.9,2.4c0.5,0,0.9,0,1.3-0.1v1.1
	c-0.4,0.1-0.8,0.1-1.3,0.1C277.6,87.5,276.1,86.2,275.8,84z M343.3,105c0,2.5-1.7,4.2-4.3,4.2c-2.2,0-3.8-1.3-3.9-3h1.5
	c0.2,1.2,1.4,1.7,2.5,1.7c1.2,0,2.5-0.9,2.5-2.7c0-1.6-1.2-2.5-2.6-2.5c-1.2,0-2,0.7-2.4,1.3h-1.4L336,97h6.8v1.4h-5.4l-0.3,3.8h0.1
	c0.2-0.4,1.1-1,2.4-1C341.6,101.2,343.3,102.6,343.3,105z M336.5,86.3h-1.3l3.5-4.9l3.1-4.5h1.3l-3.6,4.9L336.5,86.3z M341.8,81.9
	c-1.2,0-2,0.9-2,2.3c0,1.3,0.8,2.3,2,2.3c1.2,0,2-0.9,2-2.3C343.9,82.8,343,81.9,341.8,81.9z M341.8,85.5c-0.5,0-0.9-0.5-0.9-1.4
	s0.4-1.4,0.9-1.4c0.6,0,0.9,0.5,0.9,1.4C342.7,85,342.4,85.5,341.8,85.5z M338.4,79.1c0-1.3-0.8-2.3-2-2.3s-2,0.9-2,2.3
	s0.8,2.3,2,2.3S338.4,80.4,338.4,79.1z M335.5,79.1c0-0.8,0.4-1.4,0.9-1.4s0.9,0.5,0.9,1.4c0,0.8-0.4,1.4-0.9,1.4
	C335.8,80.4,335.5,79.9,335.5,79.1z M400.5,101.2c-1.7,0-2.7,1-3,1.8h-0.1c0-3.3,1.2-4.9,2.9-4.9c1.4,0,2,0.8,2.1,1.3h1.6
	c-0.1-1.3-1.4-2.7-3.7-2.7c-2.7,0-4.5,2.1-4.5,6.7c0,1.8,0.3,3.1,0.9,4c0.8,1.4,2.2,1.8,3.5,1.8c2.4,0,4.1-1.5,4.1-4.1
	C404.3,102.6,402.4,101.2,400.5,101.2z M400.2,107.8c-1.4,0-2.5-1-2.5-2.7c0-1.5,1.1-2.5,2.6-2.5c1.3,0,2.5,0.8,2.5,2.5
	C402.7,107,401.6,107.8,400.2,107.8z M403.7,81.3V81h-1.1v0.3c0,1.1-0.1,1.9-0.4,2.5l-2.2-2.4c1.1-0.6,2-1.2,2-2.4
	c0-1.3-1-2.1-2.4-2.1c-1.4,0-2.4,0.9-2.4,2.1c0,0.9,0.5,1.5,1.1,2.1c-0.1,0.1-0.2,0.1-0.4,0.2c-1,0.6-1.8,1.3-1.8,2.6
	c0,1.6,1.4,2.6,3.1,2.6c0.9,0,2-0.3,2.9-1.1l0.8,0.9h1.5l-1.6-1.7C403.5,83.8,403.7,82.7,403.7,81.3z M399.5,77.8
	c0.7,0,1.2,0.5,1.2,1.2c0,0.8-0.6,1.2-1.5,1.6c-0.7-0.7-1-1.1-1-1.6C398.3,78.3,398.8,77.8,399.5,77.8z M399.4,85.4
	c-1,0-2-0.5-2-1.7c0-0.8,0.5-1.3,1.3-1.8c0.1-0.1,0.2-0.1,0.3-0.2l2.5,2.8C400.9,85.2,400,85.4,399.4,85.4z M457.1,97h7.7v1.5
	l-4.9,10.5h-1.7l5-10.5v-0.1h-6V97z M459.8,88.4h-1.1l3.4-11.9h1.1L459.8,88.4z M523.7,102.7L523.7,102.7c0.8-0.3,2-1.2,2-2.8
	c0-1.9-1.6-3.2-3.8-3.2c-2.2,0-3.8,1.3-3.8,3.2c0,1.6,1.1,2.4,2,2.7v0.1c-1,0.2-2.4,1.1-2.4,3c0,2.1,1.8,3.5,4.2,3.5
	c2.5,0,4.3-1.4,4.3-3.5C526.1,103.8,524.7,102.9,523.7,102.7z M519.6,100c0-1.2,1-2,2.2-2c1.3,0,2.2,0.8,2.2,2c0,1.2-0.9,2-2.2,2
	C520.6,102,519.6,101.2,519.6,100z M521.9,107.9c-1.5,0-2.7-0.9-2.7-2.2c0-1.3,1.2-2.3,2.7-2.3s2.7,0.9,2.7,2.3
	C524.5,106.9,523.4,107.9,521.9,107.9z M522.8,88.4c-1.2-1.4-1.9-3.6-1.9-6.1c0-2.5,0.7-4.4,1.9-5.9h1.1c-1,1.5-1.7,3.5-1.7,5.8
	c0,2.4,0.6,4.4,1.7,6.1H522.8z M587,102.7c0-4.8-2.2-6-4.3-6c-2.4,0-4.2,1.5-4.2,4.1s1.7,4,3.8,4c1.6,0,2.6-0.9,3-1.9h0.1
	c0.1,2.7-0.7,4.9-2.9,4.9c-1.2,0-1.8-0.6-2-1.2h-1.6c0.2,1.3,1.4,2.5,3.6,2.5C585.5,109.2,587,107,587,102.7z M582.6,103.4
	c-1.3,0-2.5-0.8-2.5-2.6c0-1.7,1.1-2.7,2.5-2.7c1.4,0,2.5,1,2.5,2.7C585.1,102.6,583.9,103.4,582.6,103.4z M580.7,88.4
	c1.2-1.7,1.7-3.7,1.7-6.1c0-2.4-0.7-4.4-1.7-5.8h1.1c1.2,1.4,1.9,3.4,1.9,5.9c0,2.5-0.7,4.7-1.9,6.1H580.7z M643.7,96.7
	c-2.7,0-4.3,2.4-4.3,6v0.4c0,3.6,1.6,6,4.3,6c2.7,0,4.3-2.4,4.3-6v-0.4C648,99.1,646.4,96.7,643.7,96.7z M646.4,103.2
	c0,2.9-1,4.6-2.7,4.6c-1.6,0-2.7-1.7-2.7-4.6v-0.4c0-2.9,1-4.6,2.7-4.6c1.7,0,2.7,1.8,2.7,4.6V103.2z M646.6,84.3h-5.8v-1h5.8V84.3z
	 M646.6,81.8h-5.8v-1h5.8V81.8z M705.3,102.5h3.6v1.3h-3.6v3.9h-1.3v-3.9h-3.6v-1.3h3.6v-3.7h1.3V102.5z M703,79.4h-1.2
	c0-2,1.5-2.7,2.9-2.7c1.4,0,2.8,0.8,2.8,2.4c0,1.1-0.7,1.7-1.3,2.2c-0.8,0.6-1.1,0.9-1.1,1.6v0.4h-1.2l0-0.6c0-1,0.6-1.6,1.3-2.1
	c0.6-0.5,1-0.8,1-1.5c0-1-0.8-1.4-1.6-1.4C703.5,77.8,703,78.5,703,79.4z M704.5,84.5c0.6,0,1,0.4,1,1c0,0.5-0.4,1-1,1
	c-0.5,0-1-0.4-1-1C703.5,84.9,703.9,84.5,704.5,84.5z M765.8,81.2l-2.4-3.1h1.6l2.1,3.1H765.8z M766,95.9h1.6l-2.4,3.1h-1.2
	L766,95.9z M125,44.5v1.8h2.2v0.6H125v2.3h-0.7v-5.3h3.2v0.6H125z M129.2,49.2v-4.6h0l-1.2,0.9v-0.7l1.3-0.9h0.7v5.3H129.2z
	 M132,25.2c0.1,0.1,0.1,0.2,0.1,0.4s0,0.3-0.1,0.4c-0.1,0.1-0.2,0.1-0.3,0.1h-0.2c-0.1,0-0.3,0-0.4-0.1c-0.1-0.1-0.1-0.2-0.1-0.4
	s0-0.3,0.1-0.4c0.1-0.1,0.2-0.1,0.4-0.1h0.2C131.8,25,131.9,25.1,132,25.2z M129.8,29c-0.1-0.1-0.1-0.2-0.1-0.4
	c0-0.1,0.1-0.3,0.2-0.4c0.1-0.1,0.2-0.2,0.4-0.2c0.1,0,0.3,0,0.4,0.1l0.1,0.1c0.1,0.1,0.1,0.2,0.1,0.3c0,0.1-0.1,0.2-0.2,0.3
	s-0.2,0.2-0.3,0.2c-0.1,0-0.2,0-0.3-0.1L129.8,29z M126.7,21.5c-0.1-0.1-0.1-0.2-0.1-0.4V21c0-0.1,0-0.3,0.1-0.3
	c0.1-0.1,0.2-0.1,0.4-0.1s0.3,0,0.4,0.1c0.1,0.1,0.1,0.2,0.1,0.3v0.2c0,0.1,0,0.3-0.1,0.4c-0.1,0.1-0.2,0.1-0.4,0.1
	S126.8,21.6,126.7,21.5z M123.4,22.7c-0.1-0.1-0.1-0.2-0.1-0.3c0-0.1,0.1-0.2,0.2-0.3c0.1-0.1,0.2-0.2,0.3-0.2c0.1,0,0.2,0,0.3,0.1
	l0.1,0.1c0.1,0.1,0.1,0.2,0.1,0.4c0,0.1-0.1,0.3-0.2,0.4s-0.2,0.2-0.4,0.2c-0.1,0-0.3,0-0.4-0.1L123.4,22.7z M123.4,29.1
	c-0.1-0.1-0.2-0.2-0.2-0.3c0-0.1,0-0.2,0.1-0.3l0.1-0.1c0.1-0.1,0.2-0.1,0.4-0.1c0.1,0,0.3,0.1,0.4,0.2c0.1,0.1,0.2,0.2,0.2,0.4
	c0,0.1,0,0.3-0.1,0.4l-0.1,0.1c-0.1,0.1-0.2,0.1-0.3,0.1C123.7,29.3,123.5,29.2,123.4,29.1z M122.1,25.9c-0.1-0.1-0.1-0.2-0.1-0.4
	s0-0.3,0.1-0.4c0.1-0.1,0.2-0.1,0.3-0.1h0.2c0.1,0,0.3,0,0.4,0.1c0.1,0.1,0.1,0.2,0.1,0.4s0,0.3-0.1,0.4c-0.1,0.1-0.2,0.1-0.4,0.1
	h-0.2C122.3,26.1,122.2,26,122.1,25.9z M129.8,22.8c-0.1-0.1-0.2-0.2-0.2-0.4c0-0.1,0-0.3,0.1-0.4l0.1-0.1c0.1-0.1,0.2-0.1,0.3-0.1
	c0.1,0,0.2,0.1,0.3,0.2s0.2,0.2,0.2,0.3c0,0.1,0,0.2-0.1,0.3l-0.1,0.1c-0.1,0.1-0.2,0.1-0.4,0.1C130,22.9,129.9,22.9,129.8,22.8z
	 M127.5,30.1c0,0.1,0,0.3-0.1,0.3c-0.1,0.1-0.2,0.1-0.4,0.1s-0.3,0-0.4-0.1c-0.1-0.1-0.1-0.2-0.1-0.3v-0.2c0-0.1,0-0.3,0.1-0.4
	c0.1-0.1,0.2-0.1,0.4-0.1s0.3,0,0.4,0.1c0.1,0.1,0.1,0.2,0.1,0.4V30.1z M125.3,27.3c0.2,0.2,0.5,0.4,0.8,0.5
	c0.3,0.1,0.6,0.2,0.9,0.2c0.3,0,0.6-0.1,0.9-0.2c0.3-0.1,0.6-0.3,0.8-0.5c0.2-0.2,0.4-0.5,0.5-0.8c0.1-0.3,0.2-0.6,0.2-1
	c0-0.3-0.1-0.6-0.2-0.9c-0.1-0.3-0.3-0.5-0.5-0.8c-0.2-0.2-0.5-0.4-0.8-0.5c-0.3-0.1-0.6-0.2-0.9-0.2c-0.3,0-0.7,0.1-0.9,0.2
	c-0.3,0.1-0.5,0.3-0.8,0.5c-0.2,0.2-0.4,0.5-0.5,0.8c-0.1,0.3-0.2,0.6-0.2,0.9c0,0.3,0.1,0.7,0.2,1
	C124.9,26.8,125.1,27.1,125.3,27.3z M125.5,24.9c0.1-0.2,0.2-0.4,0.4-0.5c0.1-0.1,0.3-0.3,0.5-0.4c0.2-0.1,0.4-0.1,0.6-0.1
	c0.2,0,0.4,0,0.6,0.1c0.2,0.1,0.4,0.2,0.5,0.3c0.1,0.2,0.3,0.3,0.4,0.5c0.1,0.2,0.1,0.4,0.1,0.6c0,0.2,0,0.4-0.1,0.6
	c-0.1,0.2-0.2,0.4-0.3,0.5c-0.1,0.1-0.3,0.3-0.5,0.3c-0.2,0.1-0.4,0.1-0.6,0.1c-0.2,0-0.4,0-0.6-0.1c-0.2-0.1-0.4-0.2-0.5-0.4
	c-0.1-0.1-0.3-0.3-0.3-0.5c-0.1-0.2-0.1-0.4-0.1-0.6C125.4,25.3,125.4,25.1,125.5,24.9z M19.6,49.6c1.6,0,2.3-1,2.4-1.6h-1.1
	c-0.1,0.4-0.6,0.7-1.3,0.7c-1,0-1.6-0.7-1.6-1.7v-0.3h4.1V46c0-1.7-1.1-2.7-2.6-2.7c-1.5,0-2.6,1-2.6,2.7v0.9
	C16.9,48.6,17.9,49.6,19.6,49.6z M18,45.8c0-1,0.6-1.7,1.5-1.7s1.5,0.7,1.5,1.7v0.1L18,45.8L18,45.8z M26.4,47.8
	c0-0.7-0.7-0.8-1.5-1c-1.1-0.2-2.1-0.5-2.1-1.7c0-1.3,1.1-1.9,2.3-1.9c1.3,0,2.2,0.7,2.2,1.7h-1c0-0.4-0.4-0.9-1.3-0.9
	c-0.7,0-1.2,0.3-1.2,0.9c0,0.7,0.8,0.8,1.5,1c1.2,0.2,2.1,0.5,2.1,1.7c0,1.2-1,1.9-2.5,1.9c-1.4,0-2.3-0.6-2.3-1.7h1
	c0.1,0.5,0.5,0.9,1.3,0.9C26,48.8,26.4,48.3,26.4,47.8z M28.2,46.9v-1c0-1.6,1-2.7,2.6-2.7c1.5,0,2.3,1,2.4,1.9h-1
	c-0.1-0.4-0.4-1-1.3-1c-1,0-1.5,0.7-1.5,1.8v1c0,1.1,0.6,1.8,1.5,1.8c0.9,0,1.2-0.4,1.4-0.9h1c0,0.9-0.8,1.8-2.4,1.8
	C29.2,49.6,28.2,48.6,28.2,46.9z M32.1,161.6H33v8.8h-0.9V161.6z M29,166.4H16.3v-0.9H29l-3.2-3.2l0.7-0.7l4,4
	c0.2,0.2,0.2,0.5,0,0.7l-4,4l-0.6-0.7L29,166.4z M24.4,279.3c-0.1-0.1-0.2-0.2-0.4-0.2c0,0,0,0,0,0c-0.1,0-0.3,0.1-0.4,0.2l-6.7,7.3
	c-0.1,0.1-0.2,0.4-0.1,0.5c0.1,0.2,0.3,0.3,0.5,0.3l3.1,0v2.7c0,0.3,0.2,0.5,0.5,0.5h6.2c0.1,0,0.3-0.1,0.4-0.1s0.1-0.2,0.1-0.4
	l0-2.7h3.2c0.2,0,0.4-0.1,0.5-0.3c0.1-0.2,0-0.4-0.1-0.5L24.4,279.3z M27.1,286.5c-0.1,0-0.3,0.1-0.4,0.1s-0.1,0.2-0.1,0.4l0,2.7
	h-5.2V287c0-0.3-0.2-0.5-0.5-0.5l-2.5,0l5.6-6.1l5.6,6.1H27.1z M206.3,348.5h1c0,0.9-0.8,1.8-2.4,1.8c-1.6,0-2.6-1-2.6-2.7v-1
	c0-1.6,1-2.7,2.6-2.7c1.5,0,2.3,1,2.4,1.9h-1c-0.1-0.4-0.4-1-1.3-1c-1,0-1.5,0.7-1.5,1.8v1c0,1.1,0.6,1.8,1.5,1.8
	C205.9,349.3,206.2,348.9,206.3,348.5z M210.7,343.9c-1.5,0-2.7,1.1-2.7,2.7v0.9c0,1.8,1.1,2.7,2.7,2.7c1.5,0,2.7-1,2.7-2.7v-0.9
	C213.4,344.9,212.2,343.9,210.7,343.9z M212.3,347.5c0,1.1-0.6,1.9-1.6,1.9c-1,0-1.6-0.8-1.6-1.9v-0.7c0-1.1,0.6-1.9,1.6-1.9
	s1.6,0.8,1.6,1.9V347.5z M222.9,345.8v4.3h-1.1v-4c0-0.8-0.4-1.3-1.3-1.3c-0.8,0-1.4,0.6-1.4,1.4v3.9h-1v-4c0-0.8-0.5-1.3-1.3-1.3
	c-0.8,0-1.3,0.6-1.3,1.4v3.9h-1.1V344h1v1h0.1c0.1-0.4,0.5-1.1,1.7-1.1c0.9,0,1.5,0.5,1.7,1.2h0c0.3-0.6,0.8-1.2,1.9-1.2
	C222.1,343.9,222.9,344.6,222.9,345.8z M232.6,345.8v4.3h-1.1v-4c0-0.8-0.4-1.3-1.3-1.3c-0.8,0-1.4,0.6-1.4,1.4v3.9h-1v-4
	c0-0.8-0.5-1.3-1.3-1.3c-0.8,0-1.3,0.6-1.3,1.4v3.9h-1.1V344h1v1h0.1c0.1-0.4,0.5-1.1,1.7-1.1c0.9,0,1.5,0.5,1.7,1.2h0
	c0.3-0.6,0.8-1.2,1.9-1.2C231.9,343.9,232.6,344.6,232.6,345.8z M236.1,343.9c-1.4,0-2.2,0.6-2.3,1.6h1c0.1-0.4,0.5-0.7,1.2-0.7
	c0.8,0,1.3,0.4,1.3,1.1v0.6h-1.6c-1.4,0-2.2,0.7-2.2,1.8c0,1.1,0.8,1.9,2,1.9c0.9,0,1.5-0.4,1.8-0.9h0v0.8h1V346
	C238.5,344.5,237.4,343.9,236.1,343.9z M237.4,348.1c0,0.7-0.6,1.3-1.5,1.3c-0.6,0-1.2-0.3-1.2-1c0-0.6,0.3-1,1.2-1h1.5V348.1z
	 M244.9,346v4.2h-1.1v-3.9c0-1-0.5-1.5-1.3-1.5c-1.1,0-1.6,0.8-1.6,1.9v3.4h-1.1V344h1v1.1h0.1c0.2-0.5,0.6-1.2,1.9-1.2
	C244,343.9,244.9,344.6,244.9,346z M250.1,344.9L250.1,344.9c-0.3-0.6-1-1-1.8-1c-1.4,0-2.4,1-2.4,2.6v1.2c0,1.6,0.9,2.6,2.4,2.6
	c0.9,0,1.7-0.4,1.9-1.1h0.1v1h1v-8.4h-1.1V344.9z M250.1,347.6c0,1.1-0.6,1.8-1.6,1.8c-1,0-1.6-0.7-1.6-1.9v-0.7
	c0-1.2,0.6-1.9,1.5-1.9c0.9,0,1.6,0.7,1.6,1.7V347.6z M249.1,319.6c0.3,0,0.6-0.1,0.9-0.2c0.3-0.1,0.5-0.3,0.7-0.5s0.4-0.4,0.5-0.7
	c0.1-0.3,0.2-0.6,0.2-0.9c0-0.3-0.1-0.6-0.2-0.9c-0.1-0.3-0.3-0.5-0.5-0.7c-0.2-0.2-0.4-0.4-0.7-0.5s-0.6-0.2-0.9-0.2
	s-0.6,0.1-0.9,0.2s-0.5,0.3-0.7,0.5c-0.2,0.2-0.4,0.5-0.5,0.7c-0.1,0.3-0.2,0.6-0.2,0.9v1.1h-2.2v-1.1c0-0.3-0.1-0.6-0.2-0.9
	c-0.1-0.3-0.3-0.5-0.5-0.7c-0.2-0.2-0.4-0.4-0.7-0.5s-0.6-0.2-0.9-0.2s-0.6,0.1-0.9,0.2s-0.5,0.3-0.7,0.5c-0.2,0.2-0.4,0.5-0.5,0.7
	c-0.1,0.3-0.2,0.6-0.2,0.9s0.1,0.6,0.2,0.9c0.1,0.3,0.3,0.5,0.5,0.7c0.2,0.2,0.4,0.4,0.7,0.5c0.3,0.1,0.6,0.2,0.9,0.2h1.2v2.2h-1.2
	c-0.3,0-0.6,0.1-0.9,0.2c-0.3,0.1-0.5,0.3-0.7,0.5c-0.2,0.2-0.4,0.4-0.5,0.7c-0.1,0.3-0.2,0.6-0.2,0.9s0.1,0.6,0.2,0.9
	c0.1,0.3,0.3,0.5,0.5,0.7s0.4,0.4,0.7,0.5s0.6,0.2,0.9,0.2s0.6-0.1,0.9-0.2s0.5-0.3,0.7-0.5s0.4-0.4,0.5-0.7
	c0.1-0.3,0.2-0.6,0.2-0.9v-1.1h2.2v1.1c0,0.3,0.1,0.6,0.2,0.9c0.1,0.3,0.3,0.5,0.5,0.7s0.4,0.4,0.7,0.5s0.6,0.2,0.9,0.2
	s0.6-0.1,0.9-0.2s0.5-0.3,0.7-0.5c0.2-0.2,0.4-0.4,0.5-0.7c0.1-0.3,0.2-0.6,0.2-0.9c0-0.3-0.1-0.6-0.2-0.9c-0.1-0.3-0.3-0.5-0.5-0.7
	c-0.2-0.2-0.4-0.4-0.7-0.5c-0.3-0.1-0.6-0.2-0.9-0.2H248v-2.2H249.1z M248,317.4c0-0.2,0-0.3,0.1-0.5c0.1-0.1,0.1-0.3,0.2-0.4
	s0.2-0.2,0.4-0.3s0.3-0.1,0.5-0.1c0.2,0,0.3,0,0.4,0.1c0.1,0.1,0.3,0.1,0.4,0.3s0.2,0.2,0.2,0.4c0.1,0.1,0.1,0.3,0.1,0.4
	c0,0.2,0,0.3-0.1,0.4s-0.1,0.3-0.2,0.4c-0.1,0.1-0.2,0.2-0.4,0.2c-0.1,0.1-0.3,0.1-0.4,0.1H248V317.4z M243.6,324
	c0,0.2,0,0.3-0.1,0.5c-0.1,0.1-0.1,0.3-0.3,0.4s-0.2,0.2-0.4,0.3c-0.1,0.1-0.3,0.1-0.5,0.1c-0.2,0-0.3,0-0.5-0.1
	c-0.1-0.1-0.3-0.1-0.4-0.3s-0.2-0.2-0.2-0.4c-0.1-0.1-0.1-0.3-0.1-0.5c0-0.2,0-0.3,0.1-0.4s0.1-0.3,0.2-0.4c0.1-0.1,0.2-0.2,0.4-0.2
	c0.1-0.1,0.3-0.1,0.4-0.1h1.2V324z M243.6,318.5h-1.2c-0.2,0-0.3,0-0.4-0.1c-0.1-0.1-0.3-0.1-0.4-0.2c-0.1-0.1-0.2-0.2-0.2-0.4
	s-0.1-0.3-0.1-0.4c0-0.2,0-0.3,0.1-0.5c0.1-0.1,0.1-0.3,0.2-0.4s0.2-0.2,0.4-0.3s0.3-0.1,0.5-0.1c0.2,0,0.3,0,0.5,0.1
	c0.1,0.1,0.3,0.1,0.4,0.3s0.2,0.2,0.3,0.4c0.1,0.1,0.1,0.3,0.1,0.5V318.5z M246.9,321.8h-2.2v-2.2h2.2V321.8z M249.1,322.9
	c0.2,0,0.3,0,0.4,0.1c0.1,0.1,0.3,0.1,0.4,0.2c0.1,0.1,0.2,0.2,0.2,0.4s0.1,0.3,0.1,0.4c0,0.2,0,0.3-0.1,0.4s-0.1,0.3-0.2,0.4
	c-0.1,0.1-0.2,0.2-0.4,0.3c-0.1,0.1-0.3,0.1-0.4,0.1c-0.2,0-0.3,0-0.5-0.1c-0.1-0.1-0.3-0.1-0.4-0.3s-0.2-0.2-0.2-0.4
	c-0.1-0.1-0.1-0.3-0.1-0.5v-1.1H249.1z M24.4,214.3c-0.1-0.1-0.2-0.2-0.4-0.2c-0.1,0-0.3,0.1-0.4,0.2l-6.7,7.3
	c-0.1,0.1-0.2,0.4-0.1,0.5c0.1,0.2,0.3,0.3,0.5,0.3l3.1,0v2.7c0,0.3,0.2,0.5,0.5,0.5h6.2c0.1,0,0.3-0.1,0.4-0.1s0.1-0.2,0.1-0.4
	l0-2.7h3.2c0.2,0,0.4-0.1,0.5-0.3c0.1-0.2,0-0.4-0.1-0.5L24.4,214.3z M27.1,221.5c-0.1,0-0.3,0.1-0.4,0.1s-0.1,0.2-0.1,0.4l0,2.7
	h-5.2V222c0-0.3-0.2-0.5-0.5-0.5l-2.5,0l5.6-6.1l5.6,6.1H27.1z M27.1,230.7c0.3,0,0.5-0.2,0.5-0.5v-2.9c0-0.1-0.1-0.3-0.1-0.4
	c-0.1-0.1-0.2-0.1-0.4-0.1h0l-6.2,0c-0.3,0-0.5,0.2-0.5,0.5v2.8c0,0.3,0.2,0.5,0.5,0.5H27.1z M21.3,227.8l5.2,0v1.9h-5.2V227.8z
	 M16.2,199.4c0-1.1,0.9-2,2-2s2,0.9,2,2c0,1.1-0.9,2-2,2S16.2,200.5,16.2,199.4z M185.5,44.5v1.8h2.2v0.6h-2.2v2.3h-0.7v-5.3h3.2
	v0.6H185.5z M190.4,46.5c0.3-0.3,0.6-0.7,0.6-1.2c0-0.5-0.4-0.9-1-0.9c-0.6,0-1,0.4-1,0.9c0,0,0,0,0,0h-0.7v0c0-0.8,0.6-1.6,1.7-1.6
	c1,0,1.7,0.6,1.7,1.5c0,0.7-0.4,1.1-0.9,1.7l-1.4,1.6v0h2.4v0.6h-3.4v-0.5L190.4,46.5z M185.5,25.5c0,0.4,0.1,0.8,0.2,1.2
	s0.4,0.7,0.6,0.9c0.3,0.3,0.6,0.5,0.9,0.6c0.4,0.2,0.7,0.2,1.2,0.2c0.4,0,0.8-0.1,1.1-0.2c0.4-0.2,0.7-0.4,0.9-0.6
	c0.3-0.3,0.5-0.6,0.6-0.9c0.2-0.4,0.2-0.7,0.2-1.2c0-0.4-0.1-0.8-0.2-1.1c-0.2-0.4-0.4-0.7-0.6-0.9c-0.3-0.3-0.6-0.5-0.9-0.6
	c-0.4-0.2-0.7-0.2-1.1-0.2c-0.4,0-0.8,0.1-1.2,0.2c-0.4,0.2-0.7,0.4-0.9,0.6c-0.3,0.3-0.5,0.6-0.6,0.9S185.5,25.1,185.5,25.5z
	 M186.5,24.7c0.1-0.3,0.3-0.5,0.5-0.7c0.2-0.2,0.4-0.3,0.7-0.5s0.5-0.2,0.8-0.2c0.3,0,0.5,0.1,0.8,0.2c0.3,0.1,0.5,0.3,0.7,0.5
	c0.2,0.2,0.3,0.4,0.5,0.7c0.1,0.3,0.2,0.5,0.2,0.8c0,0.3-0.1,0.6-0.2,0.8c-0.1,0.3-0.3,0.5-0.5,0.7c-0.2,0.2-0.4,0.3-0.7,0.5
	c-0.3,0.1-0.5,0.2-0.8,0.2c-0.3,0-0.6-0.1-0.8-0.2s-0.5-0.3-0.7-0.5c-0.2-0.2-0.3-0.4-0.5-0.7c-0.1-0.3-0.2-0.5-0.2-0.8
	C186.4,25.3,186.4,25,186.5,24.7z M188.1,21.5c-0.1-0.1-0.1-0.2-0.1-0.4v-1.5c0-0.1,0-0.3,0.1-0.3c0.1-0.1,0.2-0.1,0.4-0.1
	s0.3,0,0.4,0.1c0.1,0.1,0.1,0.2,0.1,0.3v1.5c0,0.1,0,0.3-0.1,0.4c-0.1,0.1-0.2,0.1-0.4,0.1S188.2,21.6,188.1,21.5z M183.9,21.8
	c-0.1-0.1-0.1-0.2-0.1-0.3c0-0.1,0-0.3,0.1-0.4c0.1-0.1,0.2-0.1,0.4-0.1c0.1,0,0.3,0,0.3,0.1l1,1c0,0,0.1,0.1,0.1,0.2
	c0,0.1,0,0.1,0,0.2c0,0.1,0,0.3-0.1,0.4c-0.1,0.1-0.2,0.1-0.3,0.1c-0.1,0-0.3,0-0.4-0.1L183.9,21.8z M182.2,25.9
	c-0.1-0.1-0.1-0.2-0.1-0.4s0-0.3,0.1-0.4c0.1-0.1,0.2-0.1,0.4-0.1h1.4c0.1,0,0.3,0,0.4,0.1c0.1,0.1,0.1,0.2,0.1,0.4s0,0.3-0.1,0.4
	c-0.1,0.1-0.2,0.2-0.4,0.2h-1.4C182.5,26.1,182.3,26,182.2,25.9z M191.2,22.8c-0.1-0.1-0.2-0.2-0.2-0.4c0-0.1,0-0.1,0-0.2
	c0-0.1,0.1-0.1,0.1-0.2l1-1c0-0.1,0.1-0.1,0.2-0.1s0.1,0,0.2,0c0.1,0,0.3,0,0.4,0.1s0.1,0.2,0.1,0.4c0,0.1,0,0.3-0.1,0.3l-1,1
	c-0.1,0.1-0.2,0.1-0.3,0.1C191.4,22.9,191.3,22.9,191.2,22.8z M188.1,31.8c-0.1-0.1-0.1-0.2-0.1-0.4V30c0-0.1,0-0.3,0.1-0.3
	s0.2-0.1,0.4-0.1s0.3,0,0.4,0.1s0.1,0.2,0.1,0.3v1.4c0,0.1,0,0.3-0.1,0.4c-0.1,0.1-0.2,0.1-0.4,0.1S188.2,31.9,188.1,31.8z
	 M185.7,29l-1,1c-0.1,0.1-0.2,0.1-0.3,0.1c-0.1,0-0.3,0-0.4-0.1c-0.1-0.1-0.1-0.2-0.1-0.4s0-0.3,0.1-0.3l1-1
	c0.1-0.1,0.2-0.1,0.4-0.1c0.1,0,0.3,0.1,0.3,0.2c0.1,0.1,0.1,0.2,0.1,0.3C185.8,28.8,185.8,28.9,185.7,29z M192.2,30l-1-1
	c-0.1-0.1-0.2-0.2-0.2-0.4c0-0.1,0-0.2,0.1-0.3c0.1-0.1,0.2-0.2,0.4-0.2c0.1,0,0.3,0,0.3,0.1l1,1c0.1,0.1,0.1,0.2,0.1,0.3
	c0,0.1,0,0.3-0.1,0.4s-0.2,0.1-0.4,0.1c-0.1,0-0.1,0-0.2,0C192.3,30.1,192.3,30.1,192.2,30z M192.9,25.1h1.4c0.1,0,0.3,0,0.4,0.1
	c0.1,0.1,0.1,0.2,0.1,0.4s0,0.3-0.1,0.4c-0.1,0.1-0.2,0.2-0.4,0.2h-1.4c-0.1,0-0.3-0.1-0.4-0.2c-0.1-0.1-0.1-0.2-0.1-0.4
	s0-0.3,0.1-0.4C192.6,25.1,192.7,25.1,192.9,25.1z M246.4,44.5v1.8h2.2v0.6h-2.2v2.3h-0.7v-5.3h3.2v0.6H246.4z M252.8,47.7
	c0,0.9-0.8,1.6-1.9,1.6c-1.1,0-1.7-0.6-1.8-1.4h0.7c0,0.4,0.5,0.7,1.1,0.8c0.7,0,1.2-0.4,1.1-1c0-0.6-0.5-0.9-1.1-0.9h-0.6v-0.6h0.6
	c0.6,0,1-0.4,1-0.9c0-0.5-0.4-0.9-1-0.9c-0.6,0-0.9,0.3-1,0.7h-0.7c0-0.7,0.6-1.3,1.7-1.4c1,0,1.7,0.6,1.7,1.4c0,0.8-0.6,1.2-1,1.3
	v0C252.1,46.5,252.8,46.9,252.8,47.7z M241.3,24.4h6c0.3,0,0.5-0.1,0.7-0.3c0.2-0.2,0.3-0.4,0.3-0.7v-2.5c0-0.3-0.1-0.5-0.3-0.7
	c-0.2-0.2-0.4-0.3-0.7-0.3h-6c-0.3,0-0.5,0.1-0.7,0.3c-0.2,0.2-0.3,0.4-0.3,0.7v2.5c0,0.3,0.1,0.5,0.3,0.7
	C240.8,24.3,241.1,24.4,241.3,24.4z M241,20.9c0-0.1,0-0.2,0.1-0.2c0.1-0.1,0.2-0.1,0.3-0.1h6c0.1,0,0.2,0,0.2,0.1
	c0.1,0.1,0.1,0.2,0.1,0.2v2.5c0,0.1,0,0.2-0.1,0.2c-0.1,0.1-0.1,0.1-0.2,0.1h-6c-0.1,0-0.2,0-0.3-0.1s-0.1-0.2-0.1-0.2V20.9z
	 M243.1,25.9c-0.2,0.2-0.3,0.4-0.3,0.7v3.1c0,0.3,0.1,0.5,0.3,0.7c0.2,0.2,0.4,0.3,0.7,0.3h5.4c0.3,0,0.5-0.1,0.7-0.3
	c0.2-0.2,0.3-0.4,0.3-0.7v-3.1c0-0.3-0.1-0.5-0.3-0.7c-0.2-0.2-0.4-0.3-0.7-0.3h-5.4C243.5,25.6,243.3,25.7,243.1,25.9z M249.5,26.3
	c0.1,0.1,0.1,0.1,0.1,0.2v3.1c0,0.1,0,0.2-0.1,0.2s-0.1,0.1-0.2,0.1h-5.4c-0.1,0-0.2,0-0.2-0.1c-0.1-0.1-0.1-0.1-0.1-0.2v-3.1
	c0-0.1,0-0.2,0.1-0.2c0.1-0.1,0.1-0.1,0.2-0.1h5.4C249.3,26.2,249.4,26.2,249.5,26.3z M256.4,20.9h-4.1c-0.3,0-0.5,0.1-0.7,0.3
	c-0.2,0.2-0.3,0.4-0.3,0.7v5.4c0,0.3,0.1,0.5,0.3,0.7c0.2,0.2,0.4,0.3,0.7,0.3h4.1c0.1,0,0.3,0,0.4-0.1c0.1-0.1,0.2-0.1,0.3-0.2
	c0.1-0.1,0.2-0.2,0.2-0.3c0.1-0.1,0.1-0.2,0.1-0.4v-5.4c0-0.3-0.1-0.5-0.3-0.7C256.9,21,256.7,20.9,256.4,20.9z M256.7,27.2
	c0,0.1,0,0.2-0.1,0.2s-0.1,0.1-0.2,0.1h-4.1c-0.1,0-0.2,0-0.2-0.1c-0.1-0.1-0.1-0.1-0.1-0.2v-5.4c0-0.1,0-0.2,0.1-0.2
	c0.1-0.1,0.1-0.1,0.2-0.1h4.1c0.1,0,0.2,0,0.2,0.1s0.1,0.2,0.1,0.2V27.2z M307.2,49.2h-0.7v-5.3h3.2v0.6h-2.5v1.8h2.2v0.6h-2.2V49.2
	z M309.9,48.1h2.6v1.1h0.7v-1.1h0.7v-0.6h-0.7v-3.6h-1.1c-0.8,1.2-1.6,2.4-2.2,3.6V48.1z M310.6,47.5c0.6-1,1.2-2,1.8-2.9h0v3
	L310.6,47.5L310.6,47.5z M302.7,24.5h2.4c0.1,0,0.3,0,0.4-0.1c0.1-0.1,0.2-0.1,0.3-0.2c0.1-0.1,0.2-0.2,0.2-0.3
	c0.1-0.1,0.1-0.2,0.1-0.4v-2.4c0-0.3-0.1-0.5-0.3-0.7c-0.2-0.2-0.4-0.3-0.7-0.3h-2.4c-0.3,0-0.5,0.1-0.7,0.3
	c-0.2,0.2-0.3,0.4-0.3,0.7v2.4c0,0.3,0.1,0.5,0.3,0.7C302.2,24.4,302.5,24.5,302.7,24.5z M302.4,21.1c0-0.1,0-0.2,0.1-0.2
	c0.1-0.1,0.1-0.1,0.2-0.1h2.4c0.1,0,0.2,0,0.2,0.1s0.1,0.2,0.1,0.2v2.4c0,0.1,0,0.2-0.1,0.2s-0.1,0.1-0.2,0.1h-2.4
	c-0.1,0-0.2,0-0.2-0.1c-0.1-0.1-0.1-0.1-0.1-0.2V21.1z M308.6,24.5h2.4c0.1,0,0.3,0,0.4-0.1c0.1-0.1,0.2-0.1,0.3-0.2
	c0.1-0.1,0.2-0.2,0.2-0.3c0.1-0.1,0.1-0.2,0.1-0.4v-2.4c0-0.3-0.1-0.5-0.3-0.7c-0.2-0.2-0.4-0.3-0.7-0.3h-2.4
	c-0.3,0-0.5,0.1-0.7,0.3c-0.2,0.2-0.3,0.4-0.3,0.7v2.4c0,0.3,0.1,0.5,0.3,0.7C308.1,24.4,308.3,24.5,308.6,24.5z M308.2,21.1
	c0-0.1,0-0.2,0.1-0.2c0.1-0.1,0.1-0.1,0.2-0.1h2.4c0.1,0,0.2,0,0.2,0.1s0.1,0.2,0.1,0.2v2.4c0,0.1,0,0.2-0.1,0.2s-0.1,0.1-0.2,0.1
	h-2.4c-0.1,0-0.2,0-0.2-0.1c-0.1-0.1-0.1-0.1-0.1-0.2V21.1z M316.8,20.2h-2.4c-0.3,0-0.5,0.1-0.7,0.3c-0.2,0.2-0.3,0.4-0.3,0.7v2.4
	c0,0.3,0.1,0.5,0.3,0.7c0.2,0.2,0.4,0.3,0.7,0.3h2.4c0.1,0,0.3,0,0.4-0.1c0.1-0.1,0.2-0.1,0.3-0.2c0.1-0.1,0.2-0.2,0.2-0.3
	c0.1-0.1,0.1-0.2,0.1-0.4v-2.4c0-0.3-0.1-0.5-0.3-0.7C317.3,20.3,317.1,20.2,316.8,20.2z M317.1,23.5c0,0.1,0,0.2-0.1,0.2
	s-0.1,0.1-0.2,0.1h-2.4c-0.1,0-0.2,0-0.2-0.1c-0.1-0.1-0.1-0.1-0.1-0.2v-2.4c0-0.1,0-0.2,0.1-0.2c0.1-0.1,0.1-0.1,0.2-0.1h2.4
	c0.1,0,0.2,0,0.2,0.1s0.1,0.2,0.1,0.2V23.5z M306,29.7c0.1-0.1,0.1-0.2,0.1-0.4V27c0-0.3-0.1-0.5-0.3-0.7c-0.2-0.2-0.4-0.3-0.7-0.3
	h-2.4c-0.3,0-0.5,0.1-0.7,0.3c-0.2,0.2-0.3,0.4-0.3,0.7v2.4c0,0.3,0.1,0.5,0.3,0.7c0.2,0.2,0.4,0.3,0.7,0.3h2.4c0.1,0,0.3,0,0.4-0.1
	c0.1-0.1,0.2-0.1,0.3-0.2C305.9,29.9,306,29.8,306,29.7z M305.5,29.4c0,0.1,0,0.2-0.1,0.2s-0.1,0.1-0.2,0.1h-2.4
	c-0.1,0-0.2,0-0.2-0.1c-0.1-0.1-0.1-0.1-0.1-0.2V27c0-0.1,0-0.2,0.1-0.2c0.1-0.1,0.1-0.1,0.2-0.1h2.4c0.1,0,0.2,0,0.2,0.1
	s0.1,0.2,0.1,0.2V29.4z M308.6,30.3h2.4c0.1,0,0.3,0,0.4-0.1c0.1-0.1,0.2-0.1,0.3-0.2c0.1-0.1,0.2-0.2,0.2-0.3
	c0.1-0.1,0.1-0.2,0.1-0.4V27c0-0.3-0.1-0.5-0.3-0.7c-0.2-0.2-0.4-0.3-0.7-0.3h-2.4c-0.3,0-0.5,0.1-0.7,0.3c-0.2,0.2-0.3,0.4-0.3,0.7
	v2.4c0,0.3,0.1,0.5,0.3,0.7C308.1,30.2,308.3,30.3,308.6,30.3z M308.2,27c0-0.1,0-0.2,0.1-0.2c0.1-0.1,0.1-0.1,0.2-0.1h2.4
	c0.1,0,0.2,0,0.2,0.1s0.1,0.2,0.1,0.2v2.4c0,0.1,0,0.2-0.1,0.2s-0.1,0.1-0.2,0.1h-2.4c-0.1,0-0.2,0-0.2-0.1
	c-0.1-0.1-0.1-0.1-0.1-0.2V27z M316.8,26h-2.4c-0.3,0-0.5,0.1-0.7,0.3c-0.2,0.2-0.3,0.4-0.3,0.7v2.4c0,0.3,0.1,0.5,0.3,0.7
	c0.2,0.2,0.4,0.3,0.7,0.3h2.4c0.1,0,0.3,0,0.4-0.1c0.1-0.1,0.2-0.1,0.3-0.2c0.1-0.1,0.2-0.2,0.2-0.3c0.1-0.1,0.1-0.2,0.1-0.4V27
	c0-0.3-0.1-0.5-0.3-0.7C317.3,26.1,317.1,26,316.8,26z M317.1,29.4c0,0.1,0,0.2-0.1,0.2s-0.1,0.1-0.2,0.1h-2.4c-0.1,0-0.2,0-0.2-0.1
	c-0.1-0.1-0.1-0.1-0.1-0.2V27c0-0.1,0-0.2,0.1-0.2c0.1-0.1,0.1-0.1,0.2-0.1h2.4c0.1,0,0.2,0,0.2,0.1s0.1,0.2,0.1,0.2V29.4z
	 M368.2,49.2h-0.7v-5.3h3.2v0.6h-2.5v1.8h2.2v0.6h-2.2V49.2z M374,47.5c0-0.7-0.5-1.1-1.1-1.1c-0.6,0-0.9,0.3-1,0.6h-0.6l0.2-3.1h3
	v0.6H372l-0.1,1.7h0c0.1-0.2,0.5-0.5,1.1-0.5c0.9,0,1.7,0.6,1.7,1.7c0,1.1-0.8,1.9-1.9,1.9c-1,0-1.7-0.6-1.7-1.4h0.7
	c0.1,0.5,0.6,0.7,1.1,0.7C373.4,48.7,374,48.3,374,47.5z M429,49.2h-0.7v-5.3h3.2v0.6H429v1.8h2.2v0.6H429V49.2z M433.8,49.3
	c1,0,1.8-0.7,1.8-1.8c0-1.1-0.8-1.7-1.7-1.7c-0.8,0-1.2,0.4-1.4,0.8h0c0-1.5,0.6-2.2,1.3-2.2c0.6,0,0.9,0.3,0.9,0.6h0.7
	c0-0.6-0.6-1.2-1.6-1.2c-1.2,0-2,0.9-2,3c0,0.8,0.2,1.4,0.4,1.8C432.6,49.1,433.2,49.3,433.8,49.3z M433.8,46.4
	c0.6,0,1.1,0.4,1.1,1.1c0,0.8-0.5,1.2-1.1,1.2c-0.6,0-1.1-0.4-1.1-1.2C432.7,46.9,433.1,46.4,433.8,46.4z M490.2,44.5v1.8h2.2v0.6
	h-2.2v2.3h-0.7v-5.3h3.2v0.6H490.2z M495.6,44.6L495.6,44.6l-2.7,0v-0.6h3.4v0.7l-2.2,4.7h-0.8L495.6,44.6z M499.1,21.6
	c-0.1-0.1-0.2-0.1-0.4,0l-6,3.7c-0.1,0.1-0.2,0.2-0.2,0.3c0,0.1,0.1,0.2,0.2,0.3l6,3.8c0.1,0,0.1,0.1,0.2,0.1c0.1,0,0.1,0,0.2,0
	c0.1-0.1,0.2-0.2,0.2-0.3l0-7.5C499.3,21.8,499.2,21.6,499.1,21.6z M493.6,25.6l5-3.1l0,6.2L493.6,25.6z M492.1,29.7
	c0.1,0,0.1,0,0.2,0c0.1-0.1,0.2-0.2,0.2-0.3l0-7.6c0-0.1-0.1-0.2-0.2-0.3c-0.1-0.1-0.2-0.1-0.4,0l-6,3.8c-0.1,0.1-0.2,0.2-0.2,0.3
	c0,0.1,0.1,0.2,0.2,0.3l6,3.8C492,29.7,492,29.7,492.1,29.7z M486.7,25.6l5-3.1l0,6.3L486.7,25.6z M553.1,46.9h-2.2v2.3h-0.7v-5.3
	h3.2v0.6h-2.5v1.8h2.2V46.9z M556.4,46.4L556.4,46.4c0.4-0.2,0.9-0.5,0.9-1.2c0-0.8-0.7-1.4-1.7-1.4s-1.7,0.6-1.7,1.4
	c0,0.7,0.5,1.1,0.9,1.2v0c-0.4,0.1-1.1,0.5-1.1,1.3c0,0.9,0.8,1.6,1.9,1.6c1.1,0,1.9-0.6,1.9-1.6C557.5,46.9,556.8,46.5,556.4,46.4z
	 M554.6,45.3c0-0.5,0.4-0.9,1-0.9c0.6,0,1,0.4,1,0.9c0,0.5-0.4,0.9-1,0.9C555,46.2,554.6,45.8,554.6,45.3z M555.6,48.7
	c-0.7,0-1.2-0.4-1.2-1c0-0.6,0.5-1,1.2-1s1.2,0.4,1.2,1C556.8,48.3,556.3,48.7,555.6,48.7z M554.4,25.6c0-0.1-0.1-0.2-0.2-0.3
	l-6-3.8c-0.1-0.1-0.2-0.1-0.4,0c-0.1,0.1-0.2,0.2-0.2,0.3l0,7.5c0,0.1,0.1,0.2,0.2,0.3c0.1,0,0.1,0,0.2,0c0.1,0,0.1,0,0.2-0.1l6-3.7
	C554.3,25.8,554.4,25.7,554.4,25.6z M548.4,28.7l0-6.2l5,3.1L548.4,28.7z M555.8,29.3V22c0-0.1,0.1-0.2,0.2-0.2h0.5
	c0.1,0,0.2,0.1,0.2,0.2v7.3c0,0.1-0.1,0.2-0.2,0.2H556C555.9,29.5,555.8,29.4,555.8,29.3z M559,22v7.3c0,0.1-0.1,0.2-0.2,0.2h-0.5
	c-0.1,0-0.2-0.1-0.2-0.2V22c0-0.1,0.1-0.2,0.2-0.2h0.5C558.9,21.8,559,21.9,559,22z M611.8,44.5v1.8h2.2v0.6h-2.2v2.3h-0.7v-5.3h3.2
	v0.6H611.8z M616.3,48.7c-0.5,0-0.8-0.3-0.9-0.5h-0.7c0.1,0.6,0.6,1.1,1.6,1.1c1.4,0,2-1,2-2.9c0-2.1-1-2.7-1.9-2.7
	c-1,0-1.9,0.7-1.9,1.8s0.8,1.8,1.7,1.8c0.7,0,1.2-0.4,1.3-0.8h0C617.7,47.7,617.3,48.7,616.3,48.7z M616.4,46.8
	c-0.6,0-1.1-0.4-1.1-1.2c0-0.8,0.5-1.2,1.1-1.2c0.6,0,1.1,0.4,1.1,1.2C617.5,46.4,617,46.8,616.4,46.8z M614.7,29.7
	c0.1,0,0.1,0,0.2,0c0.1,0,0.1,0,0.2-0.1l6-3.8c0.1-0.1,0.2-0.2,0.2-0.3c0-0.1-0.1-0.2-0.2-0.3l-6-3.8c-0.1-0.1-0.2-0.1-0.4,0
	c-0.1,0.1-0.2,0.2-0.2,0.3l0,7.6C614.5,29.5,614.6,29.6,614.7,29.7z M620.2,25.6l-5,3.1l0-6.3L620.2,25.6z M607.8,29.6
	c0.1,0,0.1,0,0.2,0c0.1,0,0.1,0,0.2-0.1l6-3.7c0.1-0.1,0.2-0.2,0.2-0.3c0-0.1-0.1-0.2-0.2-0.3l-6-3.8c-0.1-0.1-0.2-0.1-0.4,0
	c-0.1,0.1-0.2,0.2-0.2,0.3l0,7.5C607.6,29.5,607.7,29.6,607.8,29.6z M613.3,25.6l-5,3.1l0-6.2L613.3,25.6z M671.1,49.2h-0.7v-5.3
	h3.2v0.6h-2.5v1.8h2.2v0.6h-2.2V49.2z M675.3,49.2v-4.6h0l-1.2,0.9v-0.7l1.3-0.9h0.7v5.3H675.3z M677.1,46.5v0.2
	c0,1.6,0.7,2.7,1.9,2.7c1.2,0,1.9-1.1,1.9-2.7v-0.2c0-1.6-0.7-2.7-1.9-2.7C677.8,43.8,677.1,44.9,677.1,46.5z M679,44.4
	c0.7,0,1.2,0.8,1.2,2.1v0.2c0,1.3-0.5,2.1-1.2,2.1c-0.7,0-1.2-0.8-1.2-2.1v-0.2C677.8,45.2,678.3,44.4,679,44.4z M672.5,28h2.4
	l2.9,2.8c0.1,0.1,0.2,0.1,0.2,0.1c0,0,0.1,0,0.1,0c0.1-0.1,0.2-0.2,0.2-0.3v-8.9c0-0.1-0.1-0.3-0.2-0.3c-0.1-0.1-0.3,0-0.4,0.1
	l-2.9,2.8h-2.4c-0.2,0-0.3,0.2-0.3,0.3v3.1C672.2,27.9,672.3,28,672.5,28z M672.9,25h2.2c0.1,0,0.2,0,0.2-0.1l2.4-2.3v7.2l-2.4-2.3
	c-0.1-0.1-0.2-0.1-0.2-0.1h-2.2V25z M732.6,44.5v1.8h2.2v0.6h-2.2v2.3h-0.7v-5.3h3.2v0.6H732.6z M736.8,49.2v-4.6h0l-1.2,0.9v-0.7
	l1.3-0.9h0.7v5.3H736.8z M739.9,44.7l-1.2,0.9v-0.7l1.3-0.9h0.7v5.3H740L739.9,44.7L739.9,44.7z M740.1,27.2
	c0.1-0.3,0.1-0.7,0.1-1.1s0-0.7-0.1-1.1c-0.1-0.3-0.2-0.7-0.3-1c-0.1-0.3-0.3-0.6-0.6-0.8c-0.1-0.1-0.1-0.2-0.1-0.2
	c0-0.1,0-0.2,0.1-0.3c0.1-0.1,0.1-0.1,0.2-0.1c0,0,0,0,0,0c0.1,0,0.2,0,0.2,0.1c0.3,0.3,0.5,0.6,0.7,0.9c0.2,0.4,0.3,0.7,0.4,1.1
	c0.1,0.4,0.2,0.8,0.2,1.2c0,0.4-0.1,0.8-0.2,1.2c-0.1,0.4-0.2,0.8-0.4,1.1c-0.2,0.3-0.4,0.6-0.7,0.9c-0.1,0.1-0.2,0.1-0.2,0.1l0,0
	c-0.1,0-0.2-0.1-0.2-0.1c-0.1-0.1-0.1-0.2-0.1-0.3c0-0.1,0-0.2,0.1-0.3c0.2-0.2,0.4-0.4,0.6-0.7C739.9,27.9,740,27.6,740.1,27.2z
	 M731.8,28h2.4l2.9,2.8c0.1,0.1,0.2,0.1,0.2,0.1c0,0,0.1,0,0.1,0c0.1-0.1,0.2-0.2,0.2-0.3v-8.9c0-0.1-0.1-0.3-0.2-0.3
	c-0.1-0.1-0.3,0-0.4,0.1l-2.9,2.8h-2.4c-0.2,0-0.3,0.2-0.3,0.3v3.1C731.5,27.9,731.6,28,731.8,28z M732.2,25h2.2
	c0.1,0,0.2,0,0.2-0.1l2.4-2.3v7.2l-2.4-2.3c-0.1-0.1-0.2-0.1-0.2-0.1h-2.2V25z M793.1,49.2h-0.7v-5.3h3.2v0.6h-2.5v1.8h2.2v0.6h-2.2
	V49.2z M796,44.8l1.3-0.9h0.7v5.3h-0.7v-4.6h0l-1.2,0.9V44.8z M800.2,48.6h2.4v0.6h-3.4v-0.5l2-2.3c0.3-0.3,0.6-0.7,0.6-1.2
	c0-0.5-0.4-0.9-1-0.9c-0.6,0-1,0.4-1,0.9c0,0,0,0,0,0h-0.7v0c0-0.8,0.6-1.6,1.7-1.6c1,0,1.7,0.6,1.7,1.5c0,0.7-0.4,1.1-0.9,1.7
	L800.2,48.6L800.2,48.6z M798.9,27.2c0.1-0.3,0.1-0.7,0.1-1.1s0-0.7-0.1-1.1c-0.1-0.3-0.2-0.7-0.3-1c-0.1-0.3-0.3-0.6-0.6-0.8
	c-0.1-0.1-0.1-0.2-0.1-0.2c0-0.1,0-0.2,0.1-0.3c0.1-0.1,0.1-0.1,0.2-0.1c0,0,0,0,0,0c0.1,0,0.2,0,0.2,0.1c0.3,0.3,0.5,0.6,0.7,0.9
	c0.2,0.4,0.3,0.7,0.4,1.1c0.1,0.4,0.2,0.8,0.2,1.2c0,0.4-0.1,0.8-0.2,1.2c-0.1,0.4-0.2,0.8-0.4,1.1c-0.2,0.3-0.4,0.6-0.7,0.9
	c-0.1,0.1-0.2,0.1-0.2,0.1l0,0c-0.1,0-0.2-0.1-0.2-0.1c-0.1-0.1-0.1-0.2-0.1-0.3c0-0.1,0-0.2,0.1-0.3c0.2-0.2,0.4-0.4,0.6-0.7
	C798.7,27.9,798.8,27.6,798.9,27.2z M803.8,24c0.2,0.7,0.3,1.5,0.3,2.3c0,0.8-0.1,1.5-0.3,2.3c-0.2,0.7-0.5,1.4-0.8,2
	c-0.4,0.6-0.8,1.2-1.4,1.6c-0.1,0.1-0.1,0.1-0.2,0.1l0,0c-0.1,0-0.2-0.1-0.2-0.1c-0.1-0.1-0.1-0.2-0.1-0.3c0-0.1,0-0.2,0.1-0.2
	c0.5-0.4,0.9-0.9,1.2-1.5c0.3-0.6,0.6-1.2,0.7-1.9c0.2-0.7,0.2-1.4,0.2-2.1c0-0.7-0.1-1.4-0.2-2.1s-0.4-1.4-0.7-2
	c-0.3-0.6-0.7-1.2-1.2-1.6c-0.1-0.1-0.1-0.2-0.1-0.3c0-0.1,0-0.2,0.1-0.2c0.1-0.1,0.1-0.1,0.2-0.1c0,0,0,0,0,0c0.1,0,0.2,0,0.3,0.1
	c0.5,0.5,1,1.1,1.4,1.8C803.3,22.6,803.6,23.3,803.8,24z M799.5,22c-0.1-0.1-0.1-0.2-0.1-0.3c0-0.1,0-0.2,0.1-0.2
	c0.1-0.1,0.1-0.1,0.2-0.1c0,0,0,0,0,0c0.1,0,0.2,0,0.2,0.1c0.4,0.4,0.8,0.9,1.1,1.4c0.3,0.5,0.5,1.1,0.6,1.7
	c0.1,0.6,0.2,1.2,0.2,1.8c0,0.6-0.1,1.2-0.2,1.8c-0.1,0.6-0.4,1.1-0.6,1.6c-0.3,0.5-0.6,0.9-1.1,1.3c-0.1,0.1-0.1,0.1-0.2,0.1
	l-0.1,0c-0.1,0-0.2-0.1-0.2-0.1c-0.1-0.1-0.1-0.2-0.1-0.3c0-0.1,0-0.2,0.1-0.3c0.4-0.3,0.7-0.6,0.9-1.1c0.2-0.4,0.4-0.9,0.5-1.4
	c0.1-0.5,0.2-1,0.2-1.6c0-0.6,0-1.1-0.2-1.6c-0.1-0.5-0.3-1-0.5-1.5C800.2,22.7,799.9,22.3,799.5,22z M795.8,30.8
	c0.1,0.1,0.2,0.1,0.2,0.1c0,0,0.1,0,0.1,0c0.1-0.1,0.2-0.2,0.2-0.3v-8.9c0-0.1-0.1-0.3-0.2-0.3c-0.1-0.1-0.3,0-0.4,0.1l-2.9,2.8
	h-2.4c-0.2,0-0.3,0.2-0.3,0.3v3.1c0,0.2,0.2,0.3,0.3,0.3h2.4L795.8,30.8z M790.9,25h2.2c0.1,0,0.2,0,0.2-0.1l2.4-2.3v7.2l-2.4-2.3
	c-0.1-0.1-0.2-0.1-0.2-0.1h-2.2V25z M862.7,38.5v-1.9c0-0.2-0.2-0.3-0.3-0.3l-8.7,0c-0.1,0-0.2,0-0.2,0.1c-0.1,0.1-0.1,0.2-0.1,0.2
	v1.9c0,0.2,0.2,0.3,0.3,0.3h8.7C862.6,38.8,862.7,38.7,862.7,38.5z M862,38.1h-8v-1.2l8,0V38.1z M854.1,34.9l7.8,0
	c0.1,0,0.3-0.1,0.3-0.2s0-0.3,0-0.4l-3.9-5c-0.1-0.1-0.2-0.1-0.3-0.1c-0.1,0-0.2,0-0.3,0.1l-3.9,5c-0.1,0.1-0.1,0.2,0,0.4
	S854,34.9,854.1,34.9z M858,30.1l3.2,4.1l-6.4,0L858,30.1z M584.2,348.5h1c0,0.9-0.8,1.8-2.4,1.8c-1.6,0-2.6-1-2.6-2.7v-1
	c0-1.6,1-2.7,2.6-2.7c1.5,0,2.3,1,2.4,1.9h-1c-0.1-0.4-0.4-1-1.3-1c-1,0-1.5,0.7-1.5,1.8v1c0,1.1,0.6,1.8,1.5,1.8
	C583.8,349.3,584.1,348.9,584.2,348.5z M588.6,343.9c-1.5,0-2.7,1.1-2.7,2.7v0.9c0,1.8,1.1,2.7,2.7,2.7c1.5,0,2.7-1,2.7-2.7v-0.9
	C591.3,344.9,590.1,343.9,588.6,343.9z M590.2,347.5c0,1.1-0.6,1.9-1.6,1.9c-1,0-1.6-0.8-1.6-1.9v-0.7c0-1.1,0.6-1.9,1.6-1.9
	s1.6,0.8,1.6,1.9V347.5z M600.8,345.8v4.3h-1.1v-4c0-0.8-0.4-1.3-1.3-1.3c-0.8,0-1.4,0.6-1.4,1.4v3.9h-1v-4c0-0.8-0.5-1.3-1.3-1.3
	c-0.8,0-1.3,0.6-1.3,1.4v3.9h-1.1V344h1v1h0.1c0.1-0.4,0.5-1.1,1.7-1.1c0.9,0,1.5,0.5,1.7,1.2h0c0.3-0.6,0.8-1.2,1.9-1.2
	C600,343.9,600.8,344.6,600.8,345.8z M610.5,345.8v4.3h-1.1v-4c0-0.8-0.4-1.3-1.3-1.3c-0.8,0-1.4,0.6-1.4,1.4v3.9h-1v-4
	c0-0.8-0.5-1.3-1.3-1.3c-0.8,0-1.3,0.6-1.3,1.4v3.9h-1.1V344h1v1h0.1c0.1-0.4,0.5-1.1,1.7-1.1c0.9,0,1.5,0.5,1.7,1.2h0
	c0.3-0.6,0.8-1.2,1.9-1.2C609.8,343.9,610.5,344.6,610.5,345.8z M614,343.9c-1.4,0-2.2,0.6-2.3,1.6h1c0.1-0.4,0.5-0.7,1.2-0.7
	c0.8,0,1.3,0.4,1.3,1.1v0.6h-1.6c-1.4,0-2.2,0.7-2.2,1.8c0,1.1,0.8,1.9,2,1.9c0.9,0,1.5-0.4,1.8-0.9h0v0.8h1V346
	C616.4,344.5,615.3,343.9,614,343.9z M615.3,348.1c0,0.7-0.6,1.3-1.5,1.3c-0.6,0-1.2-0.3-1.2-1c0-0.6,0.3-1,1.2-1h1.5V348.1z
	 M622.8,346v4.2h-1.1v-3.9c0-1-0.5-1.5-1.3-1.5c-1.1,0-1.6,0.8-1.6,1.9v3.4h-1.1V344h1v1.1h0.1c0.2-0.5,0.6-1.2,1.9-1.2
	C621.9,343.9,622.8,344.6,622.8,346z M628,344.9L628,344.9c-0.3-0.6-1-1-1.8-1c-1.4,0-2.4,1-2.4,2.6v1.2c0,1.6,0.9,2.6,2.4,2.6
	c0.9,0,1.7-0.4,1.9-1.1h0.1v1h1v-8.4H628V344.9z M628,347.6c0,1.1-0.6,1.8-1.6,1.8c-1,0-1.6-0.7-1.6-1.9v-0.7c0-1.2,0.6-1.9,1.5-1.9
	c0.9,0,1.6,0.7,1.6,1.7V347.6z M589.8,319.6c0.3,0,0.6-0.1,0.9-0.2c0.3-0.1,0.5-0.3,0.7-0.5s0.4-0.4,0.5-0.7
	c0.1-0.3,0.2-0.6,0.2-0.9c0-0.3-0.1-0.6-0.2-0.9c-0.1-0.3-0.3-0.5-0.5-0.7c-0.2-0.2-0.4-0.4-0.7-0.5s-0.6-0.2-0.9-0.2
	s-0.6,0.1-0.9,0.2c-0.3,0.1-0.5,0.3-0.7,0.5c-0.2,0.2-0.4,0.5-0.5,0.7c-0.1,0.3-0.2,0.6-0.2,0.9v1.1h-2.2v-1.1
	c0-0.3-0.1-0.6-0.2-0.9c-0.1-0.3-0.3-0.5-0.5-0.7c-0.2-0.2-0.4-0.4-0.7-0.5c-0.3-0.1-0.6-0.2-0.9-0.2s-0.6,0.1-0.9,0.2
	c-0.3,0.1-0.5,0.3-0.7,0.5c-0.2,0.2-0.4,0.5-0.5,0.7c-0.1,0.3-0.2,0.6-0.2,0.9s0.1,0.6,0.2,0.9s0.3,0.5,0.5,0.7
	c0.2,0.2,0.4,0.4,0.7,0.5c0.3,0.1,0.6,0.2,0.9,0.2h1.2v2.2H583c-0.3,0-0.6,0.1-0.9,0.2c-0.3,0.1-0.5,0.3-0.7,0.5
	c-0.2,0.2-0.4,0.4-0.5,0.7c-0.1,0.3-0.2,0.6-0.2,0.9s0.1,0.6,0.2,0.9c0.1,0.3,0.3,0.5,0.5,0.7s0.4,0.4,0.7,0.5
	c0.3,0.1,0.6,0.2,0.9,0.2s0.6-0.1,0.9-0.2c0.3-0.1,0.5-0.3,0.7-0.5s0.4-0.4,0.5-0.7c0.1-0.3,0.2-0.6,0.2-0.9v-1.1h2.2v1.1
	c0,0.3,0.1,0.6,0.2,0.9c0.1,0.3,0.3,0.5,0.5,0.7s0.4,0.4,0.7,0.5c0.3,0.1,0.6,0.2,0.9,0.2s0.6-0.1,0.9-0.2s0.5-0.3,0.7-0.5
	c0.2-0.2,0.4-0.4,0.5-0.7c0.1-0.3,0.2-0.6,0.2-0.9c0-0.3-0.1-0.6-0.2-0.9c-0.1-0.3-0.3-0.5-0.5-0.7c-0.2-0.2-0.4-0.4-0.7-0.5
	c-0.3-0.1-0.6-0.2-0.9-0.2h-1.1v-2.2H589.8z M588.6,317.4c0-0.2,0-0.3,0.1-0.5c0.1-0.1,0.1-0.3,0.2-0.4c0.1-0.1,0.2-0.2,0.4-0.3
	c0.1-0.1,0.3-0.1,0.5-0.1c0.2,0,0.3,0,0.4,0.1c0.1,0.1,0.3,0.1,0.4,0.3c0.1,0.1,0.2,0.2,0.2,0.4c0.1,0.1,0.1,0.3,0.1,0.4
	c0,0.2,0,0.3-0.1,0.4c-0.1,0.1-0.1,0.3-0.2,0.4c-0.1,0.1-0.2,0.2-0.4,0.2c-0.1,0.1-0.3,0.1-0.4,0.1h-1.1V317.4z M584.2,324
	c0,0.2,0,0.3-0.1,0.5c-0.1,0.1-0.1,0.3-0.3,0.4s-0.2,0.2-0.4,0.3c-0.1,0.1-0.3,0.1-0.5,0.1c-0.2,0-0.3,0-0.5-0.1
	c-0.1-0.1-0.3-0.1-0.4-0.3c-0.1-0.1-0.2-0.2-0.2-0.4c-0.1-0.1-0.1-0.3-0.1-0.5c0-0.2,0-0.3,0.1-0.4c0.1-0.1,0.1-0.3,0.2-0.4
	c0.1-0.1,0.2-0.2,0.4-0.2c0.1-0.1,0.3-0.1,0.4-0.1h1.2V324z M584.2,318.5H583c-0.2,0-0.3,0-0.4-0.1c-0.1-0.1-0.3-0.1-0.4-0.2
	c-0.1-0.1-0.2-0.2-0.2-0.4c-0.1-0.1-0.1-0.3-0.1-0.4c0-0.2,0-0.3,0.1-0.5c0.1-0.1,0.1-0.3,0.2-0.4c0.1-0.1,0.2-0.2,0.4-0.3
	c0.1-0.1,0.3-0.1,0.5-0.1c0.2,0,0.3,0,0.5,0.1c0.1,0.1,0.3,0.1,0.4,0.3s0.2,0.2,0.3,0.4c0.1,0.1,0.1,0.3,0.1,0.5V318.5z
	 M587.5,321.8h-2.2v-2.2h2.2V321.8z M589.8,322.9c0.2,0,0.3,0,0.4,0.1c0.1,0.1,0.3,0.1,0.4,0.2c0.1,0.1,0.2,0.2,0.2,0.4
	c0.1,0.1,0.1,0.3,0.1,0.4c0,0.2,0,0.3-0.1,0.4c-0.1,0.1-0.1,0.3-0.2,0.4c-0.1,0.1-0.2,0.2-0.4,0.3c-0.1,0.1-0.3,0.1-0.4,0.1
	c-0.2,0-0.3,0-0.5-0.1c-0.1-0.1-0.3-0.1-0.4-0.3c-0.1-0.1-0.2-0.2-0.2-0.4c-0.1-0.1-0.1-0.3-0.1-0.5v-1.1H589.8z M876.7,162.3v2.3
	c0,0.2,0,0.4,0,0.5c0,0.2-0.1,0.3-0.1,0.4c-0.1,0.1-0.1,0.3-0.2,0.4c-0.1,0.1-0.2,0.3-0.3,0.4c-0.3,0.3-0.5,0.5-0.8,0.6
	s-0.6,0.2-1,0.2H861l2.7,2.7l-0.7,0.7l0,0l-3.8-3.8l0,0l3.8-3.8l0.7,0.7l-2.7,2.7h13.2c0.2,0,0.4,0,0.6-0.1c0.2-0.1,0.3-0.2,0.5-0.3
	s0.3-0.3,0.3-0.5c0.1-0.2,0.1-0.3,0.1-0.6v-2.3c0-0.2,0-0.4-0.1-0.6c-0.1-0.2-0.2-0.3-0.3-0.5c-0.2-0.2-0.3-0.3-0.5-0.3
	c-0.2-0.1-0.3-0.1-0.6-0.1h-2.9v-1h2.9c0.2,0,0.4,0,0.5,0c0.2,0,0.3,0.1,0.4,0.1c0.1,0.1,0.3,0.1,0.4,0.2c0.1,0.1,0.3,0.2,0.4,0.3
	c0.3,0.3,0.4,0.5,0.6,0.8C876.6,161.7,876.7,162,876.7,162.3z"/>
<path id="Key_shadows_1_" class="st3" d="M360.6,67.9h-42.9c-2.8,0-5,2.2-5,5v41.9c0,2.8,2.2,5,5,5h42.9c2.8,0,5-2.2,5-5V72.9
	C365.6,70.1,363.3,67.9,360.6,67.9z M364.6,114.8c0,2.2-1.8,4-4,4h-42.9c-2.2,0-4-1.8-4-4V72.9c0-2.2,1.8-4,4-4h42.9
	c2.2,0,4,1.8,4,4V114.8z M275.2,174.5v-41.9c0-2.8-2.2-5-5-5h-42.9c-2.8,0-5,2.2-5,5v41.9c0,2.8,2.2,5,5,5h42.9
	C273,179.5,275.2,177.3,275.2,174.5z M223.3,174.5v-41.9c0-2.2,1.8-4,4-4h42.9c2.2,0,4,1.8,4,4v41.9c0,2.2-1.8,4-4,4h-42.9
	C225.1,178.5,223.3,176.7,223.3,174.5z M465.9,132.6v41.9c0,2.8,2.2,5,5,5h42.9c2.8,0,5-2.2,5-5v-41.9c0-2.8-2.2-5-5-5h-42.9
	C468.2,127.6,465.9,129.9,465.9,132.6z M517.9,132.6v41.9c0,2.2-1.8,4-4,4h-42.9c-2.2,0-4-1.8-4-4v-41.9c0-2.2,1.8-4,4-4h42.9
	C516.1,128.6,517.9,130.4,517.9,132.6z M635.8,306.9c0,0-3.4,0-8.2,0c-12.1,0-30.1,0-42.2,0c-4.9,0-8.2,0-8.2,0c-2.8,0-5,2.2-5,5
	c0,0,0,3.3,0,8c0,7.4,0,18.5,0,26c0,4.7,0,8,0,8c0,2.8,2.2,5,5,5c0,0,3.4,0,8.2,0c12.1,0,30.1,0,42.2,0c4.9,0,8.2,0,8.2,0
	c2.8,0,5-2.2,5-5c0,0,0-3.3,0-8c0-7.4,0-18.5,0-26c0-4.7,0-8,0-8C640.8,309.1,638.6,306.9,635.8,306.9z M639.8,319.9
	c0,7.4,0,18.5,0,26c0,4.7,0,8,0,8c0,2.2-1.8,4-4,4c0,0-3.4,0-8.2,0c-12.1,0-30.1,0-42.2,0c-4.9,0-8.2,0-8.2,0c-2.2,0-4-1.8-4-4
	c0,0,0-3.3,0-8c0-7.4,0-18.5,0-26c0-4.7,0-8,0-8c0-2.2,1.8-4,4-4c0,0,3.4,0,8.2,0c12.1,0,30.1,0,42.2,0c4.9,0,8.2,0,8.2,0
	c2.2,0,4,1.8,4,4C639.8,311.9,639.8,315.1,639.8,319.9z M405,132.6v41.9c0,2.8,2.2,5,5,5h42.9c2.8,0,5-2.2,5-5v-41.9
	c0-2.8-2.2-5-5-5H410C407.3,127.6,405,129.9,405,132.6z M456.9,132.6v41.9c0,2.2-1.8,4-4,4H410c-2.2,0-4-1.8-4-4v-41.9
	c0-2.2,1.8-4,4-4h42.9C455.2,128.6,456.9,130.4,456.9,132.6z M482.4,67.9h-42.9c-2.8,0-5,2.2-5,5v41.9c0,2.8,2.2,5,5,5h42.9
	c2.8,0,5-2.2,5-5V72.9C487.4,70.1,485.2,67.9,482.4,67.9z M486.4,114.8c0,2.2-1.8,4-4,4h-42.9c-2.2,0-4-1.8-4-4V72.9
	c0-2.2,1.8-4,4-4h42.9c2.2,0,4,1.8,4,4V114.8z M421.5,67.9h-42.9c-2.8,0-5,2.2-5,5v41.9c0,2.8,2.2,5,5,5h42.9c2.8,0,5-2.2,5-5V72.9
	C426.5,70.1,424.2,67.9,421.5,67.9z M425.5,114.8c0,2.2-1.8,4-4,4h-42.9c-2.2,0-4-1.8-4-4V72.9c0-2.2,1.8-4,4-4h42.9
	c2.2,0,4,1.8,4,4V114.8z M543.3,119.8c2.8,0,5-2.2,5-5V72.9c0-2.8-2.2-5-5-5h-42.9c-2.8,0-5,2.2-5,5v41.9c0,2.8,2.2,5,5,5H543.3z
	 M496.4,114.8V72.9c0-2.2,1.8-4,4-4h42.9c2.2,0,4,1.8,4,4v41.9c0,2.2-1.8,4-4,4h-42.9C498.2,118.8,496.4,117,496.4,114.8z
	 M696.7,306.9h-42.9c-2.8,0-5,2.2-5,5v41.9c0,2.8,2.2,5,5,5h42.9c2.8,0,5-2.2,5-5v-41.9C701.7,309.1,699.5,306.9,696.7,306.9z
	 M700.7,353.8c0,2.2-1.8,4-4,4h-42.9c-2.2,0-4-1.8-4-4v-41.9c0-2.2,1.8-4,4-4h42.9c2.2,0,4,1.8,4,4V353.8z M344.1,132.6v41.9
	c0,2.8,2.2,5,5,5H392c2.8,0,5-2.2,5-5v-41.9c0-2.8-2.2-5-5-5h-42.9C346.4,127.6,344.1,129.9,344.1,132.6z M396,132.6v41.9
	c0,2.2-1.8,4-4,4h-42.9c-2.2,0-4-1.8-4-4v-41.9c0-2.2,1.8-4,4-4H392C394.2,128.6,396,130.4,396,132.6z M559.1,247.1h-42.9
	c-2.8,0-5,2.2-5,5V294c0,2.8,2.2,5,5,5h42.9c2.8,0,5-2.2,5-5v-41.9C564.1,249.4,561.9,247.1,559.1,247.1z M563.1,294
	c0,2.2-1.8,4-4,4h-42.9c-2.2,0-4-1.8-4-4v-41.9c0-2.2,1.8-4,4-4h42.9c2.2,0,4,1.8,4,4V294z M13.1,239.3c0,0,3.4,0,8.2,0
	c20.9,0,51.8,0,72.7,0c4.9,0,8.2,0,8.2,0c2.8,0,5-2.2,5-5c0,0,0-3.3,0-8c0-7.4,0-18.5,0-26c0-4.7,0-8,0-8c0-2.8-2.2-5-5-5
	c0,0-3.4,0-8.2,0c-20.9,0-51.8,0-72.7,0c-4.9,0-8.2,0-8.2,0c-2.8,0-5,2.2-5,5c0,0,0,3.3,0,8c0,7.4,0,18.5,0,26c0,4.7,0,8,0,8
	C8.1,237,10.3,239.3,13.1,239.3z M9.1,226.3c0-7.4,0-18.5,0-26c0-4.7,0-8,0-8c0-2.2,1.8-4,4-4c0,0,3.4,0,8.2,0c20.9,0,51.8,0,72.7,0
	c4.9,0,8.2,0,8.2,0c2.2,0,4,1.8,4,4c0,0,0,3.3,0,8c0,7.4,0,18.5,0,26c0,4.7,0,8,0,8c0,2.2-1.8,4-4,4c0,0-3.4,0-8.2,0
	c-20.9,0-51.8,0-72.7,0c-4.9,0-8.2,0-8.2,0c-2.2,0-4-1.8-4-4C9.1,234.3,9.1,231,9.1,226.3z M100.4,132.6v41.9c0,2.8,2.2,5,5,5h42.9
	c2.8,0,5-2.2,5-5v-41.9c0-2.8-2.2-5-5-5h-42.9C102.7,127.6,100.4,129.9,100.4,132.6z M152.4,132.6v41.9c0,2.2-1.8,4-4,4h-42.9
	c-2.2,0-4-1.8-4-4v-41.9c0-2.2,1.8-4,4-4h42.9C150.6,128.6,152.4,130.4,152.4,132.6z M238.7,119.8c2.8,0,5-2.2,5-5V72.9
	c0-2.8-2.2-5-5-5h-42.9c-2.8,0-5,2.2-5,5v41.9c0,2.8,2.2,5,5,5H238.7z M191.8,114.8V72.9c0-2.2,1.8-4,4-4h42.9c2.2,0,4,1.8,4,4v41.9
	c0,2.2-1.8,4-4,4h-42.9C193.6,118.8,191.8,117,191.8,114.8z M757.6,306.9h-42.9c-2.8,0-5,2.2-5,5v41.9c0,2.8,2.2,5,5,5h42.9
	c2.8,0,5-2.2,5-5v-41.9C762.6,309.1,760.4,306.9,757.6,306.9z M761.6,353.8c0,2.2-1.8,4-4,4h-42.9c-2.2,0-4-1.8-4-4v-41.9
	c0-2.2,1.8-4,4-4h42.9c2.2,0,4,1.8,4,4V353.8z M177.8,67.9h-42.9c-2.8,0-5,2.2-5,5v41.9c0,2.8,2.2,5,5,5h42.9c2.8,0,5-2.2,5-5V72.9
	C182.8,70.1,180.6,67.9,177.8,67.9z M181.8,114.8c0,2.2-1.8,4-4,4h-42.9c-2.2,0-4-1.8-4-4V72.9c0-2.2,1.8-4,4-4h42.9
	c2.2,0,4,1.8,4,4V114.8z M879.5,127.6c0,0-3.4,0-8.2,0c-1.8,0-4.1,0-6.4,0c0,0-2,0-5.2,0c-0.9,0-2,0-3.1,0c-1.5,0-3.3,0-5.2,0
	c-2.4,0-4.9,0-6.8,0c-4.9,0-8.2,0-8.2,0c-2.8,0-5,2.2-5,5c0,0,0,3.3,0,8c0,7.4,0,18.5,0,26c0,4.7,0,8,0,8c0,2.8,2.2,5,5,5
	c0,0,2.8,0,7,0c1.7,0,3,1.3,3,3c0,15.6,0,31.2,0,43.7c0,4.7,0,8,0,8c0,2.8,2.2,5,5,5c0,0,3.4,0,8.2,0c3.3,0,8.2,0,11.5,0
	c4.9,0,8.2,0,8.2,0c2.8,0,5-2.2,5-5c0,0,0-3.3,0-8c0-24.6,0-61.1,0-85.7c0-4.7,0-8,0-8C884.5,129.9,882.2,127.6,879.5,127.6z
	 M883.5,132.6c0,0,0,3.3,0,8c0,24.6,0,61.1,0,85.7c0,4.7,0,8,0,8c0,1-0.3,1.8-0.9,2.5c-0.2,0.3-0.5,0.5-0.8,0.7
	c-0.7,0.5-1.5,0.8-2.3,0.8c0,0-3.4,0-8.2,0c-3.3,0-8.2,0-11.5,0c-4.9,0-8.2,0-8.2,0c-2.2,0-4-1.8-4-4c0,0,0-3.3,0-8
	c0-10.5,0-23.2,0-36.2c0-2.5,0-5,0-7.5c0-2.2-1.8-4-4-4c-4.2,0-7,0-7,0c-2.2,0-4-1.8-4-4c0,0,0-3.3,0-8c0-7.4,0-18.5,0-26
	c0-4.7,0-8,0-8v0c0-2.2,1.8-4,4-4c0,0,3.4,0,8.2,0c1.1,0,2.5,0,3.8,0c0,0,0,0,0,0c1,0,2,0,3,0l0,0c1.9,0,3.7,0,5.2,0
	c1.1,0,2.1,0,3.1,0c3.2,0,5.2,0,5.2,0c1,0,2,0,3,0c1.2,0,2.4,0,3.4,0c4.9,0,8.2,0,8.2,0c1.9,0,3.5,1.4,3.9,3.2
	C883.5,132.1,883.5,132.3,883.5,132.6z M161.4,132.6v41.9c0,2.8,2.2,5,5,5h42.9c2.8,0,5-2.2,5-5v-41.9c0-2.8-2.2-5-5-5h-42.9
	C163.6,127.6,161.4,129.9,161.4,132.6z M213.3,132.6v41.9c0,2.2-1.8,4-4,4h-42.9c-2.2,0-4-1.8-4-4v-41.9c0-2.2,1.8-4,4-4h42.9
	C211.5,128.6,213.3,130.4,213.3,132.6z M879.5,8.1h-42.9c-2.8,0-5,2.2-5,5V55c0,2.8,2.2,5,5,5h42.9c2.8,0,5-2.2,5-5V13.1
	C884.5,10.4,882.2,8.1,879.5,8.1z M883.5,55c0,2.2-1.8,4-4,4h-42.9c-2.2,0-4-1.8-4-4V13.1c0-2.2,1.8-4,4-4h42.9c2.2,0,4,1.8,4,4V55z
	 M785.4,192.4v41.9c0,2.8,2.2,5,5,5h42.9c2.8,0,5-2.2,5-5v-41.9c0-2.8-2.2-5-5-5h-42.9C787.6,187.4,785.4,189.6,785.4,192.4z
	 M837.3,192.4v41.9c0,2.2-1.8,4-4,4h-42.9c-2.2,0-4-1.8-4-4v-41.9c0-2.2,1.8-4,4-4h42.9C835.5,188.4,837.3,190.2,837.3,192.4z
	 M775.7,60h42.9c2.8,0,5-2.2,5-5V13.1c0-2.8-2.2-5-5-5h-42.9c-2.8,0-5,2.2-5,5V55C770.7,57.8,772.9,60,775.7,60z M771.7,13.1
	c0-2.2,1.8-4,4-4h42.9c2.2,0,4,1.8,4,4V55c0,2.2-1.8,4-4,4h-42.9c-2.2,0-4-1.8-4-4V13.1z M818.4,127.6h-42.9c-2.8,0-5,2.2-5,5v41.9
	c0,2.8,2.2,5,5,5h42.9c2.8,0,5-2.2,5-5v-41.9C823.4,129.9,821.2,127.6,818.4,127.6z M822.4,174.5c0,2.2-1.8,4-4,4h-42.9
	c-2.2,0-4-1.8-4-4v-41.9c0-2.2,1.8-4,4-4h42.9c2.2,0,4,1.8,4,4V174.5z M879.5,67.9c0,0-3.4,0-8.2,0c-16.7,0-41.4,0-58,0
	c-4.9,0-8.2,0-8.2,0c-2.8,0-5,2.2-5,5c0,0,0,3.3,0,8c0,7.4,0,18.5,0,26c0,4.7,0,8,0,8c0,2.8,2.2,5,5,5c0,0,3.4,0,8.2,0
	c16.7,0,41.4,0,58,0c4.9,0,8.2,0,8.2,0c2.8,0,5-2.2,5-5c0,0,0-3.3,0-8c0-7.4,0-18.5,0-26c0-4.7,0-8,0-8
	C884.5,70.1,882.2,67.9,879.5,67.9z M883.5,80.9c0,7.4,0,18.5,0,26c0,4.7,0,8,0,8c0,2.2-1.8,4-4,4c0,0-3.4,0-8.2,0
	c-16.7,0-41.4,0-58,0c-4.9,0-8.2,0-8.2,0c-2.2,0-4-1.8-4-4c0,0,0-3.3,0-8c0-7.4,0-18.5,0-26c0-4.7,0-8,0-8c0-2.2,1.8-4,4-4
	c0,0,3.4,0,8.2,0c16.7,0,41.4,0,58,0c4.9,0,8.2,0,8.2,0c2.2,0,4,1.8,4,4C883.5,72.9,883.5,76.1,883.5,80.9z M89.8,299h42.9
	c2.8,0,5-2.2,5-5v-41.9c0-2.8-2.2-5-5-5H89.8c-2.8,0-5,2.2-5,5V294C84.8,296.8,87,299,89.8,299z M85.8,252.1c0-2.2,1.8-4,4-4h42.9
	c2.2,0,4,1.8,4,4V294c0,2.2-1.8,4-4,4H89.8c-2.2,0-4-1.8-4-4V252.1z M879.5,299c2.8,0,5-2.2,5-5c0,0,0-3.3,0-8c0-7.4,0-18.5,0-26
	c0-4.7,0-8,0-8c0-2.8-2.2-5-5-5c0,0-3.4,0-8.2,0c-29.7,0-73.5,0-103.2,0c-4.9,0-8.2,0-8.2,0c-2.8,0-5,2.2-5,5c0,0,0,3.3,0,8
	c0,7.4,0,18.5,0,26c0,4.7,0,8,0,8c0,2.8,2.2,5,5,5c0,0,3.4,0,8.2,0c29.7,0,73.5,0,103.2,0C876.1,299,879.5,299,879.5,299z
	 M759.9,298c-2.2,0-4-1.8-4-4c0,0,0-3.3,0-8c0-7.4,0-18.5,0-26c0-4.7,0-8,0-8c0-2.2,1.8-4,4-4c0,0,3.4,0,8.2,0
	c29.7,0,73.5,0,103.2,0c4.9,0,8.2,0,8.2,0c2.2,0,4,1.8,4,4c0,0,0,3.3,0,8c0,7.4,0,18.5,0,26c0,4.7,0,8,0,8c0,2.2-1.8,4-4,4
	c0,0-3.4,0-8.2,0c-29.7,0-73.5,0-103.2,0C763.2,298,759.9,298,759.9,298z M168.2,234.3v-41.9c0-2.8-2.2-5-5-5h-42.9
	c-2.8,0-5,2.2-5,5v41.9c0,2.8,2.2,5,5,5h42.9C165.9,239.3,168.2,237,168.2,234.3z M116.3,234.3v-41.9c0-2.2,1.8-4,4-4h42.9
	c2.2,0,4,1.8,4,4v41.9c0,2.2-1.8,4-4,4h-42.9C118.1,238.3,116.3,236.5,116.3,234.3z M150.7,299h42.9c2.8,0,5-2.2,5-5v-41.9
	c0-2.8-2.2-5-5-5h-42.9c-2.8,0-5,2.2-5,5V294C145.7,296.8,147.9,299,150.7,299z M146.7,252.1c0-2.2,1.8-4,4-4h42.9c2.2,0,4,1.8,4,4
	V294c0,2.2-1.8,4-4,4h-42.9c-2.2,0-4-1.8-4-4V252.1z M229.1,234.3v-41.9c0-2.8-2.2-5-5-5h-42.9c-2.8,0-5,2.2-5,5v41.9
	c0,2.8,2.2,5,5,5h42.9C226.9,239.3,229.1,237,229.1,234.3z M177.2,234.3v-41.9c0-2.2,1.8-4,4-4h42.9c2.2,0,4,1.8,4,4v41.9
	c0,2.2-1.8,4-4,4h-42.9C179,238.3,177.2,236.5,177.2,234.3z M559.1,306.9c0,0-3.4,0-8.2,0c-77.7,0-192.5,0-270.1,0
	c-4.9,0-8.2,0-8.2,0c-2.8,0-5,2.2-5,5c0,0,0,3.3,0,8c0,7.4,0,18.5,0,26c0,4.7,0,8,0,8c0,2.8,2.2,5,5,5c0,0,3.4,0,8.2,0
	c77.7,0,192.5,0,270.1,0c4.9,0,8.2,0,8.2,0c2.8,0,5-2.2,5-5c0,0,0-3.3,0-8c0-7.4,0-18.5,0-26c0-4.7,0-8,0-8
	C564.1,309.1,561.9,306.9,559.1,306.9z M563.1,319.9c0,7.4,0,18.5,0,26c0,4.7,0,8,0,8c0,2.2-1.8,4-4,4c0,0-3.4,0-8.2,0
	c-77.7,0-192.5,0-270.1,0c-4.9,0-8.2,0-8.2,0c-2.2,0-4-1.8-4-4c0,0,0-3.3,0-8c0-7.4,0-18.5,0-26c0-4.7,0-8,0-8c0-2.2,1.8-4,4-4
	c0,0,3.4,0,8.2,0c77.7,0,192.5,0,270.1,0c4.9,0,8.2,0,8.2,0c2.2,0,4,1.8,4,4C563.1,311.9,563.1,315.1,563.1,319.9z M116.9,67.9H74
	c-2.8,0-5,2.2-5,5v41.9c0,2.8,2.2,5,5,5h42.9c2.8,0,5-2.2,5-5V72.9C121.9,70.1,119.7,67.9,116.9,67.9z M120.9,114.8c0,2.2-1.8,4-4,4
	H74c-2.2,0-4-1.8-4-4V72.9c0-2.2,1.8-4,4-4h42.9c2.2,0,4,1.8,4,4V114.8z M13.1,127.6c-2.8,0-5,2.2-5,5c0,0,0,3.3,0,8
	c0,7.4,0,18.5,0,26c0,4.7,0,8,0,8c0,2.8,2.2,5,5,5c0,0,3.4,0,8.2,0c16.7,0,41.3,0,57.9,0c4.9,0,8.2,0,8.2,0c2.8,0,5-2.2,5-5
	c0,0,0-3.3,0-8c0-7.4,0-18.5,0-26c0-4.7,0-8,0-8c0-2.8-2.2-5-5-5c0,0-3.4,0-8.2,0c-16.7,0-41.3,0-57.9,0
	C16.4,127.6,13.1,127.6,13.1,127.6z M87.4,128.6c2.2,0,4,1.8,4,4c0,0,0,3.3,0,8c0,7.4,0,18.5,0,26c0,4.7,0,8,0,8c0,2.2-1.8,4-4,4
	c0,0-3.4,0-8.2,0c-16.7,0-41.3,0-57.9,0c-4.9,0-8.2,0-8.2,0c-2.2,0-4-1.8-4-4c0,0,0-3.3,0-8c0-7.4,0-18.5,0-26c0-4.7,0-8,0-8
	c0-2.2,1.8-4,4-4c0,0,3.4,0,8.2,0c16.7,0,41.3,0,57.9,0C84.1,128.6,87.4,128.6,87.4,128.6z M471.1,60H514c2.8,0,5-2.2,5-5V13.1
	c0-2.8-2.2-5-5-5h-42.9c-2.8,0-5,2.2-5,5V55C466.1,57.8,468.3,60,471.1,60z M467.1,13.1c0-2.2,1.8-4,4-4H514c2.2,0,4,1.8,4,4V55
	c0,2.2-1.8,4-4,4h-42.9c-2.2,0-4-1.8-4-4V13.1z M879.5,306.9h-42.9c-2.8,0-5,2.2-5,5v41.9c0,2.8,2.2,5,5,5h42.9c2.8,0,5-2.2,5-5
	v-41.9C884.5,309.1,882.2,306.9,879.5,306.9z M883.5,353.8c0,2.2-1.8,4-4,4h-42.9c-2.2,0-4-1.8-4-4v-41.9c0-2.2,1.8-4,4-4h42.9
	c2.2,0,4,1.8,4,4V353.8z M818.6,306.9c0,0-3.4,0-8.2,0c-7.6,0-18.9,0-26.5,0c-4.9,0-8.2,0-8.2,0c-2.8,0-5,2.2-5,5c0,0,0,3.3,0,8
	c0,1,0,2.4,0,3.4c0,2.3,0,4.3,0,5.7c0,1.4,0,2.3,0,2.3c0,4.5,0,13.7,0,14.6c0,4.7,0,8,0,8c0,2.8,2.2,5,5,5c0,0,3.4,0,8.2,0
	c7.6,0,18.9,0,26.5,0c4.9,0,8.2,0,8.2,0c2.8,0,5-2.2,5-5c0,0,0-3.3,0-8c0-0.9,0-10.2,0-14.6c0,0,0-0.8,0-2.3c0-1.4,0-3.4,0-5.7
	c0-1,0-2.4,0-3.4c0-4.7,0-8,0-8C823.6,309.1,821.3,306.9,818.6,306.9z M822.6,345.8c0,4.7,0,8,0,8c0,2.2-1.8,4-4,4c0,0-3.4,0-8.2,0
	c-7.6,0-18.9,0-26.5,0c-4.9,0-8.2,0-8.2,0c-2.2,0-4-1.8-4-4v-20.5h50.9C822.6,333.3,822.6,345.4,822.6,345.8z M822.6,332.3h-0.2
	h-50.7v-20.5c0-2.2,1.8-4,4-4c0,0,3.4,0,8.2,0c7.6,0,18.9,0,26.5,0c4.9,0,8.2,0,8.2,0c2.2,0,4,1.8,4,4V332.3z M166.5,60h42.9
	c2.8,0,5-2.2,5-5V13.1c0-2.8-2.2-5-5-5h-42.9c-2.8,0-5,2.2-5,5V55C161.5,57.8,163.7,60,166.5,60z M162.5,13.1c0-2.2,1.8-4,4-4h42.9
	c2.2,0,4,1.8,4,4V55c0,2.2-1.8,4-4,4h-42.9c-2.2,0-4-1.8-4-4V13.1z M655.5,234.3v-41.9c0-2.8-2.2-5-5-5h-42.9c-2.8,0-5,2.2-5,5v41.9
	c0,2.8,2.2,5,5,5h42.9C653.3,239.3,655.5,237,655.5,234.3z M603.6,234.3v-41.9c0-2.2,1.8-4,4-4h42.9c2.2,0,4,1.8,4,4v41.9
	c0,2.2-1.8,4-4,4h-42.9C605.4,238.3,603.6,236.5,603.6,234.3z M227.4,60h42.9c2.8,0,5-2.2,5-5V13.1c0-2.8-2.2-5-5-5h-42.9
	c-2.8,0-5,2.2-5,5V55C222.4,57.8,224.6,60,227.4,60z M223.4,13.1c0-2.2,1.8-4,4-4h42.9c2.2,0,4,1.8,4,4V55c0,2.2-1.8,4-4,4h-42.9
	c-2.2,0-4-1.8-4-4V13.1z M577.1,299H620c2.8,0,5-2.2,5-5v-41.9c0-2.8-2.2-5-5-5h-42.9c-2.8,0-5,2.2-5,5V294
	C572.1,296.8,574.3,299,577.1,299z M573.1,252.1c0-2.2,1.8-4,4-4H620c2.2,0,4,1.8,4,4V294c0,2.2-1.8,4-4,4h-42.9c-2.2,0-4-1.8-4-4
	V252.1z M716.4,234.3v-41.9c0-2.8-2.2-5-5-5h-42.9c-2.8,0-5,2.2-5,5v41.9c0,2.8,2.2,5,5,5h42.9C714.2,239.3,716.4,237,716.4,234.3z
	 M664.5,234.3v-41.9c0-2.2,1.8-4,4-4h42.9c2.2,0,4,1.8,4,4v41.9c0,2.2-1.8,4-4,4h-42.9C666.3,238.3,664.5,236.5,664.5,234.3z
	 M638,299h42.9c2.8,0,5-2.2,5-5v-41.9c0-2.8-2.2-5-5-5H638c-2.8,0-5,2.2-5,5V294C633,296.8,635.3,299,638,299z M634,252.1
	c0-2.2,1.8-4,4-4h42.9c2.2,0,4,1.8,4,4V294c0,2.2-1.8,4-4,4H638c-2.2,0-4-1.8-4-4V252.1z M587.8,132.6v41.9c0,2.8,2.2,5,5,5h42.9
	c2.8,0,5-2.2,5-5v-41.9c0-2.8-2.2-5-5-5h-42.9C590,127.6,587.8,129.9,587.8,132.6z M639.7,132.6v41.9c0,2.2-1.8,4-4,4h-42.9
	c-2.2,0-4-1.8-4-4v-41.9c0-2.2,1.8-4,4-4h42.9C637.9,128.6,639.7,130.4,639.7,132.6z M12.9,60c0,0,3.4,0,8.2,0c16.7,0,41.4,0,58.2,0
	c4.9,0,8.2,0,8.2,0c2.8,0,5-2.2,5-5c0,0,0-3.3,0-8c0-7.4,0-18.5,0-26c0-4.7,0-8,0-8c0-2.8-2.2-5-5-5c0,0-3.4,0-8.2,0
	c-16.7,0-41.4,0-58.2,0c-4.9,0-8.2,0-8.2,0c-2.8,0-5,2.2-5,5c0,0,0,3.3,0,8c0,7.4,0,18.5,0,26c0,4.7,0,8,0,8
	C7.9,57.8,10.2,60,12.9,60z M8.9,47.1c0-7.4,0-18.5,0-26c0-4.7,0-8,0-8c0-2.2,1.8-4,4-4c0,0,3.4,0,8.2,0c16.7,0,41.4,0,58.2,0
	c4.9,0,8.2,0,8.2,0c2.2,0,4,1.8,4,4c0,0,0,3.3,0,8c0,7.4,0,18.5,0,26c0,4.7,0,8,0,8c0,2.2-1.8,4-4,4c0,0-3.4,0-8.2,0
	c-16.7,0-41.4,0-58.2,0c-4.9,0-8.2,0-8.2,0c-2.2,0-4-1.8-4-4C8.9,55,8.9,51.8,8.9,47.1z M604.2,67.9h-42.9c-2.8,0-5,2.2-5,5v41.9
	c0,2.8,2.2,5,5,5h42.9c2.8,0,5-2.2,5-5V72.9C609.2,70.1,607,67.9,604.2,67.9z M608.2,114.8c0,2.2-1.8,4-4,4h-42.9c-2.2,0-4-1.8-4-4
	V72.9c0-2.2,1.8-4,4-4h42.9c2.2,0,4,1.8,4,4V114.8z M546.7,239.3h42.9c2.8,0,5-2.2,5-5v-41.9c0-2.8-2.2-5-5-5h-42.9
	c-2.8,0-5,2.2-5,5v41.9C541.7,237,543.9,239.3,546.7,239.3z M542.7,192.4c0-2.2,1.8-4,4-4h42.9c2.2,0,4,1.8,4,4v41.9
	c0,2.2-1.8,4-4,4h-42.9c-2.2,0-4-1.8-4-4V192.4z M665.1,67.9h-42.9c-2.8,0-5,2.2-5,5v41.9c0,2.8,2.2,5,5,5h42.9c2.8,0,5-2.2,5-5
	V72.9C670.1,70.1,667.9,67.9,665.1,67.9z M669.1,114.8c0,2.2-1.8,4-4,4h-42.9c-2.2,0-4-1.8-4-4V72.9c0-2.2,1.8-4,4-4h42.9
	c2.2,0,4,1.8,4,4V114.8z M105.6,60h42.9c2.8,0,5-2.2,5-5V13.1c0-2.8-2.2-5-5-5h-42.9c-2.8,0-5,2.2-5,5V55
	C100.6,57.8,102.8,60,105.6,60z M101.6,13.1c0-2.2,1.8-4,4-4h42.9c2.2,0,4,1.8,4,4V55c0,2.2-1.8,4-4,4h-42.9c-2.2,0-4-1.8-4-4V13.1z
	 M714.7,60h42.9c2.8,0,5-2.2,5-5V13.1c0-2.8-2.2-5-5-5h-42.9c-2.8,0-5,2.2-5,5V55C709.7,57.8,712,60,714.7,60z M710.7,13.1
	c0-2.2,1.8-4,4-4h42.9c2.2,0,4,1.8,4,4V55c0,2.2-1.8,4-4,4h-42.9c-2.2,0-4-1.8-4-4V13.1z M410.2,60h42.9c2.8,0,5-2.2,5-5V13.1
	c0-2.8-2.2-5-5-5h-42.9c-2.8,0-5,2.2-5,5V55C405.2,57.8,407.4,60,410.2,60z M406.2,13.1c0-2.2,1.8-4,4-4h42.9c2.2,0,4,1.8,4,4V55
	c0,2.2-1.8,4-4,4h-42.9c-2.2,0-4-1.8-4-4V13.1z M653.8,60h42.9c2.8,0,5-2.2,5-5V13.1c0-2.8-2.2-5-5-5h-42.9c-2.8,0-5,2.2-5,5V55
	C648.8,57.8,651.1,60,653.8,60z M649.8,13.1c0-2.2,1.8-4,4-4h42.9c2.2,0,4,1.8,4,4V55c0,2.2-1.8,4-4,4h-42.9c-2.2,0-4-1.8-4-4V13.1z
	 M532,60h42.9c2.8,0,5-2.2,5-5V13.1c0-2.8-2.2-5-5-5H532c-2.8,0-5,2.2-5,5V55C527,57.8,529.2,60,532,60z M528,13.1c0-2.2,1.8-4,4-4
	h42.9c2.2,0,4,1.8,4,4V55c0,2.2-1.8,4-4,4H532c-2.2,0-4-1.8-4-4V13.1z M592.9,60h42.9c2.8,0,5-2.2,5-5V13.1c0-2.8-2.2-5-5-5h-42.9
	c-2.8,0-5,2.2-5,5V55C587.9,57.8,590.1,60,592.9,60z M588.9,13.1c0-2.2,1.8-4,4-4h42.9c2.2,0,4,1.8,4,4V55c0,2.2-1.8,4-4,4h-42.9
	c-2.2,0-4-1.8-4-4V13.1z M349.2,60h42.9c2.8,0,5-2.2,5-5V13.1c0-2.8-2.2-5-5-5h-42.9c-2.8,0-5,2.2-5,5V55
	C344.2,57.8,346.5,60,349.2,60z M345.2,13.1c0-2.2,1.8-4,4-4h42.9c2.2,0,4,1.8,4,4V55c0,2.2-1.8,4-4,4h-42.9c-2.2,0-4-1.8-4-4V13.1z
	 M288.3,60h42.9c2.8,0,5-2.2,5-5V13.1c0-2.8-2.2-5-5-5h-42.9c-2.8,0-5,2.2-5,5V55C283.3,57.8,285.6,60,288.3,60z M284.3,13.1
	c0-2.2,1.8-4,4-4h42.9c2.2,0,4,1.8,4,4V55c0,2.2-1.8,4-4,4h-42.9c-2.2,0-4-1.8-4-4V13.1z M777.4,234.3v-41.9c0-2.8-2.2-5-5-5h-42.9
	c-2.8,0-5,2.2-5,5v41.9c0,2.8,2.2,5,5,5h42.9C775.1,239.3,777.4,237,777.4,234.3z M725.4,234.3v-41.9c0-2.2,1.8-4,4-4h42.9
	c2.2,0,4,1.8,4,4v41.9c0,2.2-1.8,4-4,4h-42.9C727.2,238.3,725.4,236.5,725.4,234.3z M698.9,299h42.9c2.8,0,5-2.2,5-5v-41.9
	c0-2.8-2.2-5-5-5h-42.9c-2.8,0-5,2.2-5,5V294C693.9,296.8,696.2,299,698.9,299z M694.9,252.1c0-2.2,1.8-4,4-4h42.9c2.2,0,4,1.8,4,4
	V294c0,2.2-1.8,4-4,4h-42.9c-2.2,0-4-1.8-4-4V252.1z M787,67.9h-42.9c-2.8,0-5,2.2-5,5v41.9c0,2.8,2.2,5,5,5H787c2.8,0,5-2.2,5-5
	V72.9C792,70.1,789.7,67.9,787,67.9z M791,114.8c0,2.2-1.8,4-4,4h-42.9c-2.2,0-4-1.8-4-4V72.9c0-2.2,1.8-4,4-4H787c2.2,0,4,1.8,4,4
	V114.8z M13.1,119.8H56c2.8,0,5-2.2,5-5V72.9c0-2.8-2.2-5-5-5H13.1c-2.8,0-5,2.2-5,5v41.9C8.1,117.5,10.3,119.8,13.1,119.8z
	 M9.1,72.9c0-2.2,1.8-4,4-4H56c2.2,0,4,1.8,4,4v41.9c0,2.2-1.8,4-4,4H13.1c-2.2,0-4-1.8-4-4V72.9z M350.9,234.3v-41.9
	c0-2.8-2.2-5-5-5H303c-2.8,0-5,2.2-5,5v41.9c0,2.8,2.2,5,5,5h42.9C348.7,239.3,350.9,237,350.9,234.3z M299,234.3v-41.9
	c0-2.2,1.8-4,4-4h42.9c2.2,0,4,1.8,4,4v41.9c0,2.2-1.8,4-4,4H303C300.8,238.3,299,236.5,299,234.3z M177.8,306.9h-42.9
	c-2.8,0-5,2.2-5,5v41.9c0,2.8,2.2,5,5,5h42.9c2.8,0,5-2.2,5-5v-41.9C182.8,309.1,180.6,306.9,177.8,306.9z M181.8,353.8
	c0,2.2-1.8,4-4,4h-42.9c-2.2,0-4-1.8-4-4v-41.9c0-2.2,1.8-4,4-4h42.9c2.2,0,4,1.8,4,4V353.8z M333.4,299h42.9c2.8,0,5-2.2,5-5v-41.9
	c0-2.8-2.2-5-5-5h-42.9c-2.8,0-5,2.2-5,5V294C328.4,296.8,330.7,299,333.4,299z M329.4,252.1c0-2.2,1.8-4,4-4h42.9c2.2,0,4,1.8,4,4
	V294c0,2.2-1.8,4-4,4h-42.9c-2.2,0-4-1.8-4-4V252.1z M411.9,234.3v-41.9c0-2.8-2.2-5-5-5h-42.9c-2.8,0-5,2.2-5,5v41.9
	c0,2.8,2.2,5,5,5h42.9C409.6,239.3,411.9,237,411.9,234.3z M359.9,234.3v-41.9c0-2.2,1.8-4,4-4h42.9c2.2,0,4,1.8,4,4v41.9
	c0,2.2-1.8,4-4,4h-42.9C361.7,238.3,359.9,236.5,359.9,234.3z M394.4,299h42.9c2.8,0,5-2.2,5-5v-41.9c0-2.8-2.2-5-5-5h-42.9
	c-2.8,0-5,2.2-5,5V294C389.4,296.8,391.6,299,394.4,299z M390.4,252.1c0-2.2,1.8-4,4-4h42.9c2.2,0,4,1.8,4,4V294c0,2.2-1.8,4-4,4
	h-42.9c-2.2,0-4-1.8-4-4V252.1z M254.5,247.1h-42.9c-2.8,0-5,2.2-5,5V294c0,2.8,2.2,5,5,5h42.9c2.8,0,5-2.2,5-5v-41.9
	C259.5,249.4,257.3,247.1,254.5,247.1z M258.5,294c0,2.2-1.8,4-4,4h-42.9c-2.2,0-4-1.8-4-4v-41.9c0-2.2,1.8-4,4-4h42.9
	c2.2,0,4,1.8,4,4V294z M116.9,306.9H74c-2.8,0-5,2.2-5,5v41.9c0,2.8,2.2,5,5,5h42.9c2.8,0,5-2.2,5-5v-41.9
	C121.9,309.1,119.7,306.9,116.9,306.9z M120.9,353.8c0,2.2-1.8,4-4,4H74c-2.2,0-4-1.8-4-4v-41.9c0-2.2,1.8-4,4-4h42.9
	c2.2,0,4,1.8,4,4V353.8z M242.1,239.3H285c2.8,0,5-2.2,5-5v-41.9c0-2.8-2.2-5-5-5h-42.9c-2.8,0-5,2.2-5,5v41.9
	C237.1,237,239.3,239.3,242.1,239.3z M238.1,192.4c0-2.2,1.8-4,4-4H285c2.2,0,4,1.8,4,4v41.9c0,2.2-1.8,4-4,4h-42.9
	c-2.2,0-4-1.8-4-4V192.4z M254.5,306.9c0,0-3.4,0-8.2,0c-12.1,0-30.1,0-42.2,0c-4.9,0-8.2,0-8.2,0c-2.8,0-5,2.2-5,5c0,0,0,3.3,0,8
	c0,7.4,0,18.5,0,26c0,4.7,0,8,0,8c0,2.8,2.2,5,5,5c0,0,3.4,0,8.2,0c12.1,0,30.1,0,42.2,0c4.9,0,8.2,0,8.2,0c2.8,0,5-2.2,5-5
	c0,0,0-3.3,0-8c0-7.4,0-18.5,0-26c0-4.7,0-8,0-8C259.5,309.1,257.3,306.9,254.5,306.9z M258.5,319.9c0,7.4,0,18.5,0,26
	c0,4.7,0,8,0,8c0,2.2-1.8,4-4,4c0,0-3.4,0-8.2,0c-12.1,0-30.1,0-42.2,0c-4.9,0-8.2,0-8.2,0c-2.2,0-4-1.8-4-4c0,0,0-3.3,0-8
	c0-7.4,0-18.5,0-26c0-4.7,0-8,0-8c0-2.2,1.8-4,4-4c0,0,3.4,0,8.2,0c12.1,0,30.1,0,42.2,0c4.9,0,8.2,0,8.2,0c2.2,0,4,1.8,4,4
	C258.5,311.9,258.5,315.1,258.5,319.9z M272.5,299h42.9c2.8,0,5-2.2,5-5v-41.9c0-2.8-2.2-5-5-5h-42.9c-2.8,0-5,2.2-5,5V294
	C267.5,296.8,269.8,299,272.5,299z M268.5,252.1c0-2.2,1.8-4,4-4h42.9c2.2,0,4,1.8,4,4V294c0,2.2-1.8,4-4,4h-42.9c-2.2,0-4-1.8-4-4
	V252.1z M299.6,67.9h-42.9c-2.8,0-5,2.2-5,5v41.9c0,2.8,2.2,5,5,5h42.9c2.8,0,5-2.2,5-5V72.9C304.6,70.1,302.4,67.9,299.6,67.9z
	 M303.6,114.8c0,2.2-1.8,4-4,4h-42.9c-2.2,0-4-1.8-4-4V72.9c0-2.2,1.8-4,4-4h42.9c2.2,0,4,1.8,4,4V114.8z M709.6,132.6v41.9
	c0,2.8,2.2,5,5,5h42.9c2.8,0,5-2.2,5-5v-41.9c0-2.8-2.2-5-5-5h-42.9C711.9,127.6,709.6,129.9,709.6,132.6z M761.5,132.6v41.9
	c0,2.2-1.8,4-4,4h-42.9c-2.2,0-4-1.8-4-4v-41.9c0-2.2,1.8-4,4-4h42.9C759.7,128.6,761.5,130.4,761.5,132.6z M472.8,234.3v-41.9
	c0-2.8-2.2-5-5-5h-42.9c-2.8,0-5,2.2-5,5v41.9c0,2.8,2.2,5,5,5h42.9C470.5,239.3,472.8,237,472.8,234.3z M420.9,234.3v-41.9
	c0-2.2,1.8-4,4-4h42.9c2.2,0,4,1.8,4,4v41.9c0,2.2-1.8,4-4,4h-42.9C422.6,238.3,420.9,236.5,420.9,234.3z M283.2,132.6v41.9
	c0,2.8,2.2,5,5,5h42.9c2.8,0,5-2.2,5-5v-41.9c0-2.8-2.2-5-5-5h-42.9C285.4,127.6,283.2,129.9,283.2,132.6z M335.1,132.6v41.9
	c0,2.2-1.8,4-4,4h-42.9c-2.2,0-4-1.8-4-4v-41.9c0-2.2,1.8-4,4-4h42.9C333.3,128.6,335.1,130.4,335.1,132.6z M648.7,132.6v41.9
	c0,2.8,2.2,5,5,5h42.9c2.8,0,5-2.2,5-5v-41.9c0-2.8-2.2-5-5-5h-42.9C650.9,127.6,648.7,129.9,648.7,132.6z M700.6,132.6v41.9
	c0,2.2-1.8,4-4,4h-42.9c-2.2,0-4-1.8-4-4v-41.9c0-2.2,1.8-4,4-4h42.9C698.8,128.6,700.6,130.4,700.6,132.6z M56,306.9H13.1
	c-2.8,0-5,2.2-5,5v41.9c0,2.8,2.2,5,5,5H56c2.8,0,5-2.2,5-5v-41.9C61,309.1,58.7,306.9,56,306.9z M60,353.8c0,2.2-1.8,4-4,4H13.1
	c-2.2,0-4-1.8-4-4v-41.9c0-2.2,1.8-4,4-4H56c2.2,0,4,1.8,4,4V353.8z M726.1,67.9h-42.9c-2.8,0-5,2.2-5,5v41.9c0,2.8,2.2,5,5,5h42.9
	c2.8,0,5-2.2,5-5V72.9C731.1,70.1,728.8,67.9,726.1,67.9z M730.1,114.8c0,2.2-1.8,4-4,4h-42.9c-2.2,0-4-1.8-4-4V72.9
	c0-2.2,1.8-4,4-4h42.9c2.2,0,4,1.8,4,4V114.8z M76.8,294c0,0,0-3.3,0-8c0-7.4,0-18.5,0-26c0-4.7,0-8,0-8c0-2.8-2.2-5-5-5
	c0,0-3.4,0-8.2,0c-12.1,0-30.1,0-42.2,0c-4.9,0-8.2,0-8.2,0c-2.8,0-5,2.2-5,5c0,0,0,3.3,0,8c0,7.4,0,18.5,0,26c0,4.7,0,8,0,8
	c0,2.8,2.2,5,5,5c0,0,3.4,0,8.2,0c12.1,0,30.1,0,42.2,0c4.9,0,8.2,0,8.2,0C74.5,299,76.8,296.8,76.8,294z M21.3,298
	c-4.9,0-8.2,0-8.2,0c-2.2,0-4-1.8-4-4c0,0,0-3.3,0-8c0-7.4,0-18.5,0-26c0-4.7,0-8,0-8c0-2.2,1.8-4,4-4c0,0,3.4,0,8.2,0
	c12.1,0,30.1,0,42.2,0c4.9,0,8.2,0,8.2,0c2.2,0,4,1.8,4,4c0,0,0,3.3,0,8c0,7.4,0,18.5,0,26c0,4.7,0,8,0,8c0,2.2-1.8,4-4,4
	c0,0-3.4,0-8.2,0C51.4,298,33.4,298,21.3,298z M579.8,174.5v-41.9c0-2.8-2.2-5-5-5h-42.9c-2.8,0-5,2.2-5,5v41.9c0,2.8,2.2,5,5,5
	h42.9C577.5,179.5,579.8,177.3,579.8,174.5z M527.9,174.5v-41.9c0-2.2,1.8-4,4-4h42.9c2.2,0,4,1.8,4,4v41.9c0,2.2-1.8,4-4,4h-42.9
	C529.7,178.5,527.9,176.7,527.9,174.5z M455.3,299h42.9c2.8,0,5-2.2,5-5v-41.9c0-2.8-2.2-5-5-5h-42.9c-2.8,0-5,2.2-5,5V294
	C450.3,296.8,452.5,299,455.3,299z M451.3,252.1c0-2.2,1.8-4,4-4h42.9c2.2,0,4,1.8,4,4V294c0,2.2-1.8,4-4,4h-42.9c-2.2,0-4-1.8-4-4
	V252.1z M533.7,234.3v-41.9c0-2.8-2.2-5-5-5h-42.9c-2.8,0-5,2.2-5,5v41.9c0,2.8,2.2,5,5,5h42.9C531.4,239.3,533.7,237,533.7,234.3z
	 M481.8,234.3v-41.9c0-2.2,1.8-4,4-4h42.9c2.2,0,4,1.8,4,4v41.9c0,2.2-1.8,4-4,4h-42.9C483.6,238.3,481.8,236.5,481.8,234.3z"/>
<g id="Arrowkey_shadows_1_">
	<linearGradient id="SVGID_1_" gradientUnits="userSpaceOnUse" x1="797.1025" y1="332.3325" x2="797.1025" y2="326.8434">
		<stop  offset="0" style="stop-color:#000000"/>
		<stop  offset="3.297776e-02" style="stop-color:#121212"/>
		<stop  offset="0.1376" style="stop-color:#474647"/>
		<stop  offset="0.2466" style="stop-color:#757475"/>
		<stop  offset="0.3579" style="stop-color:#9C9B9C"/>
		<stop  offset="0.472" style="stop-color:#BCBBBC"/>
		<stop  offset="0.5898" style="stop-color:#D5D4D5"/>
		<stop  offset="0.7128" style="stop-color:#E6E5E6"/>
		<stop  offset="0.8445" style="stop-color:#F1F0F1"/>
		<stop  offset="1" style="stop-color:#F4F3F4"/>
	</linearGradient>
	<rect x="771.6" y="326.8" class="st4" width="50.9" height="5.5"/>

		<linearGradient id="SVGID_2_" gradientUnits="userSpaceOnUse" x1="797.1025" y1="-677.5125" x2="797.1025" y2="-683.0016" gradientTransform="matrix(-1 0 0 -1 1594.2051 -344.181)">
		<stop  offset="0" style="stop-color:#000000"/>
		<stop  offset="3.297776e-02" style="stop-color:#121212"/>
		<stop  offset="0.1376" style="stop-color:#474647"/>
		<stop  offset="0.2466" style="stop-color:#757475"/>
		<stop  offset="0.3579" style="stop-color:#9C9B9C"/>
		<stop  offset="0.472" style="stop-color:#BCBBBC"/>
		<stop  offset="0.5898" style="stop-color:#D5D4D5"/>
		<stop  offset="0.7128" style="stop-color:#E6E5E6"/>
		<stop  offset="0.8445" style="stop-color:#F1F0F1"/>
		<stop  offset="1" style="stop-color:#F4F3F4"/>
	</linearGradient>
	<polygon class="st5" points="771.6,333.3 822.6,333.3 822.6,338.8 771.6,338.8 	"/>
</g>
</svg>
