<svg xmlns="http://www.w3.org/2000/svg" width="228" height="228" viewBox="0 0 228 228"><title>fifa98_disc</title><path d="M114,0A114,114,0,1,0,228,114,114,114,0,0,0,114,0Zm0,138.709A24.709,24.709,0,1,1,138.709,114,24.71,24.71,0,0,1,114,138.709Z" style="fill:#62626a"/><path d="M114,2.094A111.906,111.906,0,1,0,225.906,114,111.906,111.906,0,0,0,114,2.094Zm0,136.615A24.709,24.709,0,1,1,138.709,114,24.71,24.71,0,0,1,114,138.709Z" style="fill:#f4f5f7"/><path d="M114,89.291A24.709,24.709,0,1,0,138.709,114,24.71,24.71,0,0,0,114,89.291Zm0,40.142A15.433,15.433,0,1,1,129.433,114,15.432,15.432,0,0,1,114,129.433Z" style="fill:#fff;opacity:0.5"/><path d="M200,95.719H170.426V94.2H200Zm5.587,2.089H170.426v1.518H205.59Zm8.41,3.606H170.426v1.518H214Zm-.853,3.606H170.426v1.518h42.721Zm-8.349,3.607H170.426v1.518H204.8Zm-1.707,3.606H170.426v1.518h32.665Zm7.131,3.606h-39.8v1.519h39.8Zm-4.327,3.607H170.426v1.518H205.9Zm-8.045,10.819H170.426v1.518H197.85Zm12.737-7.213H170.426v1.518h40.161Zm-1.645,3.607H170.426v1.518h38.516Z" style="fill:#9fa0a6"/><path d="M109.656,200.045c-.018-.549-.106-.655-.6-.655h-1.1v2.141h.5v-.743l.743.743h.62L109,200.77C109.408,200.682,109.656,200.611,109.656,200.045Zm-1.2.3v-.585h.512c.195,0,.231.054.231.248,0,.248.018.337-.231.337Zm-3.24-.939H106.9v.5h-.566v1.646h-.567V199.9h-.549Zm-4.955,1.664h.99v.478H99.691v-2.142h1.54v.46h-.973v.39h.9v.407h-.9Zm4-.973v.071h-.585V200.1c-.017-.2-.159-.213-.353-.213-.318,0-.354.106-.354.407v.337c0,.318.017.442.354.442.247,0,.353-.018.353-.283v-.053h.585v.053a.7.7,0,0,1-.195.62.976.976,0,0,1-.672.141c-.585,0-1.01-.018-1.01-.8V200.2c0-.708.39-.814,1.01-.814C103.974,199.39,104.239,199.46,104.258,200.1Zm-6.531.955h.885v.5H97.16v-2.142h.567Zm-2.762.018h.992v.478H94.4v-2.142h1.541v.46h-.974v.39h.9v.407h-.9Zm33.435-1.026c0-.549-.088-.655-.584-.655H126.7v2.141h.5v-.743l.762.743h.619l-.814-.761C128.17,200.682,128.418,200.611,128.4,200.045Zm-1.2.3v-.585h.531c.177,0,.231.054.231.248,0,.248.018.337-.231.337Zm2.3-.939h1.681v.5h-.567v1.646h-.566V199.9H129.5Zm-5.293,0-.637,2.142h.585l.1-.371h.762l.106.371h.584l-.655-2.142Zm.177,1.345.248-.92h.018l.265.92Zm8.656.8c-.531,0-.9,0-.9-.708h.549c0,.23.071.248.354.248.265,0,.353-.018.353-.195s-.035-.176-.3-.194l-.124-.018c-.514-.036-.832-.036-.832-.637,0-.62.354-.655.9-.655.46,0,.867.017.867.6v.089h-.549c0-.213-.088-.213-.318-.213-.3,0-.336.054-.336.178,0,.159.088.176.247.176l.231.018h0c.618.053.778.124.778.619C133.958,201.213,133.976,201.549,133.038,201.549ZM111.78,199.39c-.566,0-.973.124-.973.779v.6c0,.655.407.779.973.779.584,0,.991-.124.991-.779v-.6C112.771,199.514,112.364,199.39,111.78,199.39Zm.407,1.328c0,.318-.106.353-.407.353-.283,0-.389-.035-.389-.353v-.479c0-.318.106-.354.389-.354.3,0,.407.036.407.354Zm8.585-.62v.071h-.585V200.1c-.017-.2-.159-.213-.353-.213-.319,0-.354.106-.354.407v.337c0,.318.018.442.354.442.247,0,.353-.018.353-.283v-.053h.585v.053a.7.7,0,0,1-.2.62.979.979,0,0,1-.673.141c-.583,0-1.008-.018-1.008-.8V200.2c0-.708.389-.814,1.008-.814C120.488,199.39,120.754,199.46,120.772,200.1Zm-5.346-.691h.585v2.142h-.974l-.6-1.646h-.018l.018,1.646h-.548v-2.142h.955l.6,1.646h.018Zm1.77,0h.585v2.142H117.2Z"/><path d="M100.388,195.433v.843c0,1.25-.4,1.651-1.648,1.651H96.6c-1.247,0-1.648-.4-1.648-1.651v-.5h1.155v1.073h3.128v-1.986H96.6a1.778,1.778,0,0,1-1.291-.327,1.754,1.754,0,0,1-.357-1.323V192.6c0-1.323.385-1.727,1.648-1.727h1.989c1.3,0,1.724.383,1.724,1.574v.5H99.233v-1H96.105v1.833H98.74C99.988,193.782,100.388,194.183,100.388,195.433Zm20.413-3.484h2.3v5.978h1.23v-5.978h2.37V190.87H120.8Zm10.29,1.833h-2.635v-1.833h3.127v1h1.079v-.5a1.582,1.582,0,0,0-.386-1.257,1.826,1.826,0,0,0-1.262-.317h-1.989c-1.293,0-1.647.372-1.647,1.727v.614c0,1.326.323,1.65,1.647,1.65h2.636v1.986h-3.436v-1.073h-1.153v.5c0,1.25.4,1.651,1.647,1.651h2.372a1.742,1.742,0,0,0,1.32-.358,1.777,1.777,0,0,0,.328-1.293v-.843a1.777,1.777,0,0,0-.328-1.293A1.742,1.742,0,0,0,131.091,193.782Zm-24.356-1.492v1.533c0,1-.447,1.422-1.5,1.422h-2.711v2.682H101.3V190.87h3.942C106.288,190.87,106.735,191.3,106.735,192.29Zm-1.23.231c0-.485-.182-.648-.723-.648h-2.253v2.369h2.253l.087,0h.018l.069,0,.026,0,.059-.008.022,0,.06-.013.007,0c.277-.076.375-.278.375-.687Zm8.19.076v3.679c0,1.25-.4,1.651-1.647,1.651h-2.831c-1.247,0-1.647-.4-1.647-1.651V192.6c0-1.323.385-1.727,1.647-1.727h2.831C113.31,190.87,113.7,191.274,113.7,192.6Zm-1.231-.724H108.8v4.974h3.664Zm5.282,3.372,3.123,2.608-.027.074h-1.776l-2.829-2.682h-.248v2.682h-1.306V190.87H118.7c1.048,0,1.5.425,1.5,1.42v1.533a1.409,1.409,0,0,1-.368,1.094,1.606,1.606,0,0,1-1.127.328Zm.5-1c.478,0,.647-.17.647-.649v-1.072c0-.479-.169-.648-.647-.648h-2.253v2.369Zm15.605,3.184h-.382v.128h.128v.478h.127v-.478h.127Zm.6,0h-.1l-.159.383-.158-.383h-.1l-.1.606h.128l.064-.35.127.382h.063l.127-.382.064.35h.127Z" style="fill:#005aa9"/><path d="M97.964,178.553h12.184l-2.329,3.623h-3.474l-2.21,3.425h11.254l-2.893-7.048h6.832l4.87-7.1,10.674,18.069h-4.405l-6.386-10.54-2.443,3.192h-3.59l1.629,3.54-2.327,3.46H95.42l4.054-7H95.651l2.313-3.623Zm4.636-7.215-2.543,3.94H115.93l2.312-3.94H102.6" style="fill:#ec1c24"/><path d="M54.1,105.338c-.018-.157-.031-.555-.033-.957s.015-.8.033-.957c.055-.482-.135-.943,1.627-.943s1.573.461,1.628.943c.01.094.02.274.026.49h-.95c0-.114-.006-.208-.01-.241-.027-.241,0-.355-.7-.355s-.667.114-.7.355c-.009.078-.015.507-.016.708s.007.63.016.708c.028.241,0,.355.7.355s.668-.114.7-.355c0-.031.007-.119.01-.226h.949c-.006.209-.015.383-.025.475-.055.482.135.943-1.628.943S54.157,105.82,54.1,105.338ZM42.846,103.5l.927,2.71H44.7l.92-2.71v2.71h.927V102.57l-1.387.007-.928,2.71-.927-2.71-1.388-.007v3.637h.928Zm14.746-.927v.927h.869v2.71h.927V103.5h.87v-.927Zm-7.151,3.637,1.064-3.641h1.383l1.066,3.641h-.927l-.219-.752H51.591l.016-.057-.238.809Zm1.324-1.344h.868L52.2,103.38Zm-13.707.475c-.018-.157-.031-.555-.033-.957s.015-.8.033-.957c.055-.482-.135-.943,1.627-.943h0c1.763,0,1.573.461,1.628.943.017.157.034.555.032.957s-.015.8-.032.957c-.055.482.135.944-1.628.944S38.113,105.82,38.058,105.338Zm.931-.249c.028.241,0,.355.7.355s.668-.114.7-.355c.009-.078.017-.507.016-.708s-.007-.63-.016-.708c-.027-.241,0-.355-.7-.355s-.667.114-.7.355c-.009.078-.015.507-.016.708S38.98,105.011,38.989,105.089Zm-3.14,1.192c1.762,0,1.572-.461,1.627-.943.01-.092.019-.266.025-.475h-.949c0,.107-.006.2-.009.226-.028.241,0,.355-.7.355s-.668-.114-.7-.355c-.009-.078-.018-.507-.017-.708s.008-.63.017-.708c.027-.241,0-.355.7-.355s.667.114.7.355c0,.033.007.127.009.241H37.5c-.006-.216-.016-.4-.027-.49-.055-.482.135-.943-1.627-.943s-1.573.461-1.628.943c-.017.157-.034.555-.032.957s.015.8.032.957C34.276,105.82,34.086,106.281,35.849,106.281Zm12.4-.078h-.93V102.57h1.492c1.762,0,1.569.463,1.634.943.008.057.008.32.008.462,0,.114,0,.377-.008.46-.044.483.128.94-1.634.94h-.562Zm0-1.658.563,0c.7,0,.673-.114.7-.355a.947.947,0,0,0,.006-.215,1.036,1.036,0,0,0-.006-.21c-.028-.241-.006-.355-.7-.355h-.563Zm-8.532,17.224,1.066,3.641h-.927l-.219-.753H38.414l.016-.053-.237.806h-.928l1.064-3.641Zm-.256,2.3-.431-1.483-.436,1.483ZM27.79,125.445h.928v-3.637H27.79Zm5.427,0h.927v-3.637h-.927Zm4.086-3.637H34.637v.927h.869v2.71h.928v-2.71H37.3Zm4.908,0h-.927v3.641h2.4v-.924H42.211Zm-11.941,1.1c.027-.241,0-.355.7-.355s.667.114.7.355a.565.565,0,0,1,.009.124h.951a3.182,3.182,0,0,0-.027-.373c-.055-.482.135-.943-1.627-.943s-1.573.461-1.628.943c-.017.157-.034.555-.032.957s.015.8.032.957c.055.482-.135.943,1.628.943s1.572-.461,1.627-.943c.01-.09.019-.271.025-.475v-.584H30.964v.584h.705c0,.107-.006.2-.009.226-.028.241,0,.355-.7.355s-.668-.114-.7-.355c-.009-.078-.017-.507-.017-.708S30.261,122.989,30.27,122.911Zm-3.106-.155a7.587,7.587,0,0,1,.033.84c0,.4-.015.748-.033.905-.055.482.135.944-1.627.944H23.919V121.81h1.618C27.3,121.81,27.109,122.274,27.164,122.756Zm-.917.84c0-.2-.007-.513-.016-.592-.028-.241,0-.355-.7-.355l-.518,0H24.85v1.97l.686-.007c.7,0,.667-.114.7-.355C26.24,124.174,26.248,123.8,26.247,123.6Zm6.738-20.245V119.9a.791.791,0,0,1-.791.791H30.741l-5.779,0a2.319,2.319,0,0,1-2.318-2.319v-8.837a2.318,2.318,0,0,1,2.318-2.319l3.32.006a.331.331,0,0,0,.331-.331l0-3.543a.791.791,0,0,1,.791-.79h2.794A.791.791,0,0,1,32.985,103.351Zm-.773,16.222-.022-15.884a.332.332,0,0,0-.332-.331h-2.13a.331.331,0,0,0-.331.331l-.011,3.533a.789.789,0,0,1-.79.79l-3.634,0a1.52,1.52,0,0,0-1.521,1.521v8.837a1.521,1.521,0,0,0,1.521,1.521l5.806.007H31.88A.332.332,0,0,0,32.212,119.573ZM29.4,110.932V117.1a1.657,1.657,0,0,1-3.313,0v-6.172a1.657,1.657,0,0,1,3.313,0Zm-.789,0a.868.868,0,0,0-1.735,0V117.1a.868.868,0,1,0,1.735,0v-.454h0Zm6.271,9.755a.787.787,0,0,1-.787-.79l0-11.88a.79.79,0,0,1,.79-.79h2.8a.79.79,0,0,1,.79.79V119.9a.79.79,0,0,1-.79.79H36.287Zm-.011-1.115a.331.331,0,0,0,.331.331h2.166a.332.332,0,0,0,.331-.332l-.022-11.216a.332.332,0,0,0-.331-.332H35.213a.332.332,0,0,0-.331.332Zm14.638-5.207-.01,3.992a2.319,2.319,0,0,1-2.319,2.319h-6.7a.79.79,0,0,1-.79-.79v-2.211a.79.79,0,0,1,.79-.79h4.676a.524.524,0,0,0,0-1.048l-3.141,0a2.318,2.318,0,0,1-2.318-2.319v-3.987a2.318,2.318,0,0,1,2.318-2.319l6.229,0a.79.79,0,0,1,.79.79l0,2.215a.788.788,0,0,1-.79.788H43.982a.525.525,0,0,0,0,1.049l3.207-.01A2.319,2.319,0,0,1,49.507,114.365Zm-.8,0a1.521,1.521,0,0,0-1.521-1.521l-3.207-.009a1.3,1.3,0,0,1,0-2.608l2.341,0h0l1.587,0a.332.332,0,0,0,.332-.332V108.32a.331.331,0,0,0-.331-.331l-5.9.028a1.52,1.52,0,0,0-1.521,1.521v3.987a1.521,1.521,0,0,0,1.521,1.521l3.141.013a1.3,1.3,0,0,1,0,2.608l-4.338.014a.331.331,0,0,0-.331.331v1.546a.331.331,0,0,0,.331.331l6.365-.011a1.521,1.521,0,0,0,1.521-1.521Zm7.4-1.935.01-1.5c0-.479-.223-.867-.7-.867s-.7.388-.7.867V117.1c0,.479.222.868.7.868s.7-.389.7-.868l-.01-1.5a.79.79,0,0,1,.79-.79h2.562a.79.79,0,0,1,.79.79v2.767a2.319,2.319,0,0,1-2.319,2.319H52.9a2.318,2.318,0,0,1-2.318-2.319v-8.838a2.318,2.318,0,0,1,2.318-2.318h5.029a2.319,2.319,0,0,1,2.319,2.319v2.892a.79.79,0,0,1-.79.79H56.9A.79.79,0,0,1,56.106,112.43Zm.8-1.5-.01,1.159a.331.331,0,0,0,.331.331h1.9a.331.331,0,0,0,.331-.331l0-2.554a1.52,1.52,0,0,0-1.521-1.521H52.9a1.52,1.52,0,0,0-1.521,1.521v8.837A1.521,1.521,0,0,0,52.9,119.9h5.029a1.521,1.521,0,0,0,1.521-1.521l0-2.429a.331.331,0,0,0-.331-.331h-1.9a.331.331,0,0,0-.331.331l.01,1.158a1.5,1.5,0,1,1-2.981,0v-6.171a1.5,1.5,0,1,1,2.981,0Zm1.32,10.91,1.066,3.641h-.927l-.219-.752H56.926l.016-.055-.237.807h-.928l1.064-3.641Zm-.256,2.3-.431-1.482L57.1,124.14Zm-5.845-2.3,1.066,3.641h-.927l-.219-.752H50.826l.015-.055-.237.807h-.928l1.064-3.641Zm-.256,2.3-.431-1.482L51,124.14Zm3.948-2.258H53.149v.928h.869v2.709h.928V122.81h.869Zm-6.517.948a7.851,7.851,0,0,1,.033.84c0,.4-.015.749-.033.906-.055.482.135.943-1.627.943H46.053v-3.635h1.618C49.433,121.884,49.243,122.348,49.3,122.83Zm-.917.84c0-.2-.008-.513-.017-.591-.027-.242,0-.355-.694-.355l-.518,0h-.168v1.971l.686-.008c.7,0,.667-.114.694-.355C48.373,124.249,48.382,123.871,48.381,123.67Z"/><path d="M86.725,31.99H80.06V12.323H99.151l1.81,3.786h-14.4v5.184H98.739L97.279,24.5H86.725ZM117.09,24.5h10.594l1.46-3.209H116.925V16.109h14.4l-1.81-3.786H110.424V31.99h6.666ZM102.463,31.99h6.583V12.323h-8.393l1.81,3.786ZM132.8,16.109l-1.81-3.786h8.848l10,19.667h-6.391l-1.611-3.168h-10.9L129.5,31.99h-3.918Zm3.294,1.429-3.836,8.373h8.2ZM97.088,39.864a.432.432,0,1,0,.431.432A.431.431,0,0,0,97.088,39.864Zm28.385,4.273,1.7-.474a15.087,15.087,0,0,1,9.174-2.988c6.834,0,12.6,4.249,13.415,9.885l.75-.108c-.867-6.006-6.957-10.535-14.165-10.535H98.161v.758h33.23A14.536,14.536,0,0,0,125.473,44.137ZM80.06,40.675H96.014v-.758H80.06Zm70.248,10.493h-1.425l.712,1.013.713,1.012.712-1.012.713-1.013Zm-27.143,3.248-.857-.314a11.081,11.081,0,0,0,2.608,5.005c.221-.129.442-.261.657-.395A10.458,10.458,0,0,1,123.165,54.416Zm13.177,8.737a15.138,15.138,0,0,1-9.028-2.873c-.264.123-.525.24-.783.349a15.8,15.8,0,0,0,9.811,3.282c7.088,0,13.019-4.267,14.1-10.146l-.745-.137C148.7,59.058,142.956,63.153,136.342,63.153Zm-3.4-7.717a3.5,3.5,0,0,0-.091.772c0,2.61,2.82,4.588,6.356,4.588s7.577-2.483,7.577-5.325c0-1.707-1.352-3-2.979-4.123.992-.366,3.653-1.563,3.653-3.875,0-2.841-3.705-3.81-3.705-3.81s1.558.556,1.558,2.989c0,1.928-1.846,3.427-2.614,3.967-2.2-1.381-4.479-2.574-4.479-4.114a3.2,3.2,0,0,1,1.757-2.705s-4.388,1.484-4.388,4.546c0,3.631,7.04,4.641,7.04,7.83,0,2.221-2.094,3.568-4.325,3.568s-4.188-1.2-4.188-3.789a4.528,4.528,0,0,1,1.536-3.683,6.228,6.228,0,0,0-1.55,1.14,8.212,8.212,0,0,0,.6-3.108,5.645,5.645,0,0,0-5.262-5.82,5.862,5.862,0,0,1,1.263,4.8c-.526,2.884-1.389,4.168-3.894,4.168s-2.66-2.084-2.66-3.3a6.515,6.515,0,0,1,2.576-5.472s-5.473,1.3-5.473,5.6,4.968,4.252,5.473,4.252a13.069,13.069,0,0,0,3.641-.9,13.129,13.129,0,0,1-3.031,4.453c-1.886,1.591-5.6,3.157-5.6,3.431C121.735,61.722,129.4,60.149,132.939,55.436ZM82.582,36.049a1.86,1.86,0,0,1-.439.162l1.6,2.133h-.855l-1.527-2.067h-.518v2.067h-.738v-4.4h1.521a2.54,2.54,0,0,1,.7.085,1.483,1.483,0,0,1,.5.238,1,1,0,0,1,.3.363,1.036,1.036,0,0,1,.1.459.956.956,0,0,1-.077.383,1.057,1.057,0,0,1-.219.322A1.424,1.424,0,0,1,82.582,36.049Zm-.161-.93a.929.929,0,0,0-.069-.361.856.856,0,0,0-.193-.284.892.892,0,0,0-.293-.185,1.026,1.026,0,0,0-.373-.066h-.65v1.833h.426a1.524,1.524,0,0,0,.459-.066,1.136,1.136,0,0,0,.365-.188.846.846,0,0,0,.328-.683Zm6.024-.148a2.2,2.2,0,0,1,.239.543,2.129,2.129,0,0,1,.086.606,2.232,2.232,0,0,1-.086.617,2.273,2.273,0,0,1-.615,1.028,2.4,2.4,0,0,1-.489.365,2.491,2.491,0,0,1-.58.235,2.614,2.614,0,0,1-1.307,0,2.474,2.474,0,0,1-.58-.235,2.431,2.431,0,0,1-.49-.365,2.264,2.264,0,0,1-.375-.472,2.329,2.329,0,0,1-.24-.555,2.223,2.223,0,0,1-.085-.618,2.128,2.128,0,0,1,.085-.606,2.244,2.244,0,0,1,.24-.543,2.217,2.217,0,0,1,.375-.459,2.455,2.455,0,0,1,1.07-.584,2.709,2.709,0,0,1,1.307,0,2.478,2.478,0,0,1,.58.229,2.426,2.426,0,0,1,.489.355A2.255,2.255,0,0,1,88.445,34.971ZM87.9,36.12a3.132,3.132,0,0,0-.1-.829,2,2,0,0,0-.3-.65,1.387,1.387,0,0,0-.488-.424,1.419,1.419,0,0,0-.666-.152,1.453,1.453,0,0,0-.677.152,1.367,1.367,0,0,0-.487.424,1.97,1.97,0,0,0-.3.65,3.266,3.266,0,0,0-.1.829,3.4,3.4,0,0,0,.1.844,2.055,2.055,0,0,0,.3.667,1.35,1.35,0,0,0,1.164.6,1.374,1.374,0,0,0,.666-.157,1.431,1.431,0,0,0,.488-.439,2.081,2.081,0,0,0,.3-.667A3.259,3.259,0,0,0,87.9,36.12Zm3.237-2.272h.183l2.07,4.5h-.751l-.672-1.467H90.085l-.694,1.467h-.369Zm-.1,1.006-.82,1.739h1.618Zm6.925.352a2.15,2.15,0,0,1,.187.9,2.264,2.264,0,0,1-.168.871,2.045,2.045,0,0,1-.493.711,2.31,2.31,0,0,1-.8.48,3.126,3.126,0,0,1-1.087.175H93.96v-4.4h1.461a4.711,4.711,0,0,1,1.166.126,2.006,2.006,0,0,1,.813.4A2.081,2.081,0,0,1,97.96,35.206Zm-.68.914a2.017,2.017,0,0,0-.133-.744,1.716,1.716,0,0,0-.371-.583,1.673,1.673,0,0,0-.568-.382,1.845,1.845,0,0,0-.721-.137H94.7v3.748h.782a1.984,1.984,0,0,0,.7-.123,1.611,1.611,0,0,0,.572-.364,1.7,1.7,0,0,0,.385-.6A2.2,2.2,0,0,0,97.28,36.12Zm5.2,2.224V34.233h1.59v-.284h-3.922v.284h1.593v4.111Zm6.4-3.373a2.206,2.206,0,0,1,.24.543,2.129,2.129,0,0,1,.086.606,2.232,2.232,0,0,1-.086.617,2.3,2.3,0,0,1-.24.556,2.2,2.2,0,0,1-.375.472,2.4,2.4,0,0,1-.489.365,2.481,2.481,0,0,1-.581.235,2.61,2.61,0,0,1-1.306,0,2.474,2.474,0,0,1-.58-.235,2.431,2.431,0,0,1-.49-.365,2.264,2.264,0,0,1-.375-.472,2.329,2.329,0,0,1-.24-.555,2.223,2.223,0,0,1-.085-.618,2.128,2.128,0,0,1,.085-.606,2.244,2.244,0,0,1,.24-.543,2.217,2.217,0,0,1,.375-.459,2.455,2.455,0,0,1,1.07-.584,2.705,2.705,0,0,1,1.306,0,2.469,2.469,0,0,1,.581.229,2.426,2.426,0,0,1,.489.355A2.155,2.155,0,0,1,108.875,34.971Zm-.542,1.149a3.132,3.132,0,0,0-.1-.829,2,2,0,0,0-.3-.65,1.387,1.387,0,0,0-.488-.424,1.419,1.419,0,0,0-.666-.152,1.446,1.446,0,0,0-.676.152,1.362,1.362,0,0,0-.488.424,1.97,1.97,0,0,0-.3.65,3.266,3.266,0,0,0-.1.829,3.4,3.4,0,0,0,.1.844,2.055,2.055,0,0,0,.3.667,1.353,1.353,0,0,0,1.164.6,1.374,1.374,0,0,0,.666-.157,1.431,1.431,0,0,0,.488-.439,2.081,2.081,0,0,0,.3-.667A3.259,3.259,0,0,0,108.333,36.12Zm6.233,2.225h1.148l2.172-4.929h-1.1l-.856,2.194c-.19.526-.373,1.06-.541,1.572h-.015c.022-.483.037-.973.044-1.565l.015-2.2h-1.156l-.884,2.209c-.227.6-.41,1.1-.578,1.579H112.8c.014-.439.021-1,.029-1.594l-.008-2.194h-1.06l.19,4.929h1.17l.841-2c.249-.607.417-1.133.6-1.659h.014c-.029.555-.043,1.052-.043,1.63Zm3.086-1.975a3.283,3.283,0,0,1,.906-2.332,2.582,2.582,0,0,1,1.8-.7,1.882,1.882,0,0,1,1.989,2.055,3.3,3.3,0,0,1-.877,2.325,2.56,2.56,0,0,1-1.821.709A1.914,1.914,0,0,1,117.652,36.37Zm1.119-.036c0,.694.314,1.214,1.03,1.214a1.2,1.2,0,0,0,.827-.359,2.813,2.813,0,0,0,.6-1.769c0-.614-.219-1.207-.994-1.207a1.167,1.167,0,0,0-.848.373A2.678,2.678,0,0,0,118.771,36.334Zm6.792-.315v.03c.293.124.417.453.468.9a8.686,8.686,0,0,0,.19,1.4h-1.082a7.981,7.981,0,0,1-.146-1.163c-.044-.6-.249-.782-.665-.782h-.322l-.366,1.945H122.6l.928-4.834a6.081,6.081,0,0,1,1.316-.131,2.547,2.547,0,0,1,1.3.285,1.069,1.069,0,0,1,.548.965A1.446,1.446,0,0,1,125.563,36.019Zm.022-1.235c0-.395-.336-.571-.753-.571a1.7,1.7,0,0,0-.409.037l-.264,1.36h.439A.885.885,0,0,0,125.585,34.784Zm2.209-1.368-.936,4.929H129.8l.176-.922h-1.894l.761-4.007Zm6.712.5a1.912,1.912,0,0,1,.651,1.543,2.881,2.881,0,0,1-1.016,2.267,3.587,3.587,0,0,1-2.362.651,8.738,8.738,0,0,1-1.345-.088l.914-4.8a8.008,8.008,0,0,1,1.36-.109A2.707,2.707,0,0,1,134.506,33.913Zm-.5,1.551a1.141,1.141,0,0,0-1.3-1.236,2.457,2.457,0,0,0-.446.029L131.64,37.5a2.74,2.74,0,0,0,.461.03,1.809,1.809,0,0,0,1.4-.578A2.193,2.193,0,0,0,134.009,35.464Zm4.782-.841a1.759,1.759,0,0,1,1.126-.38,2.183,2.183,0,0,1,.892.16l.285-.855a2.335,2.335,0,0,0-1.075-.212,3.082,3.082,0,0,0-1.813.526,2.871,2.871,0,0,0-1.243,2.464,2,2,0,0,0,2.179,2.092,3.369,3.369,0,0,0,1.3-.212l-.087-.849a2.569,2.569,0,0,1-.936.161,1.2,1.2,0,0,1-1.309-1.309A1.993,1.993,0,0,1,138.791,34.623Zm4.183-1.207h-1.053l-.519,2.75a3.845,3.845,0,0,0-.073.687,1.448,1.448,0,0,0,1.637,1.572c1.338,0,2-.717,2.282-2.208l.533-2.8h-1.052l-.541,2.845c-.176.914-.541,1.279-1.09,1.279a.661.661,0,0,1-.717-.7,2.777,2.777,0,0,1,.052-.585Zm6.332.293a1.2,1.2,0,0,1,.534,1.045,1.711,1.711,0,0,1-.673,1.39,2.564,2.564,0,0,1-1.572.453,3.341,3.341,0,0,1-.431-.029l-.337,1.777H145.8l.914-4.834A5.8,5.8,0,0,1,148,33.38,2.316,2.316,0,0,1,149.306,33.709Zm-.526,1.14c0-.475-.344-.628-.754-.628a1.876,1.876,0,0,0-.424.036l-.277,1.455a1.914,1.914,0,0,0,.4.037A.957.957,0,0,0,148.78,34.849Z" style="fill:#0e122d"/></svg>